<svg xmlns="http://www.w3.org/2000/svg" viewBox="0 0 500 500"><g id="freepik--background-complete--inject-127"><rect x="416.78" y="398.49" width="33.12" height="0.25" style="fill:#ebebeb"></rect><rect x="322.53" y="401.21" width="8.69" height="0.25" style="fill:#ebebeb"></rect><rect x="396.59" y="389.21" width="19.19" height="0.25" style="fill:#ebebeb"></rect><rect x="52.46" y="390.89" width="43.19" height="0.25" style="fill:#ebebeb"></rect><rect x="104.56" y="390.89" width="6.33" height="0.25" style="fill:#ebebeb"></rect><rect x="131.47" y="395.11" width="93.68" height="0.25" style="fill:#ebebeb"></rect><path d="M237,337.8H43.91a5.71,5.71,0,0,1-5.7-5.71V60.66A5.71,5.71,0,0,1,43.91,55H237a5.71,5.71,0,0,1,5.71,5.71V332.09A5.71,5.71,0,0,1,237,337.8ZM43.91,55.2a5.46,5.46,0,0,0-5.45,5.46V332.09a5.46,5.46,0,0,0,5.45,5.46H237a5.47,5.47,0,0,0,5.46-5.46V60.66A5.47,5.47,0,0,0,237,55.2Z" style="fill:#ebebeb"></path><path d="M453.31,337.8H260.21a5.72,5.72,0,0,1-5.71-5.71V60.66A5.72,5.72,0,0,1,260.21,55h193.1A5.71,5.71,0,0,1,459,60.66V332.09A5.71,5.71,0,0,1,453.31,337.8ZM260.21,55.2a5.47,5.47,0,0,0-5.46,5.46V332.09a5.47,5.47,0,0,0,5.46,5.46h193.1a5.47,5.47,0,0,0,5.46-5.46V60.66a5.47,5.47,0,0,0-5.46-5.46Z" style="fill:#ebebeb"></path><rect y="382.03" width="500" height="0.25" style="fill:#ebebeb"></rect><circle cx="411.76" cy="220" r="28.44" transform="matrix(0.16, -0.99, 0.99, 0.16, 128.64, 591.21)" style="fill:#e0e0e0"></circle><circle cx="409.85" cy="218.81" r="28.44" transform="translate(128.21 588.32) rotate(-80.78)" style="fill:#ebebeb"></circle><circle cx="409.85" cy="219" r="22.83" style="fill:#fff;opacity:0.8"></circle><path d="M411.76,220.71a2.32,2.32,0,1,1-2.31-2.32A2.31,2.31,0,0,1,411.76,220.71Z" style="fill:#e0e0e0"></path><polygon points="409.18 221.56 399.36 212.32 400.31 211.3 409.21 219.68 425.16 205.59 426.08 206.63 409.18 221.56" style="fill:#e0e0e0"></polygon><path d="M253,161a86.71,86.71,0,0,1,86.19,76.83,88.05,88.05,0,0,1,0,19.83A86.71,86.71,0,0,1,253,334.44c-2.42,0-4.83-.1-7.2-.3a86.74,86.74,0,0,1,0-172.89C248.17,161.05,250.58,161,253,161Z" style="fill:#e0e0e0"></path><path d="M250,158a86.71,86.71,0,0,1,86.19,76.83,88.05,88.05,0,0,1,0,19.83A86.71,86.71,0,0,1,250,331.44c-2.42,0-4.83-.1-7.2-.3a86.74,86.74,0,0,1,0-172.89C245.17,158.05,247.58,158,250,158Z" style="fill:#ebebeb"></path><circle cx="253.37" cy="244.7" r="38.82" style="fill:#e0e0e0"></circle><circle cx="253.37" cy="244.7" r="26.9" transform="translate(-28.75 455.6) rotate(-80.78)" style="fill:#f5f5f5"></circle><circle cx="253.01" cy="244.7" r="4.22" style="fill:#e0e0e0"></circle><path d="M291.53,237.53l44.66-2.75a88.05,88.05,0,0,1,0,19.83l-44.66-2.75-12-.75L258,249.79l-5.1-.31-5.1.31-20.58,1.27-12,.74L163.86,255a86.76,86.76,0,0,1,0-20.54l51.34,3.16,12,.74,20.58,1.27,5.1.31,5.1-.31,21.48-1.33Z" style="fill:#fff;opacity:0.6000000000000001"></path><path d="M411.72,331.91a27.46,27.46,0,0,1-5.12-.2,26.2,26.2,0,0,1-17.43-10.16l-.86.65a27.29,27.29,0,0,0,18.14,10.58,27.88,27.88,0,0,0,5.39.2,1.24,1.24,0,0,1-.19-.88A.73.73,0,0,1,411.72,331.91Z" style="fill:#e0e0e0"></path><rect x="408.78" y="331.12" width="5.21" height="15.07" transform="translate(49.32 -52.29) rotate(7.73)" style="fill:#ebebeb"></rect><path d="M388.41,356.52c1.06-7.79,10.95-12.88,22.09-11.37s19.33,9.06,18.27,16.85Z" style="fill:#ebebeb"></path><rect x="384.83" y="306.6" width="53.66" height="1.08" transform="translate(-101.91 313.76) rotate(-37.47)" style="fill:#e0e0e0"></rect><circle cx="411.85" cy="307.17" r="19.53" transform="translate(-20.77 584.32) rotate(-69.36)" style="fill:#ebebeb"></circle><path d="M396.18,319.53a20,20,0,0,1,31.43-24.65l-.7.54a19.09,19.09,0,0,0-30,23.57Z" style="fill:#e0e0e0"></path><path d="M396.18,319.53l.69-.54a19.09,19.09,0,1,0,30-23.57l.7-.54a20,20,0,0,1-31.43,24.65Z" style="fill:#e0e0e0"></path><path d="M418.19,315.24l-.55-.69c5.1-4,9.89-11.93,9.18-19.35l.87-.09C428.43,302.86,423.47,311.1,418.19,315.24Z" style="fill:#e0e0e0"></path><path d="M396.84,319.31l.29-.83c7.05,2.46,15.89-.3,21-4.3l.55.69C413.37,319,404.19,321.87,396.84,319.31Z" style="fill:#e0e0e0"></path><path d="M406.14,299.87l-.55-.69c5.28-4.14,14.47-7,21.82-4.44l-.29.83C420.07,293.11,411.23,295.88,406.14,299.87Z" style="fill:#e0e0e0"></path><path d="M396.55,318.94c-.73-7.74,4.23-16,9.51-20.13l.54.69c-5.09,4-9.88,11.93-9.17,19.35Z" style="fill:#e0e0e0"></path><rect x="392.36" y="306.77" width="39.07" height="0.88" transform="translate(-101.8 319.67) rotate(-38.11)" style="fill:#e0e0e0"></rect><rect x="419.64" y="284.25" width="0.88" height="33.07" transform="translate(-96.09 323.37) rotate(-38.11)" style="fill:#e0e0e0"></rect><rect x="411.19" y="287.89" width="0.88" height="39.05" transform="translate(-101.98 319.57) rotate(-38.11)" style="fill:#e0e0e0"></rect><rect x="402.75" y="297.94" width="0.88" height="32.19" transform="translate(-107.87 315.77) rotate(-38.11)" style="fill:#e0e0e0"></rect><path d="M437.33,309.28A27.25,27.25,0,0,0,432,289l-.86.66a26.37,26.37,0,0,1-19.4,42.28.73.73,0,0,0-.07.19,1.24,1.24,0,0,0,.19.88,27.46,27.46,0,0,0,25.49-23.7Z" style="fill:#e0e0e0"></path><circle cx="85.68" cy="103.23" r="32.56" transform="translate(-47.9 90.82) rotate(-45)" style="fill:#e0e0e0"></circle><path d="M49.76,102.06A33.43,33.43,0,1,0,83.2,68.63,33.43,33.43,0,0,0,49.76,102.06ZM77.61,77.3a4.74,4.74,0,0,1-3.4-.07c.52,2.33-1.77,4.4-3.94,5.58-2.8,1.53-6,2.16-6.56-.34-.37-1.51.76-3.64,3.63-5.59,1.54-1,4-1.84,5.56-1.24-.23-1.38,1-2.94,3-3.58S80,72,80.5,73.43,79.68,76.61,77.61,77.3ZM93.85,88.79a4.65,4.65,0,1,1-1.46-6.41A4.64,4.64,0,0,1,93.85,88.79ZM78.21,126.92a3.57,3.57,0,1,1,3.57,3.57A3.57,3.57,0,0,1,78.21,126.92Zm-.94-12.25a4.09,4.09,0,0,1,4.09-4.09h.18a15.09,15.09,0,0,1,19.53-17.07,6.07,6.07,0,1,1,8.77,7.51,15.1,15.1,0,0,1-9.3,21.36,3,3,0,0,1,.43,1.56,3.1,3.1,0,0,1-6.19,0,3.2,3.2,0,0,1,.18-1,15.28,15.28,0,0,1-6.61-2.25,14.87,14.87,0,0,1-3.8-3.42,4.09,4.09,0,0,1-7.28-2.56Zm-9-23.83a3.07,3.07,0,0,1,2.78-3.32A3.16,3.16,0,0,1,73,88a4.66,4.66,0,1,1,1.24,3.39,3.06,3.06,0,0,1-6-.58Zm-4.43,28.07a2.32,2.32,0,1,1,2.32,2.32A2.32,2.32,0,0,1,63.86,118.91ZM59.35,92.77a3.06,3.06,0,1,1,3.32,2.79A3.07,3.07,0,0,1,59.35,92.77Z" style="fill:#f0f0f0"></path><path d="M63.86,118.91a2.32,2.32,0,1,0,2.32-2.32A2.32,2.32,0,0,0,63.86,118.91Z" style="fill:#e6e6e6"></path><path d="M63.53,118.91a2.66,2.66,0,1,1,2.65,2.66A2.65,2.65,0,0,1,63.53,118.91Zm.67,0a2,2,0,1,0,2-2A2,2,0,0,0,64.2,118.91Z" style="fill:#fafafa"></path><path d="M78.21,126.92a3.57,3.57,0,1,0,3.57-3.56A3.57,3.57,0,0,0,78.21,126.92Z" style="fill:#e6e6e6"></path><path d="M77.87,126.93a3.91,3.91,0,1,1,3.91,3.9A3.92,3.92,0,0,1,77.87,126.93Zm.68,0a3.23,3.23,0,1,0,3.23-3.24A3.23,3.23,0,0,0,78.55,126.93Z" style="fill:#fafafa"></path><path d="M87.44,90.26A4.65,4.65,0,1,0,86,83.85,4.64,4.64,0,0,0,87.44,90.26Z" style="fill:#e6e6e6"></path><path d="M87.26,90.54a5,5,0,1,1,3.77.64,4.82,4.82,0,0,1-1.12.13A5,5,0,0,1,87.26,90.54Zm-1-6.52a4.3,4.3,0,0,0,1.36,6h0a4.3,4.3,0,0,0,3.26.56A4.32,4.32,0,1,0,86.26,84Z" style="fill:#fafafa"></path><path d="M68.29,90.84a3.06,3.06,0,0,0,6,.58A4.65,4.65,0,1,0,73,88a3.16,3.16,0,0,0-2-.51A3.07,3.07,0,0,0,68.29,90.84Z" style="fill:#e6e6e6"></path><path d="M69.15,93.18a3.41,3.41,0,0,1-.42-4.79,3.39,3.39,0,0,1,4-.9,5,5,0,1,1,5.36,5.73,4.93,4.93,0,0,1-3.7-1.2A3.41,3.41,0,0,1,71.63,94h-.3A3.36,3.36,0,0,1,69.15,93.18Zm5.38-2a4.26,4.26,0,0,0,3.53,1.36A4.32,4.32,0,0,0,82,87.88,4.33,4.33,0,0,0,77.32,84a4.34,4.34,0,0,0-3.95,4.1.31.31,0,0,1-.18.28.32.32,0,0,1-.34,0,2.73,2.73,0,0,0-3.6.51,2.73,2.73,0,0,0-.63,2h0a2.66,2.66,0,0,0,1,1.85A2.73,2.73,0,0,0,74,91.33a.3.3,0,0,1,.24-.23h.08A.35.35,0,0,1,74.53,91.19Z" style="fill:#fafafa"></path><path d="M59.35,92.77a3.06,3.06,0,1,0,2.79-3.32A3.08,3.08,0,0,0,59.35,92.77Z" style="fill:#e6e6e6"></path><path d="M59,92.8h0a3.4,3.4,0,1,1,3.68,3.09H62.4A3.41,3.41,0,0,1,59,92.8Zm3.16-3a2.73,2.73,0,1,0,.23,0Zm-2.82,3Z" style="fill:#fafafa"></path><path d="M65.2,114.11a.18.18,0,0,0,.1,0,.33.33,0,0,0,.21-.42c-1.86-5.47-.4-16.44-.39-16.55a.34.34,0,0,0-.28-.38.34.34,0,0,0-.38.29c-.06.46-1.5,11.24.42,16.85A.33.33,0,0,0,65.2,114.11Z" style="fill:#fafafa"></path><path d="M61.42,117.15a.37.37,0,0,0,.27-.13.36.36,0,0,0-.06-.48,15.56,15.56,0,0,1-5.29-8,.33.33,0,0,0-.42-.22.34.34,0,0,0-.23.42,16.3,16.3,0,0,0,5.52,8.36A.37.37,0,0,0,61.42,117.15Z" style="fill:#fafafa"></path><path d="M75.77,121.86a.34.34,0,0,0,0-.68,19,19,0,0,1-4.78-.79.34.34,0,0,0-.2.64,20.08,20.08,0,0,0,5,.83Z" style="fill:#fafafa"></path><path d="M63.74,127.68a.35.35,0,0,0,.33-.25l1.14-4.2a.34.34,0,1,0-.65-.17l-1.14,4.19a.34.34,0,0,0,.23.42Z" style="fill:#fafafa"></path><path d="M56.56,121.9h0a12.85,12.85,0,0,0,4.93-1.31.34.34,0,0,0-.31-.6,11.89,11.89,0,0,1-4.67,1.23.34.34,0,0,0,0,.68Z" style="fill:#fafafa"></path><path d="M69.34,115.5a.34.34,0,0,0,.31-.19c1.32-2.84,6.2-12.48,6.25-12.58a.33.33,0,0,0-.15-.45.34.34,0,0,0-.45.15c0,.09-4.94,9.75-6.26,12.59a.34.34,0,0,0,.16.45Z" style="fill:#fafafa"></path><path d="M75.7,130.74a.32.32,0,0,0,.29-.17.34.34,0,0,0-.13-.46,20.35,20.35,0,0,1-7.31-7.4A.33.33,0,0,0,68,123a21.06,21.06,0,0,0,7.56,7.66A.53.53,0,0,0,75.7,130.74Z" style="fill:#fafafa"></path><path d="M77.27,114.67a4.09,4.09,0,0,0,7.28,2.56,14.87,14.87,0,0,0,3.8,3.42A15.28,15.28,0,0,0,95,122.9a3.2,3.2,0,0,0-.18,1,3.1,3.1,0,0,0,6.19,0,3,3,0,0,0-.43-1.56,15.1,15.1,0,0,0,9.3-21.36,6.06,6.06,0,1,0-8.77-7.51,15.09,15.09,0,0,0-19.53,17.07h-.18A4.09,4.09,0,0,0,77.27,114.67Zm0,0a4.09,4.09,0,0,0,7.28,2.56,14.87,14.87,0,0,0,3.8,3.42A15.28,15.28,0,0,0,95,122.9a3.2,3.2,0,0,0-.18,1,3.1,3.1,0,0,0,6.19,0,3,3,0,0,0-.43-1.56,15.1,15.1,0,0,0,9.3-21.36,6.06,6.06,0,1,0-8.77-7.51,15.09,15.09,0,0,0-19.53,17.07h-.18A4.09,4.09,0,0,0,77.27,114.67Z" style="fill:#e6e6e6"></path><path d="M63.71,82.47c.6,2.5,3.76,1.87,6.56.34,2.17-1.18,4.46-3.25,3.94-5.58a4.74,4.74,0,0,0,3.4.07c2.07-.69,3.37-2.42,2.89-3.87S78,71.37,75.87,72.06s-3.2,2.2-3,3.58c-1.53-.6-4,.19-5.56,1.24C64.47,78.83,63.34,81,63.71,82.47Z" style="fill:#e6e6e6"></path><path d="M64.72,84.24a2.36,2.36,0,0,1-1.34-1.69h0c-.43-1.79,1-4.07,3.77-6a8,8,0,0,1,5.39-1.42c.07-1.41,1.36-2.83,3.22-3.44a5.23,5.23,0,0,1,3.12-.12,2.77,2.77,0,0,1,1.94,1.71c.53,1.62-.86,3.54-3.11,4.29a5.3,5.3,0,0,1-3.09.12c.14,2.76-3.12,4.78-4.18,5.36A10.28,10.28,0,0,1,66,84.49,3.2,3.2,0,0,1,64.72,84.24Zm9.63-7.32A4.35,4.35,0,0,0,77.5,77c1.9-.63,3.1-2.17,2.68-3.44a2.11,2.11,0,0,0-1.49-1.27,4.63,4.63,0,0,0-2.72.11c-1.74.57-2.94,2-2.73,3.2a.35.35,0,0,1-.12.32.33.33,0,0,1-.34,0c-1.38-.53-3.76.19-5.25,1.21-3,2-3.78,4-3.5,5.23h0a1.69,1.69,0,0,0,1,1.23c1.07.48,3,.06,5.12-1.11,1-.56,4.35-2.6,3.77-5.21A.33.33,0,0,1,74,77a.32.32,0,0,1,.21-.08A.32.32,0,0,1,74.35,76.92ZM63.7,82.47h0Z" style="fill:#fafafa"></path><path d="M94.45,123.94a3.08,3.08,0,0,1,.08-.75,15.58,15.58,0,0,1-6.35-2.26,15.25,15.25,0,0,1-3.65-3.18,4.39,4.39,0,0,1-3.17,1.35,4.43,4.43,0,0,1-.22-8.85,14.93,14.93,0,0,1-.19-2.4A15.43,15.43,0,0,1,100.89,93.1a6.4,6.4,0,1,1,9.38,8A15.43,15.43,0,0,1,101,122.58a3.51,3.51,0,0,1,.27,1.36,3.43,3.43,0,1,1-6.85,0Zm5.8-1.39-.22-.38.42-.12a14.79,14.79,0,0,0,9.09-20.88l-.14-.27.26-.17a5.72,5.72,0,1,0-8.28-7.09l-.12.29-.3-.1a14.76,14.76,0,0,0-19.34,14,14.19,14.19,0,0,0,.25,2.67l.07.4h-.58a3.76,3.76,0,0,0,0,7.51,3.72,3.72,0,0,0,2.92-1.4l.27-.33.26.34A14.81,14.81,0,0,0,95,122.56l.44,0-.15.41a2.88,2.88,0,0,0-.16.93,2.76,2.76,0,1,0,5.51,0A2.66,2.66,0,0,0,100.25,122.55Z" style="fill:#fafafa"></path><path d="M95.26,108.57a2,2,0,1,1,2.15-3.26,1.95,1.95,0,0,1-.68,3.54,1.81,1.81,0,0,1-.4,0A1.94,1.94,0,0,1,95.26,108.57Z" style="fill:#f0f0f0"></path></g><g id="freepik--Circles--inject-127"><path d="M244.76,212.29a.93.93,0,0,0-.13.15h-.17Z" style="fill:#263238"></path><path d="M262.43,226.59s-.06,0-.07,0a0,0,0,0,1,0,0S262.42,226.56,262.43,226.59Z" style="fill:#263238"></path><circle cx="348.88" cy="117.15" r="53.49" style="fill:#407BFF"></circle><circle cx="349.17" cy="117.15" r="8.91" transform="translate(19.43 281.21) rotate(-45)" style="fill:#fff"></circle><path d="M348.88,63.66a53.49,53.49,0,1,0,53.5,53.49A53.49,53.49,0,0,0,348.88,63.66Zm6.81,60c-9.53,7.27-20.32-3.52-13.05-13C352.17,103.35,363,114.14,355.69,123.67Z" style="fill:#fff;opacity:0.5"></path><circle cx="116.62" cy="217.8" r="8.28" transform="translate(-119.85 146.26) rotate(-45)" style="fill:#407BFF"></circle><circle cx="116.62" cy="217.8" r="8.28" transform="translate(-119.85 146.26) rotate(-45)" style="fill:#fff;opacity:0.4"></circle><circle cx="429.79" cy="335.05" r="0.67" style="fill:#e0e0e0"></circle><path d="M389.87,75.31a59.81,59.81,0,0,0-20.52-13l.35-.94a61.26,61.26,0,0,1,20.87,13.17Z" style="fill:#407BFF"></path><path d="M364.63,60.83c-.95-.27-1.93-.51-2.9-.72l.21-1c1,.22,2,.47,3,.73Z" style="fill:#407BFF"></path><path d="M97.69,300.13a17.8,17.8,0,0,0-7-7.88l.52-.86a18.84,18.84,0,0,1,7.39,8.32Z" style="fill:#407BFF"></path><path d="M87.62,290.79a18.37,18.37,0,0,0-3.08-.83l.18-1a19.58,19.58,0,0,1,3.24.87Z" style="fill:#407BFF"></path><path d="M49,402.48l-.41-.91c14.33-7.72,27.8-10.21,42.73-14.34l.27,1C76.73,392.31,64.62,394.68,49,402.48Z" style="fill:#407BFF"></path><path d="M38.69,408.14l-.52-.86c1.53-.92,3.09-1.82,4.64-2.68l.48.88C41.76,406.33,40.21,407.22,38.69,408.14Z" style="fill:#407BFF"></path><path d="M80.26,326.53a17.33,17.33,0,1,1,17.33-17.32A17.34,17.34,0,0,1,80.26,326.53Zm0-33.15a15.83,15.83,0,1,0,15.83,15.83A15.84,15.84,0,0,0,80.26,293.38Z" style="fill:#407BFF"></path><path d="M410.8,242.88a24,24,0,1,1,24-24A24,24,0,0,1,410.8,242.88Zm0-46.45a22.48,22.48,0,1,0,22.48,22.48A22.5,22.5,0,0,0,410.8,196.43Z" style="fill:#407BFF"></path><path d="M250.3,469.14c-56.18,0-109-4.48-148.75-12.61-40.08-8.19-62.15-19.24-62.15-31.12s22.07-22.92,62.15-31.12c39.74-8.13,92.57-12.6,148.75-12.6s109,4.47,148.76,12.6c40.08,8.2,62.15,19.25,62.15,31.12s-22.07,22.93-62.15,31.12C359.31,464.66,306.49,469.14,250.3,469.14Zm0-85.95c-56.08,0-108.81,4.46-148.45,12.57-38.74,7.92-60.95,18.73-60.95,29.65s22.21,21.73,61,29.66c39.64,8.1,92.37,12.57,148.45,12.57s108.81-4.47,148.45-12.57c38.74-7.93,61-18.73,61-29.66s-22.22-21.73-61-29.65C359.11,387.65,306.39,383.19,250.3,383.19Z" style="fill:#407BFF"></path></g></svg>