<svg width="1467" height="245" viewBox="0 0 1467 245" fill="none" xmlns="http://www.w3.org/2000/svg">
<path d="M46.4668 3.00015C44.0668 13.0002 0.333496 230.733 0.333496 232.6C0.333496 233.267 8.06683 233.667 17.6668 233.667C34.4668 233.667 35.0002 233.533 35.6668 230.6C36.0668 229 41.6668 200.733 48.3335 167.8C54.8668 134.867 60.6002 107.533 61.0002 107.133C62.2002 106.067 62.2002 106.067 95.8002 177.267C113.134 214.2 127.8 244.333 128.2 244.333C128.6 244.2 135.934 229.4 144.334 211.267C152.734 193.133 165.267 166.333 172.067 151.667C179 137 186.734 120.6 189.134 115.133C191.667 109.667 194.067 105.533 194.334 105.933C194.734 106.333 199.267 127 204.334 151.8C218.6 222.333 220.6 231.533 221.267 232.6C221.534 233.267 229.667 233.667 239.134 233.667C255 233.667 256.467 233.533 255.8 231.267C255.4 230.067 250.2 204.733 244.334 175C238.334 145.267 228.067 94.6002 221.534 62.3335C215 30.2002 209.667 3.26682 209.667 2.73348C209.667 2.20015 209.134 1.66682 208.6 1.66682C207.4 1.66682 206.067 4.20015 172.334 76.3335C160.467 101.667 145.934 132.733 139.934 145.4C134.067 158.067 128.467 168.2 127.8 167.933C127 167.667 117.267 147.933 106.067 124.2C80.0668 68.8668 49.5335 4.20015 48.2002 1.66682C47.4002 0.20015 47.0002 0.466817 46.4668 3.00015Z" fill="url(#paint0_linear_432_26)"/>
<path d="M403.267 116.6L403.667 233L421.4 233.4L439 233.8V156.2C439 109.933 439.534 79.0002 440.2 79.2668C440.867 79.4002 477.8 116.733 522.334 162.067C566.867 207.267 603.667 244.333 604.067 244.333C604.6 244.333 604.867 191.8 604.6 127.667L604.334 11.0002H587H569.667L569.534 88.6002V166.333L487.267 83.2668C442.067 37.6668 404.6 0.333483 403.934 0.333483C403.4 0.333483 403.134 52.7335 403.267 116.6Z" fill="url(#paint1_linear_432_26)"/>
<path d="M304.333 122.334V233.667H322.333H340.333V122.334V11.0003H322.333H304.333V122.334Z" fill="url(#paint2_linear_432_26)"/>
<path d="M668.333 122.334V233.667H685.667H703V122.334V11.0003H685.667H668.333V122.334Z" fill="url(#paint3_linear_432_26)"/>
<path d="M871 122.334V233.667H888.333H905.667L905.4 190.067L905 146.467L894.333 138.334L883.667 130.334L891 129.667C895 129.267 921.933 129.134 950.733 129.4L1003 129.667V181.667V233.667H1020.33H1037.67V122.334V11.0003H1020.33H1003L1002.73 54.6003L1002.33 98.3337H954.333H906.333L905.933 54.6003L905.667 11.0003H888.333H871V122.334Z" fill="url(#paint4_linear_432_26)"/>
<path d="M1098.07 90.6C1098.47 161.667 1098.87 171.267 1100.87 178.333C1109.53 207.933 1132.2 228.467 1163 234.467C1185.53 238.867 1214.47 234.6 1231.67 224.2C1242.07 217.933 1255.27 203.8 1260.2 193.267C1269.13 174.6 1269 175.8 1269 89.6667V11.6667L1251.4 11.2667L1233.8 10.8667L1233.4 89.2667C1233 165.133 1232.87 167.933 1230.2 174.333C1228.73 178.067 1225.93 183.4 1224.07 186.2C1219.53 192.733 1208.33 201.133 1201.27 203.267C1194.07 205.4 1173.27 205.4 1166.07 203.267C1157.67 200.733 1148.2 193.533 1142.73 185.533C1133.8 172.6 1133.67 171.4 1133.67 86.7334V11H1115.53H1097.53L1098.07 90.6Z" fill="url(#paint5_linear_432_26)"/>
<path d="M1329.67 122.2V233.667H1364.73C1394.07 233.667 1401.67 233.267 1412.33 231C1450.87 223.134 1470.2 197.267 1465.53 160.067C1463.13 141.134 1452.73 125.934 1436.87 118.334C1432.6 116.2 1428.73 114.334 1428.47 114.067C1428.07 113.8 1429.4 111.934 1431.27 109.934C1440.6 99.8003 1445.67 87.0003 1445.67 73.667C1445.67 42.3336 1430.6 22.867 1399.67 14.2003C1393.67 12.6003 1383.93 11.8003 1360.73 11.4003L1329.67 10.7336V122.2ZM1398.07 45.5336C1406.33 49.5336 1410.73 56.2003 1412.73 67.4003C1414.87 79.9337 1412.47 89.5337 1405.4 97.1337C1398.73 104.467 1390.87 107 1375.4 107H1364.33V74.2003V41.4003L1378.07 41.9336C1389.13 42.2003 1392.87 42.867 1398.07 45.5336ZM1413.67 139.134C1426.47 145.267 1432.6 154.6 1432.6 168.334C1432.6 181.4 1426.73 191 1415 197C1405.93 201.534 1395.93 203.267 1379.67 202.734L1365 202.334L1364.6 177.934L1364.33 153.534L1352.33 144.867C1345.67 140.067 1340.6 135.667 1340.87 135.267C1341.13 134.734 1356.07 134.6 1373.93 135C1405.27 135.667 1406.6 135.8 1413.67 139.134Z" fill="url(#paint6_linear_432_26)"/>
<defs>
<linearGradient id="paint0_linear_432_26" x1="119.713" y1="234.518" x2="119.712" y2="11.4202" gradientUnits="userSpaceOnUse">
<stop stop-color="#02020B"/>
<stop offset="0.9999" stop-color="#151516"/>
<stop offset="1" stop-color="#191919"/>
</linearGradient>
<linearGradient id="paint1_linear_432_26" x1="497.334" y1="234.5" x2="497.333" y2="11" gradientUnits="userSpaceOnUse">
<stop stop-color="#02020B"/>
<stop offset="0.9999" stop-color="#151516"/>
<stop offset="1" stop-color="#191919"/>
</linearGradient>
<linearGradient id="paint2_linear_432_26" x1="321.148" y1="224.693" x2="321.146" y2="20.7342" gradientUnits="userSpaceOnUse">
<stop stop-color="#02020B"/>
<stop offset="0.9999" stop-color="#151516"/>
<stop offset="1" stop-color="#191919"/>
</linearGradient>
<linearGradient id="paint3_linear_432_26" x1="684.525" y1="224.693" x2="684.523" y2="20.7342" gradientUnits="userSpaceOnUse">
<stop stop-color="#02020B"/>
<stop offset="0.9999" stop-color="#151516"/>
<stop offset="1" stop-color="#191919"/>
</linearGradient>
<linearGradient id="paint4_linear_432_26" x1="948.844" y1="224.693" x2="948.844" y2="20.7342" gradientUnits="userSpaceOnUse">
<stop stop-color="#02020B"/>
<stop offset="0.9999" stop-color="#151516"/>
<stop offset="1" stop-color="#191919"/>
</linearGradient>
<linearGradient id="paint5_linear_432_26" x1="1177.62" y1="227.105" x2="1177.62" y2="20.7166" gradientUnits="userSpaceOnUse">
<stop stop-color="#02020B"/>
<stop offset="0.9999" stop-color="#151516"/>
<stop offset="1" stop-color="#191919"/>
</linearGradient>
<linearGradient id="paint6_linear_432_26" x1="1393.45" y1="224.683" x2="1393.45" y2="20.4792" gradientUnits="userSpaceOnUse">
<stop stop-color="#02020B"/>
<stop offset="0.9999" stop-color="#151516"/>
<stop offset="1" stop-color="#191919"/>
</linearGradient>
</defs>
</svg>
