<svg width="1466" height="244" viewBox="0 0 1466 244" fill="none" xmlns="http://www.w3.org/2000/svg">
<path d="M46.1333 2.66665C43.7333 12.6667 0 230.4 0 232.267C0 232.933 7.73333 233.333 17.3333 233.333C34.1333 233.333 34.6667 233.2 35.3333 230.267C35.7333 228.667 41.3333 200.4 48 167.467C54.5333 134.533 60.2667 107.2 60.6667 106.8C61.8667 105.733 61.8667 105.733 95.4667 176.933C112.8 213.867 127.467 244 127.867 244C128.267 243.867 135.6 229.067 144 210.933C152.4 192.8 164.933 166 171.733 151.333C178.667 136.667 186.4 120.267 188.8 114.8C191.333 109.333 193.733 105.2 194 105.6C194.4 106 198.933 126.667 204 151.467C218.267 222 220.267 231.2 220.933 232.267C221.2 232.933 229.333 233.333 238.8 233.333C254.667 233.333 256.133 233.2 255.467 230.933C255.067 229.733 249.867 204.4 244 174.667C238 144.933 227.733 94.2667 221.2 62C214.667 29.8667 209.333 2.93332 209.333 2.39999C209.333 1.86665 208.8 1.33332 208.267 1.33332C207.067 1.33332 205.733 3.86665 172 76C160.133 101.333 145.6 132.4 139.6 145.067C133.733 157.733 128.133 167.867 127.467 167.6C126.667 167.333 116.933 147.6 105.733 123.867C79.7333 68.5333 49.2 3.86665 47.8667 1.33332C47.0667 -0.133346 46.6667 0.133321 46.1333 2.66665Z" fill="url(#paint0_linear_441_19)"/>
<path d="M402.933 116.267L403.333 232.667L421.067 233.067L438.667 233.467V155.867C438.667 109.6 439.2 78.6667 439.867 78.9333C440.533 79.0667 477.467 116.4 522 161.733C566.533 206.933 603.333 244 603.733 244C604.267 244 604.533 191.467 604.267 127.333L604 10.6667H586.667H569.333L569.2 88.2667V166L486.933 82.9333C441.733 37.3333 404.267 -1.27256e-05 403.6 -1.27256e-05C403.067 -1.27256e-05 402.8 52.4 402.933 116.267Z" fill="url(#paint1_linear_441_19)"/>
<path d="M304 122V233.333H322H340V122V10.6668H322H304V122Z" fill="url(#paint2_linear_441_19)"/>
<path d="M668 122V233.333H685.333H702.667V122V10.6668H685.333H668V122Z" fill="url(#paint3_linear_441_19)"/>
<path d="M870.667 122V233.333H888H905.333L905.067 189.733L904.667 146.133L894 138L883.333 130L890.667 129.333C894.667 128.933 921.6 128.8 950.4 129.067L1002.67 129.333V181.333V233.333H1020H1037.33V122V10.6668H1020H1002.67L1002.4 54.2668L1002 98.0002H954H906L905.6 54.2668L905.333 10.6668H888H870.667V122Z" fill="url(#paint4_linear_441_19)"/>
<path d="M1097.73 90.2665C1098.13 161.333 1098.53 170.933 1100.53 178C1109.2 207.6 1131.87 228.133 1162.67 234.133C1185.2 238.533 1214.13 234.267 1231.33 223.867C1241.73 217.6 1254.93 203.467 1259.87 192.933C1268.8 174.267 1268.67 175.467 1268.67 89.3332V11.3332L1251.07 10.9332L1233.47 10.5332L1233.07 88.9332C1232.67 164.8 1232.53 167.6 1229.87 174C1228.4 177.733 1225.6 183.067 1223.73 185.867C1219.2 192.4 1208 200.8 1200.93 202.933C1193.73 205.067 1172.93 205.067 1165.73 202.933C1157.33 200.4 1147.87 193.2 1142.4 185.2C1133.47 172.267 1133.33 171.067 1133.33 86.3999V10.6665H1115.2H1097.2L1097.73 90.2665Z" fill="url(#paint5_linear_441_19)"/>
<path d="M1329.33 121.867V233.333H1364.4C1393.73 233.333 1401.33 232.933 1412 230.667C1450.53 222.8 1469.87 196.933 1465.2 159.733C1462.8 140.8 1452.4 125.6 1436.53 118C1432.27 115.867 1428.4 114 1428.13 113.733C1427.73 113.467 1429.07 111.6 1430.93 109.6C1440.27 99.4668 1445.33 86.6668 1445.33 73.3335C1445.33 42.0002 1430.27 22.5335 1399.33 13.8668C1393.33 12.2668 1383.6 11.4668 1360.4 11.0668L1329.33 10.4002V121.867ZM1397.73 45.2002C1406 49.2002 1410.4 55.8668 1412.4 67.0668C1414.53 79.6002 1412.13 89.2002 1405.07 96.8002C1398.4 104.133 1390.53 106.667 1375.07 106.667H1364V73.8668V41.0668L1377.73 41.6002C1388.8 41.8668 1392.53 42.5335 1397.73 45.2002ZM1413.33 138.8C1426.13 144.933 1432.27 154.267 1432.27 168C1432.27 181.067 1426.4 190.667 1414.67 196.667C1405.6 201.2 1395.6 202.933 1379.33 202.4L1364.67 202L1364.27 177.6L1364 153.2L1352 144.533C1345.33 139.733 1340.27 135.333 1340.53 134.933C1340.8 134.4 1355.73 134.267 1373.6 134.667C1404.93 135.333 1406.27 135.467 1413.33 138.8Z" fill="url(#paint6_linear_441_19)"/>
<defs>
<linearGradient id="paint0_linear_441_19" x1="119.379" y1="234.184" x2="119.379" y2="11.0867" gradientUnits="userSpaceOnUse">
<stop stop-color="#A94106"/>
<stop offset="1" stop-color="#CD8028"/>
</linearGradient>
<linearGradient id="paint1_linear_441_19" x1="497" y1="234.167" x2="497" y2="10.6665" gradientUnits="userSpaceOnUse">
<stop stop-color="#A94106"/>
<stop offset="1" stop-color="#CD8028"/>
</linearGradient>
<linearGradient id="paint2_linear_441_19" x1="320.814" y1="224.36" x2="320.813" y2="20.4007" gradientUnits="userSpaceOnUse">
<stop stop-color="#A94106"/>
<stop offset="1" stop-color="#CD8028"/>
</linearGradient>
<linearGradient id="paint3_linear_441_19" x1="684.192" y1="224.36" x2="684.19" y2="20.4007" gradientUnits="userSpaceOnUse">
<stop stop-color="#A94106"/>
<stop offset="1" stop-color="#CD8028"/>
</linearGradient>
<linearGradient id="paint4_linear_441_19" x1="948.511" y1="224.36" x2="948.511" y2="20.4007" gradientUnits="userSpaceOnUse">
<stop stop-color="#A94106"/>
<stop offset="1" stop-color="#CD8028"/>
</linearGradient>
<linearGradient id="paint5_linear_441_19" x1="1177.29" y1="226.772" x2="1177.29" y2="20.3831" gradientUnits="userSpaceOnUse">
<stop stop-color="#A94106"/>
<stop offset="1" stop-color="#CD8028"/>
</linearGradient>
<linearGradient id="paint6_linear_441_19" x1="1393.11" y1="224.349" x2="1393.11" y2="20.1457" gradientUnits="userSpaceOnUse">
<stop stop-color="#A94106"/>
<stop offset="1" stop-color="#CD8028"/>
</linearGradient>
</defs>
</svg>
