<svg xmlns="http://www.w3.org/2000/svg" viewBox="0 0 500 500"><g id="freepik--background-complete--inject-11"><rect x="416.78" y="398.49" width="33.12" height="0.25" style="fill:#ebebeb"></rect><rect x="322.53" y="401.21" width="8.69" height="0.25" style="fill:#ebebeb"></rect><rect x="396.59" y="389.21" width="19.19" height="0.25" style="fill:#ebebeb"></rect><rect x="52.46" y="390.89" width="43.19" height="0.25" style="fill:#ebebeb"></rect><rect x="104.56" y="390.89" width="6.33" height="0.25" style="fill:#ebebeb"></rect><rect x="131.47" y="395.11" width="93.68" height="0.25" style="fill:#ebebeb"></rect><path d="M237,337.8H43.92a5.71,5.71,0,0,1-5.71-5.71V60.66A5.71,5.71,0,0,1,43.92,55H237a5.71,5.71,0,0,1,5.71,5.71V332.09A5.71,5.71,0,0,1,237,337.8ZM43.92,55.2a5.47,5.47,0,0,0-5.46,5.46V332.09a5.47,5.47,0,0,0,5.46,5.46H237a5.47,5.47,0,0,0,5.46-5.46V60.66A5.47,5.47,0,0,0,237,55.2Z" style="fill:#ebebeb"></path><path d="M453.31,337.8H260.21a5.72,5.72,0,0,1-5.71-5.71V60.66A5.72,5.72,0,0,1,260.21,55h193.1A5.71,5.71,0,0,1,459,60.66V332.09A5.71,5.71,0,0,1,453.31,337.8ZM260.21,55.2a5.47,5.47,0,0,0-5.46,5.46V332.09a5.47,5.47,0,0,0,5.46,5.46h193.1a5.47,5.47,0,0,0,5.46-5.46V60.66a5.47,5.47,0,0,0-5.46-5.46Z" style="fill:#ebebeb"></path><rect y="382.4" width="500" height="0.25" style="fill:#ebebeb"></rect><polygon points="111.77 81.46 111.77 382.78 173.55 382.78 173.55 120.95 111.77 81.46" style="fill:#ebebeb"></polygon><polygon points="164.19 174.12 163.7 382.4 45.62 382.4 44.95 174.12 164.19 174.12" style="fill:#f5f5f5"></polygon><polygon points="141.14 147.62 141.11 174.12 67.96 174.12 67.9 147.62 141.14 147.62" style="fill:#f5f5f5"></polygon><polygon points="82.32 354.28 126.89 354.28 126.8 357.64 125.57 357.64 125.55 382.4 121.09 382.4 121.11 357.64 88.03 357.64 88.07 382.4 83.61 382.4 83.57 357.64 82.23 357.64 82.32 354.28" style="fill:#f5f5f5"></polygon><polygon points="104.38 382.4 120.89 382.4 120.9 357.64 104.36 357.64 104.38 382.4" style="fill:#e6e6e6"></polygon><polygon points="88.27 382.4 104.78 382.4 104.77 357.64 88.23 357.64 88.27 382.4" style="fill:#ebebeb"></polygon><polygon points="396.55 174.12 393.13 382.4 378.01 382.4 290.17 382.4 275.05 382.4 277.31 174.12 396.55 174.12" style="fill:#ebebeb"></polygon><polygon points="312.24 354.28 356.8 354.28 356.85 357.64 355.51 357.64 355.14 382.4 350.68 382.4 351.05 357.64 317.97 357.64 317.66 382.4 313.2 382.4 313.51 357.64 312.28 357.64 312.24 354.28" style="fill:#fafafa"></polygon><polygon points="333.97 382.4 350.48 382.4 350.84 357.64 334.31 357.64 333.97 382.4" style="fill:#e6e6e6"></polygon><polygon points="317.86 382.4 334.37 382.4 334.71 357.64 318.18 357.64 317.86 382.4" style="fill:#e6e6e6"></polygon><polygon points="164.85 186.13 163.5 382.4 177.75 382.4 260.52 382.4 274.77 382.4 277.21 186.13 164.85 186.13" style="fill:#f0f0f0"></polygon><polygon points="238.57 355.96 200.22 355.96 200.19 359.31 199.77 359.31 199.57 382.4 203.73 382.4 203.93 359.31 234.77 359.31 234.53 382.4 238.68 382.4 238.93 359.31 238.54 359.31 238.57 355.96" style="fill:#f5f5f5"></polygon><polygon points="219.29 382.4 203.89 382.4 204.09 359.31 219.52 359.31 219.29 382.4" style="fill:#ebebeb"></polygon><polygon points="234.37 382.4 218.97 382.4 219.19 359.31 234.61 359.31 234.37 382.4" style="fill:#e0e0e0"></polygon><path d="M374.57,105.73l-17.16,21.12V383.36h95V105.73Z" style="fill:#f5f5f5"></path><path d="M413.82,372.14h7V99.53A22.75,22.75,0,0,0,398.09,76.8H391.9v7h6.19a15.75,15.75,0,0,1,15.73,15.73Z" style="fill:#e6e6e6"></path><rect x="337.71" y="43.51" width="26.54" height="74.98" transform="translate(431.98 -269.98) rotate(90)" style="fill:#ebebeb"></rect><path d="M383,78.34h16.2a5.17,5.17,0,0,1,5.17,5.17v.14a0,0,0,0,1,0,0H377.85a0,0,0,0,1,0,0v-.14A5.17,5.17,0,0,1,383,78.34Z" transform="translate(472.12 -310.12) rotate(90)" style="fill:#e0e0e0"></path><circle cx="328.99" cy="81" r="8.23" style="fill:#f0f0f0"></circle><circle cx="326.99" cy="81" r="8.23" style="fill:#fafafa"></circle><circle cx="351.49" cy="81" r="8.23" style="fill:#f0f0f0"></circle><circle cx="349.49" cy="81" r="8.23" style="fill:#fafafa"></circle><circle cx="373.99" cy="81" r="8.23" style="fill:#f0f0f0"></circle><circle cx="371.99" cy="81" r="8.23" style="fill:#fafafa"></circle><rect x="52.22" y="316.44" width="41.66" height="18.18" style="fill:#ebebeb"></rect><rect x="49.31" y="313.93" width="5.8" height="23.21" style="fill:#f0f0f0"></rect><rect x="90.97" y="313.93" width="5.8" height="23.21" style="fill:#f0f0f0"></rect><path d="M48.49,322.63h3.73a0,0,0,0,1,0,0v5.8a0,0,0,0,1,0,0H48.49a2.08,2.08,0,0,1-2.08-2.08v-1.65A2.08,2.08,0,0,1,48.49,322.63Z" style="fill:#f5f5f5"></path><path d="M95.95,322.63h3.73a0,0,0,0,1,0,0v5.8a0,0,0,0,1,0,0H95.95a2.08,2.08,0,0,1-2.08-2.08v-1.65A2.08,2.08,0,0,1,95.95,322.63Z" transform="translate(193.55 651.07) rotate(-180)" style="fill:#f5f5f5"></path><path d="M84.23,367.76H61.85V304.94A11.19,11.19,0,0,1,73,293.75h0a11.19,11.19,0,0,1,11.19,11.19Z" style="fill:#ebebeb"></path><path d="M64,364H82.13a6.15,6.15,0,0,1,6.15,6.15v5.32a0,0,0,0,1,0,0H57.81a0,0,0,0,1,0,0v-5.32A6.15,6.15,0,0,1,64,364Z" style="fill:#ebebeb"></path><circle cx="73.04" cy="325.5" r="9.58" transform="translate(-39.22 11.36) rotate(-7.02)" style="fill:#fafafa"></circle><path d="M75.32,325.5A2.28,2.28,0,1,1,73,323.22,2.28,2.28,0,0,1,75.32,325.5Z" style="fill:#ebebeb"></path><path d="M57.81,308.13h0a2.9,2.9,0,0,1,2.9-2.9H85.37a2.9,2.9,0,0,1,2.91,2.9h0a2.9,2.9,0,0,1-2.91,2.9H60.71A2.9,2.9,0,0,1,57.81,308.13Z" style="fill:#f0f0f0"></path><path d="M68.17,340.28h0a2.9,2.9,0,0,1,2.9,2.9v15a2.9,2.9,0,0,1-2.9,2.9h0a2.9,2.9,0,0,1-2.9-2.9v-15A2.9,2.9,0,0,1,68.17,340.28Z" style="fill:#e0e0e0"></path><path d="M77.91,340.28h0a2.9,2.9,0,0,1,2.91,2.9v15a2.9,2.9,0,0,1-2.91,2.9h0a2.9,2.9,0,0,1-2.9-2.9v-15A2.9,2.9,0,0,1,77.91,340.28Z" style="fill:#e0e0e0"></path><path d="M159.84,344.77s-14.17-12.24-1.36-9.71c0,0-5.63-7.18-4.27-10.49s7,2.33,7,2.33-6-11.06-2.91-13,6.4,5.63,6.4,5.63-3.49-12.24,0-13.21,5.83,7.38,5.83,7.38-1.75-11.26,1.16-11.26,3.89,8.35,3.89,8.35,1.74-9.13,4.46-8.35,1,10.68,1,10.68,5.25-7.18,7.58-5.63-2.92,8.93-2.92,8.93,6.41-3.88,8.35-1.75-5.24,6.41-5.24,6.41,6.41-2.52,7.38,0-6,6.6-6,6.6,5-3.11,6.11-.19-7.28,6.4-7.28,6.4,7-1.94,7.37.59-7.17,4.27-7.17,4.27,6-.36,6.4,1.75-6.4,4.27-6.4,4.27Z" style="fill:#e0e0e0"></path><path d="M168.19,328.46s-6-2.18-3.3-4.88S168.19,328.46,168.19,328.46Z" style="fill:#ebebeb"></path><path d="M179.45,321.86s-.86-8.17,3.3-7.77S179.45,321.86,179.45,321.86Z" style="fill:#ebebeb"></path><path d="M177.82,338.17s6.61-8.3,9.59-4.28S177.82,338.17,177.82,338.17Z" style="fill:#f5f5f5"></path><path d="M173.45,333.65s-7.68-3.47-7.29.21S173.45,333.65,173.45,333.65Z" style="fill:#f5f5f5"></path><path d="M197.12,344.77s-14.18-12.24-1.36-9.71c0,0-5.63-7.18-4.27-10.49s7,2.33,7,2.33-6-11.06-2.92-13,6.41,5.63,6.41,5.63-3.49-12.24,0-13.21,5.83,7.38,5.83,7.38-1.75-11.26,1.16-11.26,3.88,8.35,3.88,8.35,1.75-9.13,4.47-8.35,1,10.68,1,10.68,5.24-7.18,7.57-5.63-2.91,8.93-2.91,8.93,6.41-3.88,8.35-1.75-5.24,6.41-5.24,6.41,6.4-2.52,7.37,0-6,6.6-6,6.6,5-3.11,6.11-.19-7.28,6.4-7.28,6.4,7-1.94,7.37.59-7.17,4.27-7.17,4.27,6-.36,6.4,1.75-6.4,4.27-6.4,4.27Z" style="fill:#e0e0e0"></path><path d="M205.47,328.46s-6-2.18-3.3-4.88S205.47,328.46,205.47,328.46Z" style="fill:#ebebeb"></path><path d="M216.73,321.86s-.86-8.17,3.3-7.77S216.73,321.86,216.73,321.86Z" style="fill:#ebebeb"></path><path d="M215.1,338.17s6.61-8.3,9.59-4.28S215.1,338.17,215.1,338.17Z" style="fill:#f5f5f5"></path><path d="M210.73,333.65s-7.68-3.47-7.3.21S210.73,333.65,210.73,333.65Z" style="fill:#f5f5f5"></path><path d="M124.31,344.77s-14.17-12.24-1.36-9.71c0,0-5.63-7.18-4.27-10.49s7,2.33,7,2.33-6-11.06-2.91-13,6.4,5.63,6.4,5.63-3.49-12.24,0-13.21S135,313.7,135,313.7s-1.75-11.26,1.16-11.26,3.89,8.35,3.89,8.35,1.74-9.13,4.46-8.35,1,10.68,1,10.68,5.25-7.18,7.57-5.63-2.91,8.93-2.91,8.93,6.41-3.88,8.35-1.75-5.24,6.41-5.24,6.41,6.41-2.52,7.38,0-6,6.6-6,6.6,5-3.11,6.11-.19-7.28,6.4-7.28,6.4,7-1.94,7.37.59-7.17,4.27-7.17,4.27,6-.36,6.4,1.75-6.4,4.27-6.4,4.27Z" style="fill:#e0e0e0"></path><path d="M132.66,328.46s-6-2.18-3.3-4.88S132.66,328.46,132.66,328.46Z" style="fill:#ebebeb"></path><path d="M143.92,321.86s-.86-8.17,3.3-7.77S143.92,321.86,143.92,321.86Z" style="fill:#ebebeb"></path><path d="M142.29,338.17s6.61-8.3,9.59-4.28S142.29,338.17,142.29,338.17Z" style="fill:#ebebeb"></path><path d="M137.92,333.65s-7.68-3.47-7.29.21S137.92,333.65,137.92,333.65Z" style="fill:#ebebeb"></path><path d="M118.8,345.75H233.63a0,0,0,0,1,0,0V373a2.52,2.52,0,0,1-2.52,2.52H121.32A2.52,2.52,0,0,1,118.8,373V345.75A0,0,0,0,1,118.8,345.75Z" style="fill:#ebebeb"></path><rect x="115.69" y="342.72" width="121.04" height="6.06" rx="1.91" style="fill:#e6e6e6"></rect><path d="M47.88,372.14H99.65a3,3,0,0,1,3,3v8a0,0,0,0,1,0,0H44.86a0,0,0,0,1,0,0v-8A3,3,0,0,1,47.88,372.14Z" style="fill:#e0e0e0"></path><path d="M168.32,372.14h52a2.9,2.9,0,0,1,2.9,2.9v8.08a0,0,0,0,1,0,0H165.41a0,0,0,0,1,0,0V375A2.9,2.9,0,0,1,168.32,372.14Z" style="fill:#e0e0e0"></path><path d="M283.63,372.14h51.81a3,3,0,0,1,3,3v8a0,0,0,0,1,0,0H280.63a0,0,0,0,1,0,0v-8A3,3,0,0,1,283.63,372.14Z" style="fill:#e6e6e6"></path><path d="M222.14,371.47h56.94a2.72,2.72,0,0,1,2.72,2.72v8.93a0,0,0,0,1,0,0H219.42a0,0,0,0,1,0,0v-8.93A2.72,2.72,0,0,1,222.14,371.47Z" style="fill:#f5f5f5"></path><path d="M400,372.14h52.54a2.63,2.63,0,0,1,2.63,2.63v8.35a0,0,0,0,1,0,0H397.33a0,0,0,0,1,0,0v-8.35A2.63,2.63,0,0,1,400,372.14Z" style="fill:#e0e0e0"></path><path d="M339.22,371.47h56.19a3.09,3.09,0,0,1,3.09,3.09v8.56a0,0,0,0,1,0,0H336.12a0,0,0,0,1,0,0v-8.56A3.09,3.09,0,0,1,339.22,371.47Z" style="fill:#f5f5f5"></path><path d="M103.29,370.26H164a3.48,3.48,0,0,1,3.48,3.48v9.38a0,0,0,0,1,0,0H99.81a0,0,0,0,1,0,0v-9.38A3.48,3.48,0,0,1,103.29,370.26Z" style="fill:#f5f5f5"></path><path d="M309.76,344.77s-14.17-12.24-1.36-9.71c0,0-5.63-7.18-4.27-10.49s7,2.33,7,2.33-6-11.06-2.91-13,6.41,5.63,6.41,5.63-3.5-12.24,0-13.21,5.82,7.38,5.82,7.38-1.75-11.26,1.17-11.26,3.88,8.35,3.88,8.35,1.75-9.13,4.46-8.35,1,10.68,1,10.68,5.25-7.18,7.58-5.63-2.92,8.93-2.92,8.93,6.41-3.88,8.35-1.75-5.24,6.41-5.24,6.41,6.41-2.52,7.38,0-6,6.6-6,6.6,5-3.11,6.11-.19-7.28,6.4-7.28,6.4,7-1.94,7.38.59-7.18,4.27-7.18,4.27,6-.36,6.41,1.75-6.41,4.27-6.41,4.27Z" style="fill:#e0e0e0"></path><path d="M318.11,328.46s-6-2.18-3.3-4.88S318.11,328.46,318.11,328.46Z" style="fill:#ebebeb"></path><path d="M329.37,321.86s-.86-8.17,3.3-7.77S329.37,321.86,329.37,321.86Z" style="fill:#ebebeb"></path><path d="M327.74,338.17s6.61-8.3,9.59-4.28S327.74,338.17,327.74,338.17Z" style="fill:#f5f5f5"></path><path d="M323.37,333.65s-7.68-3.47-7.29.21S323.37,333.65,323.37,333.65Z" style="fill:#f5f5f5"></path><path d="M347,344.77s-14.17-12.24-1.36-9.71c0,0-5.63-7.18-4.27-10.49s7,2.33,7,2.33-6-11.06-2.91-13,6.4,5.63,6.4,5.63-3.49-12.24,0-13.21,5.83,7.38,5.83,7.38-1.75-11.26,1.16-11.26,3.89,8.35,3.89,8.35,1.74-9.13,4.46-8.35,1,10.68,1,10.68,5.24-7.18,7.57-5.63-2.91,8.93-2.91,8.93,6.41-3.88,8.35-1.75-5.24,6.41-5.24,6.41,6.41-2.52,7.38,0-6,6.6-6,6.6,5-3.11,6.11-.19-7.28,6.4-7.28,6.4,7-1.94,7.37.59-7.17,4.27-7.17,4.27,6-.36,6.4,1.75-6.4,4.27-6.4,4.27Z" style="fill:#e0e0e0"></path><path d="M355.39,328.46s-6-2.18-3.3-4.88S355.39,328.46,355.39,328.46Z" style="fill:#ebebeb"></path><path d="M366.65,321.86s-.86-8.17,3.3-7.77S366.65,321.86,366.65,321.86Z" style="fill:#ebebeb"></path><path d="M365,338.17s6.61-8.3,9.59-4.28S365,338.17,365,338.17Z" style="fill:#f5f5f5"></path><path d="M360.65,333.65s-7.68-3.47-7.29.21S360.65,333.65,360.65,333.65Z" style="fill:#f5f5f5"></path><path d="M274.23,344.77s-14.17-12.24-1.36-9.71c0,0-5.63-7.18-4.27-10.49s7,2.33,7,2.33-6-11.06-2.91-13,6.41,5.63,6.41,5.63-3.5-12.24,0-13.21,5.82,7.38,5.82,7.38-1.75-11.26,1.17-11.26,3.88,8.35,3.88,8.35,1.75-9.13,4.46-8.35,1,10.68,1,10.68,5.25-7.18,7.58-5.63-2.92,8.93-2.92,8.93,6.41-3.88,8.35-1.75-5.24,6.41-5.24,6.41,6.41-2.52,7.38,0-6,6.6-6,6.6,5-3.11,6.11-.19-7.28,6.4-7.28,6.4,7-1.94,7.38.59-7.18,4.27-7.18,4.27,6-.36,6.41,1.75-6.41,4.27-6.41,4.27Z" style="fill:#e0e0e0"></path><path d="M282.58,328.46s-6-2.18-3.3-4.88S282.58,328.46,282.58,328.46Z" style="fill:#ebebeb"></path><path d="M293.84,321.86s-.86-8.17,3.3-7.77S293.84,321.86,293.84,321.86Z" style="fill:#ebebeb"></path><path d="M292.21,338.17s6.61-8.3,9.59-4.28S292.21,338.17,292.21,338.17Z" style="fill:#ebebeb"></path><path d="M287.84,333.65s-7.68-3.47-7.29.21S287.84,333.65,287.84,333.65Z" style="fill:#ebebeb"></path><path d="M268.72,345.75H383.55a0,0,0,0,1,0,0V373a2.52,2.52,0,0,1-2.52,2.52H271.25a2.52,2.52,0,0,1-2.52-2.52V345.75A0,0,0,0,1,268.72,345.75Z" style="fill:#ebebeb"></path><rect x="265.62" y="342.72" width="121.04" height="6.06" rx="1.91" style="fill:#e6e6e6"></rect></g><g id="freepik--character-3--inject-11"><path d="M281.82,150.41a45.53,45.53,0,0,1,1.71,14c-.39,7.2,1.18,9.22,1.18,9.22s-10,2.07-16.36-2.82-1.86-18.35-1.86-18.35l5.27-5.68Z" style="fill:#263238"></path><path d="M281.82,150.41a45.53,45.53,0,0,1,1.71,14c-.39,7.2,1.18,9.22,1.18,9.22s-10,2.07-16.36-2.82-1.86-18.35-1.86-18.35l5.27-5.68Z" style="opacity:0.4"></path><path d="M280.7,281.53,231.05,405.15l-5.87-2.64S235.71,354.71,245,334c.31-.7.63-1.37.94-2a33.12,33.12,0,0,0,3.08-9.74q.12-.84.27-1.77c1.67-10.95,5.27-31.12,10.3-40.6Z" style="fill:#ffb573"></path><path d="M280.7,281.53,231.05,405.15l-5.87-2.64S235.71,354.71,245,334c.31-.7.63-1.37.94-2a33.12,33.12,0,0,0,3.08-9.74q.12-.84.27-1.77c1.67-10.95,5.27-31.12,10.3-40.6Z" style="opacity:0.1"></path><path d="M255.48,290.85h21.38l3.84-9.32-21.07-1.62A61,61,0,0,0,255.48,290.85Z" style="opacity:0.1"></path><path d="M232,402.68l-7.17-2.78a.71.71,0,0,0-.86.26l-4.13,6.16a1.19,1.19,0,0,0,.31,1.65.94.94,0,0,0,.22.12c3,1.12,5.73,2,9.45,3.45,4.38,1.72,3.06,1.81,8.19,3.9,3.1,1.25,5-2.06,3.8-2.75-5.74-3.11-6.76-5.64-8.24-8.7A2.82,2.82,0,0,0,232,402.68Z" style="fill:#263238"></path><path d="M264.69,276.46l30.4,130.31-6.68,1s-18.41-43.65-22.8-65.25a46.67,46.67,0,0,1-.88-6,12.37,12.37,0,0,0-1.08-4.35L261.31,327c-5.72-12.71-16.82-38.05-18.31-46.27Z" style="fill:#ffb573"></path><path d="M294.89,404.29l-7.37,2.22a.71.71,0,0,0-.51.74l.52,7.39a1.19,1.19,0,0,0,1.27,1.11,1.18,1.18,0,0,0,.25,0c3.05-1,5.74-1.95,9.56-3.09,4.52-1.34,3.53-.46,8.86-2,3.22-.91,2.72-4.72,1.31-4.49-6.44,1.07-8.8-.3-11.85-1.8A2.87,2.87,0,0,0,294.89,404.29Z" style="fill:#263238"></path><path d="M246.05,181l6.08,37.29s-26.35,21.48-8.92,70.93L282.12,286s4.87-24.32-.81-66.47c0,0,10.41-26.35.81-37.7C282.12,181.82,268.48,173.72,246.05,181Z" style="fill:#263238"></path><path d="M308.73,198.65c-8.15-7.86-26.61-16.83-26.61-16.83a15.27,15.27,0,0,0,1.49,11.62s18.37,7.3,18.64,11.08c0,0,4.35,2.09,5.78,1.62a2.07,2.07,0,0,0,.71-.47A4.86,4.86,0,0,0,308.73,198.65Z" style="fill:#F0F600"></path><path d="M266.41,283.82l-21.74,2.9c.6,1.79,1.32,3.78,2.12,5.91L267.86,290Z" style="opacity:0.1"></path><path d="M251.12,261.79c14.79-41,12.43-58.29,12.43-58.29l-14.38-3.36,3,18.16S233.45,233.54,238,267.88C244.73,268.48,249.35,266.67,251.12,261.79Z" style="opacity:0.6000000000000001"></path><path d="M277.07,229.44s-2,23.29,7,32.8A278.45,278.45,0,0,0,282.34,228h-1.72Z" style="opacity:0.6000000000000001"></path><path d="M283.61,193.44s4.7,1.87,9.38,4.21A81.06,81.06,0,0,0,281,182l1.62,9.39A10.88,10.88,0,0,0,283.61,193.44Z" style="opacity:0.1"></path><path d="M270.39,186.55c-14-4.12-9.09-7.29-9.09-7.29,2.12-3.45,1.64-9.44,1-13.36l8.07,7.49c-.77,2.76-1.09,4.35,1.46,5.83C271.85,179.22,274,180.4,270.39,186.55Z" style="fill:#ffb573"></path><path d="M269.84,176.13a11.91,11.91,0,0,1,.55-2.74l-7.26-6.74-.46.58S263.82,173.71,269.84,176.13Z" style="opacity:0.1"></path><path d="M260.65,154.45c-.46,7.74-.82,11,2.58,15.41,5.11,6.64,14.71,5.51,17.48-1.93,2.49-6.7,2.82-18.22-4.32-22.19a10.56,10.56,0,0,0-15.74,8.71Z" style="fill:#ffb573"></path><path d="M258.09,160.3A5.68,5.68,0,0,0,260.4,164c1.63,1.14,3.1-.16,3.19-2.05.08-1.68-.67-4.31-2.57-4.7a2.55,2.55,0,0,0-2.95,2.09A2.59,2.59,0,0,0,258.09,160.3Z" style="fill:#ffb573"></path><path d="M277,160.31a16.91,16.91,0,0,0,2.16,4.07,2.71,2.71,0,0,1-2.25.38Z" style="fill:#ed893e"></path><path d="M271.26,155.43a.32.32,0,0,1-.11-.12.31.31,0,0,1,.11-.42h0a3.56,3.56,0,0,1,3.31-.18.31.31,0,0,1,.12.41.29.29,0,0,1-.4.13,3,3,0,0,0-2.74.18A.32.32,0,0,1,271.26,155.43Z" style="fill:#263238"></path><path d="M282.47,156.1a.3.3,0,0,1-.15,0,3,3,0,0,0-2.7-.35.3.3,0,0,1-.41-.15h0a.31.31,0,0,1,.16-.41,3.63,3.63,0,0,1,3.29.39.3.3,0,0,1,.11.42.29.29,0,0,1-.3.15Z" style="fill:#263238"></path><path d="M272.6,159.18c0,.63.31,1.14.73,1.16s.75-.5.76-1.13-.31-1.14-.72-1.15S272.62,158.55,272.6,159.18Z" style="fill:#263238"></path><path d="M279.72,159.32c0,.63.32,1.15.72,1.16s.76-.5.77-1.13-.31-1.14-.72-1.15S279.73,158.69,279.72,159.32Z" style="fill:#263238"></path><path d="M280.31,158.23l1.52-.4S281,159,280.31,158.23Z" style="fill:#263238"></path><path d="M273.19,158.09l1.52-.41S273.91,158.85,273.19,158.09Z" style="fill:#263238"></path><path d="M275.3,167.36a5.87,5.87,0,0,0,1-.1.18.18,0,0,0,.14-.21h0a.18.18,0,0,0-.2-.14,4.86,4.86,0,0,1-4.23-1.11.18.18,0,0,0-.25,0,.18.18,0,0,0,0,.26A5.06,5.06,0,0,0,275.3,167.36Z" style="fill:#263238"></path><path d="M277.23,147.26s3,5.83-3.23,5.66S266.79,163,266.79,163l-2.64-.31s2.47,10.37,0,11.57-13-3.87-13-3.87a22.59,22.59,0,0,0,3.49-11.79C254.93,151.24,260.81,133.83,277.23,147.26Z" style="fill:#263238"></path><path d="M266.07,143.8s7-4.7,13.39-.31,6.55,14.38,4.49,14-1.19-5.72-7.59-7.36A21.49,21.49,0,0,1,266.07,143.8Z" style="fill:#263238"></path><path d="M284.76,245.15c-.31-5.47-2.64-25.53-2.64-25.53s5.74-15.5,4.73-25.43-5-13.08-5-13.08l-9.83-3s2.24.57,3.07,4.26l0,.12h0a116.8,116.8,0,0,1,2.34,39c-1.84,17.55,3.14,30,6.32,35.85a3.06,3.06,0,0,0,5.1.45l.34-.43S285.06,250.62,284.76,245.15Z" style="fill:#F0F600"></path><path d="M279.08,233.6l4.48-1.12.91.93a.89.89,0,0,1-.25,1.44l-2.82,1.32a.9.9,0,0,1-1.18-.39Z" style="fill:#F0F600"></path><path d="M279.08,233.6l4.48-1.12.91.93a.89.89,0,0,1-.25,1.44l-2.82,1.32a.9.9,0,0,1-1.18-.39Z" style="opacity:0.2"></path><g style="opacity:0.2"><path d="M272.06,178.15h0Z"></path><path d="M277.79,217.86c3-10.05,4.84-29.05,4.84-29.05h-4.56l2-2.63-3.25-6.58-4.79-1.45c.29.09,2.26.83,3,4.25l0,.12h0A116.08,116.08,0,0,1,277.79,217.86Z"></path></g><path d="M295.51,208.4l-9.92,3.85-5.88-4.64a1.42,1.42,0,0,0-1.81,0l-2.57,2.21a1.43,1.43,0,0,0-.31,1.79l1,1.75a1.41,1.41,0,0,0,.6.56c1.33.65,5.72,2.72,7.52,2.82,3.86.21,14.89-4,14.89-4Z" style="fill:#ffb573"></path><path d="M289.46,211.86c0,.58.14,1-1.79,1s-1.79-.46-1.79-1-.15-1.05,1.79-1.05S289.46,211.28,289.46,211.86Z" style="fill:#F0F600"></path><path d="M287.67,210.81c-1.23,0-1.62.19-1.74.48.12.28.51.47,1.74.47s1.62-.19,1.74-.47C289.29,211,288.9,210.81,287.67,210.81Z" style="fill:#fff;opacity:0.5"></path><path d="M287.45,212.77a4.72,4.72,0,0,0,1.79-.35,7.58,7.58,0,0,1,.44,3.53l-1.82.54A6.4,6.4,0,0,0,287.45,212.77Z" style="fill:#263238"></path><path d="M309.84,199.84c5.4,8.37-17.56,16.21-17.56,16.21l-3.25-6s11.89-3.78,11.62-7.56c0,0,1.78-3.44,3-3.79S309.84,199.84,309.84,199.84Z" style="fill:#F0F600"></path><path d="M259.31,183c-.5-2.26-.11-4.73,1-5.49l-14.57,3.07L251.45,218c-12,11.75-27.42,40.26-27.42,40.26l14.11,3.25a9.55,9.55,0,0,0,11.12-6c4.67-12.81,13.33-37.66,14.22-47.87C264.27,198.5,260.63,188.94,259.31,183Z" style="fill:#F0F600"></path><path d="M260.27,177.49l-5.17,1.09-.56,8,3.79,2.84h-5.81s9.4,4.47,9.18,27.61a65.67,65.67,0,0,0,1.78-9.37c.79-9.13-2.85-18.69-4.17-24.65C258.81,180.72,259.2,178.25,260.27,177.49Z" style="opacity:0.2"></path><path d="M242,230.26l10.94,3.34-1.44,1.27a4.44,4.44,0,0,1-4.29.91l-5-1.58a1.69,1.69,0,0,1-1-2.39Z" style="opacity:0.2"></path><path d="M249.66,206.34c3.78-12.39-.6-20.92-.6-20.92L246.84,188Z" style="opacity:0.1"></path><path d="M226.46,233.6l-6.62,11.05-4.78,1.55a2.55,2.55,0,0,0-1.71,2l-.16.84a2.56,2.56,0,0,0,1.49,2.81l3.22,1.4a2.56,2.56,0,0,0,3-.69L222,251.2a2.84,2.84,0,0,0,.44-.75l1.33-3.51,7.16-11.89Z" style="fill:#ffb573"></path><path d="M246.05,181s-5.07,3.85-7.9,17.43-2.84,15-4.87,19.59c-2.83,6.47-11.95,21.55-11.95,21.55l6.08,3.24s10.53-16.82,13.17-22.49,6.17-18.29,7.89-24.49C249.47,192.22,251.32,185.47,246.05,181Z" style="fill:#F0F600"></path><path d="M265.07,259.91c-2.81,8.06,1,23.32,2.09,27.32l3.28-.27C266.28,278.64,265.07,259.91,265.07,259.91Z" style="opacity:0.6000000000000001"></path><path d="M221.49,262.88l-19.37-10.82a4.78,4.78,0,0,0-5.84.93l-10.67,11.58a4.77,4.77,0,0,0,1.19,7.4l25.76,14.4a4.77,4.77,0,0,0,6.92-2.87l4.28-15.16A4.77,4.77,0,0,0,221.49,262.88Z" style="fill:#F0F600"></path><path d="M222.52,264.19a12.64,12.64,0,0,0-22.05-12.33,2.45,2.45,0,0,0-2.54,1.22c-.66,1.18.53,4.07.53,4.07s3.08-.51,3.74-1.69a2.44,2.44,0,0,0-.25-2.75A10.94,10.94,0,0,1,221,263.37a2.46,2.46,0,0,0-2.48,1.23c-.66,1.18.53,4.07.53,4.07s3.08-.51,3.74-1.69A2.43,2.43,0,0,0,222.52,264.19Z" style="fill:#F0F600"></path><path d="M222.52,264.19a12.64,12.64,0,0,0-22.05-12.33,2.45,2.45,0,0,0-2.54,1.22c-.66,1.18.53,4.07.53,4.07s3.08-.51,3.74-1.69a2.44,2.44,0,0,0-.25-2.75A10.94,10.94,0,0,1,221,263.37a2.46,2.46,0,0,0-2.48,1.23c-.66,1.18.53,4.07.53,4.07s3.08-.51,3.74-1.69A2.43,2.43,0,0,0,222.52,264.19Z" style="opacity:0.5"></path><path d="M200.83,254.57a.81.81,0,1,1-.31-1.11A.81.81,0,0,1,200.83,254.57Z" style="fill:#F0F600"></path><path d="M221.45,266.09a.81.81,0,0,1-1.11.32.81.81,0,1,1,.79-1.42A.8.8,0,0,1,221.45,266.09Z" style="fill:#F0F600"></path><path d="M199.73,256.06h18.48a0,0,0,0,1,0,0v8.68a4.29,4.29,0,0,1-4.29,4.29H204a4.29,4.29,0,0,1-4.29-4.29v-8.68a0,0,0,0,1,0,0Z" transform="translate(154.61 -68.58) rotate(29.19)" style="fill:#263238"></path><path d="M208.37,265.92a1.12,1.12,0,1,1-.43-1.53A1.12,1.12,0,0,1,208.37,265.92Z" style="fill:#F0F600"></path></g></svg>