<svg width="500" height="500" viewBox="0 0 500 500" fill="none" xmlns="http://www.w3.org/2000/svg">
<g clip-path="url(#clip0_437_19)">
<g clip-path="url(#clip1_437_19)">
<path d="M449.9 398.49H416.78V398.74H449.9V398.49Z" fill="#EBEBEB"/>
<path d="M331.22 401.21H322.53V401.46H331.22V401.21Z" fill="#EBEBEB"/>
<path d="M415.78 389.21H396.59V389.46H415.78V389.21Z" fill="#EBEBEB"/>
<path d="M95.65 390.89H52.46V391.14H95.65V390.89Z" fill="#EBEBEB"/>
<path d="M110.89 390.89H104.56V391.14H110.89V390.89Z" fill="#EBEBEB"/>
<path d="M225.15 395.11H131.47V395.36H225.15V395.11Z" fill="#EBEBEB"/>
<path d="M440.477 223.318C442.99 207.768 432.422 193.125 416.872 190.612C401.322 188.099 386.679 198.668 384.166 214.217C381.653 229.767 392.221 244.41 407.771 246.923C423.321 249.437 437.964 238.868 440.477 223.318Z" fill="#E0E0E0"/>
<path d="M437.934 223.381C440.451 207.877 429.923 193.268 414.419 190.752C398.915 188.235 384.306 198.763 381.789 214.267C379.273 229.771 389.801 244.38 405.305 246.897C420.809 249.413 435.418 238.885 437.934 223.381Z" fill="#EBEBEB"/>
<path opacity="0.8" d="M409.851 241.83C422.459 241.83 432.681 231.609 432.681 219C432.681 206.391 422.459 196.17 409.851 196.17C397.242 196.17 387.021 206.391 387.021 219C387.021 231.609 397.242 241.83 409.851 241.83Z" fill="white"/>
<path d="M412.64 218.32C412.64 218.779 412.504 219.228 412.248 219.61C411.993 219.992 411.63 220.289 411.206 220.464C410.781 220.64 410.314 220.685 409.864 220.595C409.413 220.504 409 220.282 408.676 219.957C408.352 219.631 408.132 219.217 408.043 218.766C407.955 218.316 408.002 217.849 408.179 217.425C408.357 217.001 408.656 216.64 409.038 216.386C409.421 216.132 409.871 215.998 410.33 216C410.634 216 410.935 216.06 411.216 216.177C411.497 216.294 411.752 216.465 411.967 216.68C412.182 216.896 412.352 217.152 412.467 217.433C412.583 217.714 412.641 218.016 412.64 218.32Z" fill="#E0E0E0"/>
<path d="M253 161C274.294 160.989 294.848 168.814 310.743 182.983C326.638 197.152 336.764 216.675 339.19 237.83C339.937 244.419 339.937 251.071 339.19 257.66C336.753 278.806 326.622 298.317 310.728 312.476C294.833 326.635 274.286 334.452 253 334.44C250.58 334.44 248.17 334.34 245.8 334.14C224.107 332.346 203.881 322.462 189.136 306.448C174.392 290.434 166.208 269.463 166.208 247.695C166.208 225.927 174.392 204.956 189.136 188.942C203.881 172.928 224.107 163.044 245.8 161.25C248.17 161.05 250.58 161 253 161Z" fill="#E0E0E0"/>
<path d="M250 158C271.294 157.989 291.848 165.814 307.743 179.983C323.638 194.152 333.764 213.675 336.19 234.83C336.937 241.419 336.937 248.071 336.19 254.66C333.753 275.806 323.622 295.317 307.728 309.476C291.833 323.635 271.286 331.452 250 331.44C247.58 331.44 245.17 331.34 242.8 331.14C221.107 329.346 200.881 319.462 186.136 303.448C171.392 287.434 163.208 266.463 163.208 244.695C163.208 222.927 171.392 201.956 186.136 185.942C200.881 169.928 221.107 160.044 242.8 158.25C245.17 158.05 247.58 158 250 158Z" fill="#EBEBEB"/>
<path d="M253.37 283.52C274.81 283.52 292.19 266.14 292.19 244.7C292.19 223.261 274.81 205.88 253.37 205.88C231.931 205.88 214.55 223.261 214.55 244.7C214.55 266.14 231.931 283.52 253.37 283.52Z" fill="#E0E0E0"/>
<path d="M279.937 249.021C282.318 234.356 272.36 220.539 257.695 218.158C243.031 215.778 229.213 225.736 226.833 240.401C224.452 255.065 234.41 268.883 249.075 271.263C263.739 273.644 277.557 263.685 279.937 249.021Z" fill="#F5F5F5"/>
<path d="M253.01 248.92C255.341 248.92 257.23 247.031 257.23 244.7C257.23 242.369 255.341 240.48 253.01 240.48C250.679 240.48 248.79 242.369 248.79 244.7C248.79 247.031 250.679 248.92 253.01 248.92Z" fill="#E0E0E0"/>
<path opacity="0.6" d="M291.53 237.53L336.19 234.78C336.937 241.369 336.937 248.021 336.19 254.61L291.53 251.86L279.53 251.11L258 249.79L252.9 249.48L247.8 249.79L227.22 251.06L215.22 251.8L163.86 255C163.047 248.177 163.047 241.282 163.86 234.46L215.2 237.62L227.2 238.36L247.78 239.63L252.88 239.94L257.98 239.63L279.46 238.3L291.53 237.53Z" fill="white"/>
<path d="M430.135 314.065C433.937 303.971 428.837 292.707 418.743 288.905C408.649 285.103 397.385 290.203 393.582 300.297C389.78 310.391 394.881 321.655 404.975 325.457C415.068 329.26 426.333 324.159 430.135 314.065Z" fill="#EBEBEB"/>
<path d="M396.18 319.53C393.239 315.339 392.018 310.18 392.767 305.115C393.517 300.05 396.181 295.465 400.209 292.306C404.238 289.146 409.325 287.652 414.423 288.131C419.52 288.61 424.24 291.025 427.61 294.88L426.91 295.42C423.713 291.66 419.185 289.284 414.274 288.79C409.363 288.296 404.452 289.724 400.571 292.773C396.69 295.822 394.141 300.256 393.458 305.144C392.776 310.032 394.013 314.995 396.91 318.99L396.18 319.53Z" fill="#E0E0E0"/>
<path d="M396.18 319.53L396.87 318.99C398.378 321.07 400.29 322.824 402.492 324.147C404.694 325.47 407.14 326.335 409.684 326.691C412.229 327.046 414.818 326.884 417.298 326.215C419.779 325.545 422.098 324.382 424.118 322.795C426.138 321.208 427.817 319.23 429.054 316.979C430.292 314.727 431.062 312.249 431.319 309.693C431.576 307.137 431.314 304.556 430.549 302.103C429.785 299.651 428.533 297.378 426.87 295.42L427.57 294.88C430.51 299.072 431.732 304.231 430.982 309.296C430.233 314.361 427.569 318.945 423.54 322.105C419.511 325.265 414.424 326.759 409.327 326.28C404.229 325.801 399.509 323.385 396.14 319.53H396.18Z" fill="#E0E0E0"/>
<path d="M418.19 315.24L417.64 314.55C422.74 310.55 427.53 302.62 426.82 295.2L427.69 295.11C428.43 302.86 423.47 311.1 418.19 315.24Z" fill="#E0E0E0"/>
<path d="M396.84 319.31L397.13 318.48C404.18 320.94 413.02 318.18 418.13 314.18L418.68 314.87C413.37 319 404.19 321.87 396.84 319.31Z" fill="#E0E0E0"/>
<path d="M406.14 299.87L405.59 299.18C410.87 295.04 420.06 292.18 427.41 294.74L427.12 295.57C420.07 293.11 411.23 295.88 406.14 299.87Z" fill="#E0E0E0"/>
<path d="M396.55 318.94C395.82 311.2 400.78 302.94 406.06 298.81L406.6 299.5C401.51 303.5 396.72 311.43 397.43 318.85L396.55 318.94Z" fill="#E0E0E0"/>
<path d="M426.991 294.778L396.25 318.891L396.793 319.584L427.534 295.471L426.991 294.778Z" fill="#E0E0E0"/>
<path d="M410.218 287.492L409.525 288.035L429.935 314.056L430.628 313.512L410.218 287.492Z" fill="#E0E0E0"/>
<path d="M399.926 291.771L399.233 292.314L423.334 323.04L424.026 322.497L399.926 291.771Z" fill="#E0E0E0"/>
<path d="M393.598 301.088L392.905 301.631L412.772 326.959L413.464 326.416L393.598 301.088Z" fill="#E0E0E0"/>
<path d="M108.703 126.253C121.418 113.538 121.418 92.9221 108.703 80.2066C95.9875 67.4911 75.3717 67.4911 62.6562 80.2066C49.9407 92.9221 49.9407 113.538 62.6562 126.253C75.3717 138.969 95.9875 138.969 108.703 126.253Z" fill="#E0E0E0"/>
<path d="M49.7603 102.06C49.7603 108.672 51.7206 115.135 55.3935 120.632C59.0664 126.129 64.2869 130.414 70.3948 132.945C76.5028 135.475 83.2239 136.138 89.7084 134.849C96.193 133.56 102.15 130.377 106.825 125.702C111.501 121.028 114.686 115.072 115.977 108.588C117.268 102.104 116.607 95.3829 114.078 89.2742C111.55 83.1655 107.266 77.9437 101.77 74.2692C96.274 70.5947 89.8117 68.6324 83.2003 68.6304C78.8093 68.6291 74.4611 69.4928 70.4041 71.1722C66.347 72.8516 62.6605 75.3139 59.5552 78.4183C56.4499 81.5227 53.9866 85.2084 52.3059 89.265C50.6253 93.3215 49.7603 97.6694 49.7603 102.06ZM77.6103 77.3004C76.5073 77.6984 75.2959 77.6735 74.2103 77.2304C74.7303 79.5604 72.4403 81.6304 70.2703 82.8104C67.4703 84.3404 64.2703 84.9704 63.7103 82.4704C63.3403 80.9604 64.4703 78.8304 67.3403 76.8804C68.8803 75.8804 71.3403 75.0404 72.9003 75.6404C72.6703 74.2604 73.9003 72.7004 75.9003 72.0604C77.9003 71.4204 80.0003 72.0004 80.5003 73.4304C81.0003 74.8604 79.6803 76.6104 77.6103 77.3004ZM93.8503 88.7904C93.3608 89.5691 92.6513 90.1852 91.8117 90.5607C90.972 90.9362 90.0398 91.0542 89.1331 90.8999C88.2263 90.7455 87.3857 90.3257 86.7176 89.6936C86.0494 89.0614 85.5838 88.2453 85.3795 87.3485C85.1752 86.4517 85.2415 85.5144 85.57 84.6552C85.8985 83.7961 86.4744 83.0537 87.2248 82.5218C87.9753 81.99 88.8666 81.6927 89.7861 81.6675C90.7055 81.6424 91.6118 81.8904 92.3903 82.3804C92.9079 82.7046 93.3564 83.1278 93.7101 83.6258C94.0638 84.1238 94.3157 84.6867 94.4513 85.2822C94.587 85.8777 94.6037 86.4942 94.5005 87.0962C94.3974 87.6982 94.1764 88.274 93.8503 88.7904ZM78.2103 126.92C78.2103 126.214 78.4196 125.524 78.8119 124.937C79.2042 124.35 79.7617 123.892 80.4141 123.622C81.0664 123.352 81.7842 123.281 82.4767 123.419C83.1692 123.557 83.8054 123.897 84.3046 124.396C84.8039 124.895 85.1439 125.531 85.2817 126.224C85.4194 126.916 85.3487 127.634 85.0785 128.287C84.8083 128.939 84.3507 129.496 83.7636 129.889C83.1766 130.281 82.4863 130.49 81.7803 130.49C80.8334 130.49 79.9254 130.114 79.2559 129.445C78.5864 128.775 78.2103 127.867 78.2103 126.92ZM77.2703 114.67C77.2703 113.586 77.7012 112.545 78.4682 111.778C79.2352 111.011 80.2755 110.58 81.3603 110.58H81.5403C81.0676 108.008 81.2718 105.357 82.1327 102.887C82.9936 100.417 84.4818 98.2131 86.4512 96.4918C88.4206 94.7704 90.8036 93.5906 93.3665 93.0679C95.9293 92.5452 98.5841 92.6977 101.07 93.5104C101.438 92.6259 102.01 91.8411 102.739 91.22C103.468 90.5989 104.334 90.1592 105.266 89.9368C106.198 89.7145 107.169 89.7157 108.1 89.9406C109.031 90.1654 109.896 90.6074 110.623 91.2304C111.351 91.8535 111.92 92.6398 112.286 93.5253C112.651 94.4107 112.802 95.37 112.726 96.3249C112.649 97.2797 112.348 98.2029 111.847 99.019C111.345 99.8351 110.658 100.521 109.84 101.02C110.849 103.005 111.407 105.188 111.474 107.413C111.54 109.639 111.114 111.851 110.225 113.893C109.336 115.934 108.007 117.753 106.333 119.221C104.659 120.688 102.68 121.767 100.54 122.38C100.824 122.851 100.973 123.391 100.97 123.94C100.925 124.731 100.58 125.474 100.004 126.018C99.4287 126.561 98.667 126.864 97.8753 126.864C97.0836 126.864 96.3218 126.561 95.7464 126.018C95.1709 125.474 94.8252 124.731 94.7803 123.94C94.7866 123.6 94.8474 123.262 94.9603 122.94C92.6128 122.711 90.3504 121.94 88.3503 120.69C86.8956 119.778 85.61 118.621 84.5503 117.27C84.0202 117.931 83.298 118.411 82.4836 118.643C81.6691 118.876 80.8025 118.85 80.0035 118.569C79.2044 118.288 78.5123 117.766 78.0227 117.075C77.5331 116.384 77.2702 115.557 77.2703 114.71V114.67ZM68.2703 90.8404C68.2008 90.0319 68.4543 89.2289 68.9752 88.6068C69.4961 87.9846 70.2422 87.594 71.0503 87.5204C71.7352 87.4641 72.4197 87.6326 73.0003 88.0004C73.0509 86.9255 73.4719 85.9012 74.192 85.1014C74.912 84.3017 75.8866 83.7758 76.9504 83.6131C78.0141 83.4504 79.1014 83.6608 80.0276 84.2087C80.9538 84.7565 81.6618 85.6081 82.0315 86.6187C82.4012 87.6293 82.4097 88.7367 82.0556 89.7529C81.7015 90.7691 81.0066 91.6314 80.0889 92.1934C79.1712 92.7555 78.0873 92.9826 77.0212 92.8362C75.9551 92.6898 74.9725 92.179 74.2403 91.3904C74.0482 92.0842 73.6178 92.6881 73.0245 93.0958C72.4313 93.5036 71.7132 93.6892 70.9967 93.62C70.2801 93.5507 69.611 93.231 69.1068 92.7171C68.6027 92.2033 68.2958 91.5281 68.2403 90.8104L68.2703 90.8404ZM63.8403 118.91C63.8403 118.452 63.9763 118.003 64.2312 117.621C64.4862 117.24 64.8485 116.943 65.2724 116.767C65.6964 116.591 66.1628 116.545 66.6129 116.635C67.0629 116.724 67.4763 116.945 67.8007 117.27C68.1252 117.594 68.3462 118.008 68.4357 118.458C68.5252 118.908 68.4792 119.374 68.3037 119.798C68.1281 120.222 67.8307 120.584 67.4492 120.839C67.0677 121.094 66.6191 121.23 66.1603 121.23C65.5484 121.225 64.9634 120.978 64.5327 120.544C64.1019 120.109 63.8602 119.522 63.8603 118.91H63.8403ZM59.3503 92.7704C59.2993 92.1679 59.4279 91.5638 59.72 91.0343C60.0121 90.5049 60.4545 90.0738 60.9913 89.7956C61.5281 89.5174 62.1354 89.4044 62.7364 89.471C63.3373 89.5376 63.9051 89.7807 64.368 90.1697C64.8309 90.5588 65.1682 91.0762 65.3373 91.6567C65.5064 92.2373 65.4997 92.8549 65.318 93.4316C65.1364 94.0084 64.788 94.5183 64.3167 94.8972C63.8455 95.2761 63.2725 95.5068 62.6703 95.5604C61.8602 95.6297 61.0558 95.3749 60.4334 94.8519C59.811 94.3288 59.4214 93.5802 59.3503 92.7704Z" fill="#F0F0F0"/>
<path d="M63.8599 118.91C63.8599 119.369 63.9959 119.818 64.2509 120.199C64.5058 120.581 64.8681 120.878 65.292 121.054C65.716 121.229 66.1824 121.275 66.6325 121.186C67.0825 121.096 67.4959 120.875 67.8204 120.551C68.1448 120.226 68.3658 119.813 68.4553 119.363C68.5448 118.913 68.4989 118.446 68.3233 118.023C68.1477 117.599 67.8503 117.236 67.4688 116.981C67.0873 116.726 66.6387 116.59 66.1799 116.59C65.5646 116.59 64.9745 116.835 64.5394 117.27C64.1043 117.705 63.8599 118.295 63.8599 118.91Z" fill="#E6E6E6"/>
<path d="M63.5303 118.91C63.5303 118.383 63.6866 117.869 63.9793 117.431C64.272 116.993 64.688 116.653 65.1747 116.452C65.6613 116.25 66.1967 116.198 66.7129 116.302C67.2292 116.405 67.7031 116.66 68.0747 117.033C68.4463 117.406 68.6989 117.881 68.8004 118.397C68.9019 118.914 68.8478 119.449 68.6449 119.935C68.4421 120.421 68.0996 120.835 67.6608 121.127C67.2221 121.418 66.7068 121.572 66.1803 121.57C65.8314 121.57 65.486 121.501 65.1639 121.367C64.8417 121.234 64.5491 121.037 64.3029 120.79C64.0567 120.543 63.8617 120.25 63.7291 119.927C63.5966 119.605 63.529 119.259 63.5303 118.91ZM64.2003 118.91C64.2003 119.306 64.3176 119.692 64.5374 120.021C64.7571 120.35 65.0695 120.606 65.4349 120.758C65.8004 120.909 66.2025 120.949 66.5905 120.872C66.9784 120.794 67.3348 120.604 67.6145 120.324C67.8942 120.044 68.0847 119.688 68.1619 119.3C68.239 118.912 68.1994 118.51 68.0481 118.145C67.8967 117.779 67.6403 117.467 67.3114 117.247C66.9825 117.027 66.5959 116.91 66.2003 116.91C65.6699 116.91 65.1612 117.121 64.7861 117.496C64.411 117.871 64.2003 118.38 64.2003 118.91Z" fill="#FAFAFA"/>
<path d="M78.21 126.92C78.208 127.627 78.4157 128.318 78.8068 128.906C79.1978 129.495 79.7547 129.954 80.4069 130.226C81.059 130.497 81.7771 130.57 82.4703 130.433C83.1635 130.296 83.8005 129.957 84.3008 129.458C84.8011 128.959 85.1421 128.323 85.2806 127.631C85.4192 126.938 85.3491 126.219 85.0792 125.566C84.8093 124.914 84.3517 124.355 83.7644 123.963C83.1771 123.57 82.4865 123.36 81.78 123.36C80.8349 123.36 79.9283 123.735 79.2591 124.402C78.5899 125.07 78.2126 125.975 78.21 126.92Z" fill="#E6E6E6"/>
<path d="M77.8701 126.93C77.8682 126.157 78.0958 125.4 78.5242 124.755C78.9526 124.111 79.5626 123.608 80.2769 123.311C80.9912 123.013 81.7777 122.934 82.5368 123.084C83.2959 123.234 83.9935 123.606 84.5414 124.152C85.0892 124.698 85.4626 125.395 85.6142 126.154C85.7659 126.913 85.6891 127.699 85.3934 128.414C85.0978 129.129 84.5967 129.741 83.9534 130.171C83.3102 130.601 82.5539 130.83 81.7801 130.83C80.7457 130.828 79.7542 130.416 79.0218 129.686C78.2894 128.955 77.8754 127.965 77.8701 126.93ZM78.5501 126.93C78.5521 127.569 78.7432 128.192 79.0993 128.722C79.4554 129.252 79.9606 129.664 80.551 129.907C81.1413 130.15 81.7905 130.213 82.4164 130.087C83.0423 129.961 83.6169 129.653 84.0676 129.201C84.5183 128.749 84.825 128.173 84.9488 127.547C85.0726 126.92 85.0081 126.272 84.7633 125.682C84.5185 125.092 84.1045 124.588 83.5736 124.234C83.0426 123.879 82.4185 123.69 81.7801 123.69C81.3551 123.69 80.9343 123.774 80.5417 123.937C80.1492 124.1 79.7927 124.339 79.4926 124.64C79.1926 124.941 78.9549 125.298 78.7931 125.691C78.6314 126.084 78.5488 126.505 78.5501 126.93Z" fill="#FAFAFA"/>
<path d="M87.44 90.26C88.2169 90.7529 89.1225 91.0043 90.0423 90.9823C90.9621 90.9603 91.8547 90.6659 92.6072 90.1364C93.3596 89.6069 93.938 88.8661 94.2693 88.0078C94.6006 87.1494 94.6697 86.2121 94.4681 85.3144C94.2664 84.4167 93.803 83.599 93.1364 82.9648C92.4698 82.3306 91.6301 81.9084 90.7235 81.7516C89.8169 81.5948 88.8842 81.7105 88.0433 82.084C87.2025 82.4576 86.4914 83.0721 86 83.85C85.6729 84.3652 85.4507 84.9399 85.3461 85.5411C85.2414 86.1423 85.2564 86.7583 85.3902 87.3537C85.5239 87.9491 85.7738 88.5123 86.1256 89.011C86.4773 89.5097 86.924 89.9342 87.44 90.26Z" fill="#E6E6E6"/>
<path d="M87.2602 90.54C86.2804 89.925 85.5441 88.9891 85.1769 87.892C84.8098 86.7949 84.8344 85.6044 85.2467 84.5235C85.6589 83.4425 86.4333 82.5379 87.4378 81.964C88.4423 81.39 89.6147 81.1821 90.7553 81.3757C91.8959 81.5693 92.934 82.1525 93.6928 83.0258C94.4516 83.8991 94.8841 85.0086 94.9165 86.165C94.9489 87.3215 94.5793 88.4534 93.8707 89.3679C93.162 90.2823 92.1582 90.9228 91.0302 91.18C90.6633 91.267 90.2874 91.3106 89.9102 91.31C88.9721 91.307 88.0538 91.0402 87.2602 90.54ZM86.2602 84.02C85.9489 84.5013 85.7369 85.0399 85.6367 85.6043C85.5365 86.1687 85.5502 86.7474 85.6769 87.3064C85.8036 87.8654 86.0408 88.3934 86.3745 88.8594C86.7082 89.3255 87.1318 89.7201 87.6202 90.02C88.0997 90.3239 88.6347 90.5299 89.1942 90.626C89.7537 90.7221 90.3268 90.7065 90.8802 90.58C91.5644 90.4146 92.1978 90.0844 92.7253 89.6183C93.2528 89.1522 93.6584 88.5643 93.9068 87.9057C94.1553 87.247 94.239 86.5377 94.1507 85.8393C94.0624 85.141 93.8049 84.4747 93.4004 83.8986C92.9959 83.3225 92.4567 82.854 91.8298 82.5338C91.203 82.2136 90.5073 82.0515 89.8035 82.0615C89.0996 82.0715 88.4089 82.2533 87.7914 82.5912C87.1738 82.929 86.6482 83.4127 86.2602 84V84.02Z" fill="#FAFAFA"/>
<path d="M68.29 90.8403C68.3456 91.558 68.6525 92.2332 69.1566 92.7471C69.6608 93.2609 70.3299 93.5806 71.0465 93.6499C71.763 93.7191 72.481 93.5336 73.0743 93.1258C73.6675 92.718 74.098 92.1141 74.29 91.4203C75.0317 92.1934 76.0175 92.6867 77.0809 92.8168C78.1443 92.947 79.22 92.7059 80.1262 92.1344C81.0323 91.563 81.7134 90.6961 82.0542 89.6804C82.395 88.6648 82.3746 87.5626 81.9965 86.5602C81.6184 85.5578 80.9058 84.7167 79.9791 84.1791C79.0524 83.6415 77.9686 83.4404 76.9107 83.6097C75.8528 83.7791 74.8859 84.3085 74.1734 85.1085C73.4608 85.9085 73.0463 86.93 73 88.0003C72.4093 87.6112 71.705 87.4316 71 87.4903C70.1989 87.581 69.4657 87.9832 68.9586 88.61C68.4515 89.2368 68.2114 90.0379 68.29 90.8403Z" fill="#E6E6E6"/>
<path d="M69.15 93.18C68.4614 92.599 68.0307 91.7691 67.952 90.8716C67.8733 89.9741 68.153 89.0819 68.73 88.39C69.2069 87.8237 69.8562 87.4292 70.5785 87.2667C71.3008 87.1042 72.0564 87.1826 72.73 87.49C72.8704 86.5612 73.2695 85.6908 73.8817 84.9785C74.4939 84.2661 75.2943 83.7406 76.1914 83.4621C77.0884 83.1836 78.0458 83.1635 78.9537 83.4039C79.8617 83.6444 80.6836 84.1357 81.3253 84.8216C81.9669 85.5076 82.4024 86.3604 82.5818 87.2824C82.7611 88.2043 82.6772 89.1582 82.3396 90.0347C82.0019 90.9112 81.4242 91.6748 80.6726 92.2382C79.921 92.8015 79.026 93.1418 78.09 93.22C77.4241 93.2813 76.7527 93.2066 76.1166 93.0003C75.4805 92.794 74.8931 92.4604 74.39 92.02C74.1431 92.5624 73.7583 93.0307 73.274 93.3781C72.7898 93.7255 72.2229 93.9399 71.63 94H71.33C70.5288 93.9953 69.7556 93.7045 69.15 93.18ZM74.53 91.18C74.9739 91.6632 75.5234 92.0374 76.1357 92.2733C76.748 92.5092 77.4066 92.6004 78.06 92.54C79.1999 92.4432 80.2549 91.8982 80.9935 91.0246C81.7321 90.151 82.0941 89.0201 82 87.88C81.8859 86.7481 81.3311 85.7066 80.4553 84.9806C79.5796 84.2545 78.4533 83.9023 77.32 84C76.278 84.0926 75.3045 84.5584 74.5787 85.3118C73.853 86.0651 73.4237 87.0553 73.37 88.1C73.3697 88.1589 73.3526 88.2166 73.3207 88.2662C73.2888 88.3158 73.2435 88.3552 73.19 88.38C73.139 88.4119 73.0801 88.4288 73.02 88.4288C72.9598 88.4288 72.9009 88.4119 72.85 88.38C72.292 88.008 71.6167 87.8544 70.9527 87.9484C70.2887 88.0425 69.6826 88.3776 69.25 88.89C69.0183 89.1653 68.8434 89.4838 68.7353 89.8271C68.6272 90.1703 68.588 90.5315 68.62 90.89C68.6522 91.2501 68.7574 91.5999 68.9294 91.918C69.1013 92.2361 69.3363 92.5157 69.62 92.74C69.9733 93.0321 70.3945 93.2306 70.8447 93.317C71.295 93.4035 71.7598 93.3752 72.1962 93.2347C72.6326 93.0942 73.0266 92.8461 73.3418 92.5132C73.6571 92.1803 73.8834 91.7734 74 91.33C74.0128 91.2722 74.0425 91.2196 74.0852 91.1787C74.1279 91.1378 74.1817 91.1104 74.24 91.1H74.32C74.3981 91.1056 74.472 91.1373 74.53 91.19V91.18Z" fill="#FAFAFA"/>
<path d="M59.3502 92.7703C59.4038 93.3726 59.6345 93.9456 60.0134 94.4168C60.3923 94.888 60.9023 95.2365 61.479 95.4181C62.0557 95.5998 62.6733 95.6065 63.2539 95.4374C63.8344 95.2683 64.3519 94.931 64.7409 94.4681C65.1299 94.0052 65.373 93.4374 65.4396 92.8365C65.5062 92.2355 65.3932 91.6282 65.115 91.0914C64.8368 90.5546 64.4057 90.1122 63.8763 89.8201C63.3468 89.528 62.7427 89.3994 62.1402 89.4503C61.3314 89.5241 60.5844 89.9143 60.0619 90.5361C59.5394 91.1579 59.2836 91.9609 59.3502 92.7703Z" fill="#E6E6E6"/>
<path d="M58.9998 92.8004C58.941 92.1303 59.0823 91.4579 59.4057 90.8681C59.7292 90.2783 60.2203 89.7977 60.8169 89.4872C61.4136 89.1766 62.0889 89.05 62.7576 89.1233C63.4262 89.1967 64.058 89.4667 64.5732 89.8992C65.0883 90.3318 65.4636 90.9074 65.6515 91.5532C65.8394 92.1991 65.8315 92.8862 65.6288 93.5276C65.4261 94.1689 65.0377 94.7358 64.5128 95.1564C63.9879 95.577 63.35 95.8324 62.6798 95.8904H62.3998C61.55 95.8916 60.7303 95.5755 60.1014 95.0039C59.4724 94.4323 59.0796 93.6465 58.9998 92.8004ZM62.1598 89.8004C61.4464 89.8305 60.7731 90.1389 60.2844 90.6595C59.7957 91.1801 59.5304 91.8715 59.5455 92.5855C59.5605 93.2994 59.8547 93.979 60.3649 94.4786C60.8751 94.9782 61.5608 95.258 62.2748 95.258C62.9889 95.258 63.6746 94.9782 64.1848 94.4786C64.695 93.979 64.9892 93.2994 65.0042 92.5855C65.0193 91.8715 64.754 91.1801 64.2653 90.6595C63.7766 90.1389 63.1033 89.8305 62.3898 89.8004H62.1598Z" fill="#FAFAFA"/>
<path d="M65.1999 114.11C65.2325 114.12 65.2672 114.12 65.2999 114.11C65.3414 114.097 65.3798 114.075 65.4129 114.046C65.446 114.018 65.4731 113.983 65.4926 113.944C65.5121 113.905 65.5237 113.862 65.5267 113.819C65.5296 113.775 65.5239 113.731 65.5099 113.69C63.6499 108.22 65.1099 97.2501 65.1199 97.1401C65.1315 97.0528 65.1088 96.9645 65.0565 96.8936C65.0043 96.8227 64.9266 96.7749 64.8399 96.7601C64.7511 96.7487 64.6614 96.7728 64.5903 96.827C64.5192 96.8813 64.4723 96.9615 64.4599 97.0501C64.3999 97.5101 62.9599 108.29 64.8799 113.9C64.9048 113.964 64.949 114.019 65.0063 114.056C65.0637 114.094 65.1313 114.113 65.1999 114.11Z" fill="#FAFAFA"/>
<path d="M61.42 117.15C61.4716 117.149 61.5223 117.136 61.5688 117.114C61.6153 117.092 61.6566 117.06 61.69 117.02C61.7414 116.947 61.7637 116.858 61.7527 116.769C61.7416 116.68 61.6979 116.599 61.63 116.54C59.0683 114.497 57.217 111.697 56.34 108.54C56.3275 108.498 56.3066 108.458 56.2785 108.424C56.2505 108.39 56.2158 108.362 56.1766 108.341C56.1374 108.321 56.0945 108.308 56.0505 108.305C56.0064 108.301 55.962 108.306 55.92 108.32C55.834 108.346 55.7616 108.404 55.7185 108.483C55.6755 108.562 55.6652 108.654 55.69 108.74C56.6068 112.037 58.5381 114.962 61.21 117.1C61.2735 117.138 61.3466 117.155 61.42 117.15Z" fill="#FAFAFA"/>
<path d="M75.77 121.86C75.8602 121.86 75.9467 121.825 76.0104 121.761C76.0742 121.697 76.11 121.611 76.11 121.52C76.11 121.43 76.0742 121.344 76.0104 121.28C75.9467 121.216 75.8602 121.18 75.77 121.18C74.1495 121.122 72.5431 120.857 70.99 120.39C70.9104 120.379 70.8295 120.397 70.7617 120.44C70.6938 120.483 70.6435 120.549 70.6195 120.626C70.5955 120.703 70.5995 120.785 70.6307 120.859C70.6619 120.933 70.7184 120.994 70.79 121.03C72.4149 121.517 74.095 121.796 75.79 121.86H75.77Z" fill="#FAFAFA"/>
<path d="M63.74 127.68C63.8145 127.679 63.8866 127.654 63.9459 127.609C64.0053 127.564 64.0487 127.501 64.07 127.43L65.21 123.23C65.2296 123.185 65.2392 123.136 65.2382 123.087C65.2372 123.038 65.2256 122.99 65.2041 122.946C65.1827 122.902 65.1519 122.863 65.114 122.832C65.076 122.8 65.0318 122.778 64.9843 122.765C64.9368 122.753 64.8872 122.751 64.8389 122.76C64.7905 122.768 64.7446 122.787 64.7043 122.815C64.664 122.843 64.6302 122.88 64.6053 122.922C64.5804 122.964 64.565 123.011 64.56 123.06L63.42 127.25C63.3952 127.336 63.4054 127.429 63.4485 127.507C63.4916 127.586 63.564 127.645 63.65 127.67L63.74 127.68Z" fill="#FAFAFA"/>
<path d="M56.5599 121.9C58.2743 121.797 59.9506 121.352 61.4899 120.59C61.559 120.543 61.6085 120.473 61.6291 120.392C61.6497 120.312 61.64 120.226 61.6017 120.152C61.5635 120.078 61.4994 120.021 61.4217 119.991C61.3439 119.961 61.2579 119.961 61.1799 119.99C59.7238 120.715 58.1343 121.134 56.5099 121.22C56.4197 121.22 56.3333 121.256 56.2695 121.32C56.2057 121.383 56.1699 121.47 56.1699 121.56C56.1699 121.65 56.2057 121.737 56.2695 121.8C56.3333 121.864 56.4197 121.9 56.5099 121.9H56.5599Z" fill="#FAFAFA"/>
<path d="M69.3403 115.5C69.4046 115.501 69.4679 115.484 69.5228 115.45C69.5777 115.416 69.6219 115.368 69.6503 115.31C70.9703 112.47 75.8503 102.83 75.9003 102.73C75.9207 102.691 75.933 102.648 75.9365 102.604C75.9401 102.56 75.9346 102.515 75.9206 102.473C75.9067 102.431 75.8844 102.392 75.8551 102.359C75.8258 102.326 75.7902 102.299 75.7503 102.28C75.6705 102.241 75.5788 102.236 75.4948 102.264C75.4107 102.292 75.3409 102.351 75.3003 102.43C75.3003 102.52 70.3603 112.18 69.0403 115.02C69.0024 115.101 68.998 115.194 69.0279 115.278C69.0579 115.362 69.1198 115.431 69.2003 115.47L69.3403 115.5Z" fill="#FAFAFA"/>
<path d="M75.7 130.74C75.7593 130.741 75.8179 130.726 75.8691 130.696C75.9203 130.666 75.9621 130.623 75.99 130.57C76.0332 130.492 76.0438 130.4 76.0194 130.313C75.9951 130.227 75.9378 130.154 75.86 130.11C72.8234 128.318 70.3044 125.768 68.55 122.71C68.4998 122.664 68.4366 122.635 68.3691 122.626C68.3015 122.617 68.2329 122.629 68.1727 122.661C68.1124 122.693 68.0635 122.743 68.0325 122.803C68.0016 122.864 67.9902 122.933 68 123C69.814 126.165 72.4191 128.805 75.56 130.66C75.6023 130.694 75.6495 130.721 75.7 130.74Z" fill="#FAFAFA"/>
<path d="M77.2702 114.67C77.2702 115.517 77.5331 116.343 78.0227 117.035C78.5122 117.726 79.2044 118.248 80.0034 118.529C80.8025 118.81 81.6691 118.836 82.4835 118.603C83.298 118.371 84.0201 117.891 84.5502 117.23C85.61 118.581 86.8956 119.738 88.3502 120.65C90.3622 121.906 92.639 122.677 95.0002 122.9C94.8873 123.222 94.8266 123.559 94.8202 123.9C94.8652 124.691 95.2108 125.434 95.7863 125.978C96.3618 126.521 97.1235 126.824 97.9152 126.824C98.7069 126.824 99.4686 126.521 100.044 125.978C100.62 125.434 100.965 124.691 101.01 123.9C101.012 123.351 100.864 122.811 100.58 122.34C102.72 121.727 104.699 120.648 106.373 119.181C108.047 117.713 109.376 115.894 110.265 113.852C111.154 111.811 111.58 109.599 111.514 107.373C111.447 105.148 110.889 102.965 109.88 100.98C110.691 100.479 111.373 99.7929 111.869 98.9785C112.365 98.1641 112.662 97.244 112.736 96.2932C112.809 95.3424 112.657 94.3876 112.292 93.5066C111.927 92.6255 111.36 91.843 110.635 91.2227C109.911 90.6024 109.05 90.1618 108.124 89.9368C107.197 89.7117 106.23 89.7086 105.302 89.9276C104.374 90.1466 103.51 90.5816 102.782 91.1972C102.054 91.8127 101.481 92.5915 101.11 93.4702C98.624 92.6576 95.9693 92.5051 93.4064 93.0278C90.8436 93.5504 88.4605 94.7303 86.4911 96.4516C84.5217 98.173 83.0336 100.377 82.1727 102.847C81.3117 105.316 81.1076 107.968 81.5802 110.54H81.4002C80.8564 110.535 80.3169 110.638 79.8134 110.844C79.3099 111.049 78.8525 111.353 78.468 111.738C78.0834 112.123 77.7794 112.58 77.5737 113.083C77.368 113.587 77.2649 114.126 77.2702 114.67ZM77.2702 114.67C77.2702 115.517 77.5331 116.343 78.0227 117.035C78.5122 117.726 79.2044 118.248 80.0034 118.529C80.8025 118.81 81.6691 118.836 82.4835 118.603C83.298 118.371 84.0201 117.891 84.5502 117.23C85.61 118.581 86.8956 119.738 88.3502 120.65C90.3622 121.906 92.639 122.677 95.0002 122.9C94.8873 123.222 94.8266 123.559 94.8202 123.9C94.8652 124.691 95.2108 125.434 95.7863 125.978C96.3618 126.521 97.1235 126.824 97.9152 126.824C98.7069 126.824 99.4686 126.521 100.044 125.978C100.62 125.434 100.965 124.691 101.01 123.9C101.012 123.351 100.864 122.811 100.58 122.34C102.72 121.727 104.699 120.648 106.373 119.181C108.047 117.713 109.376 115.894 110.265 113.852C111.154 111.811 111.58 109.599 111.514 107.373C111.447 105.148 110.889 102.965 109.88 100.98C110.691 100.479 111.373 99.7929 111.869 98.9785C112.365 98.1641 112.662 97.244 112.736 96.2932C112.809 95.3424 112.657 94.3876 112.292 93.5066C111.927 92.6255 111.36 91.843 110.635 91.2227C109.911 90.6024 109.05 90.1618 108.124 89.9368C107.197 89.7117 106.23 89.7086 105.302 89.9276C104.374 90.1466 103.51 90.5816 102.782 91.1972C102.054 91.8127 101.481 92.5915 101.11 93.4702C98.624 92.6576 95.9693 92.5051 93.4064 93.0278C90.8436 93.5504 88.4605 94.7303 86.4911 96.4516C84.5217 98.173 83.0336 100.377 82.1727 102.847C81.3117 105.316 81.1076 107.968 81.5802 110.54H81.4002C80.8564 110.535 80.3169 110.638 79.8134 110.844C79.3099 111.049 78.8525 111.353 78.468 111.738C78.0834 112.123 77.7794 112.58 77.5737 113.083C77.368 113.587 77.2649 114.126 77.2702 114.67Z" fill="#E6E6E6"/>
<path d="M63.7102 82.4703C64.3102 84.9703 67.4701 84.3403 70.2701 82.8103C72.4401 81.6303 74.7302 79.5603 74.2102 77.2303C75.2958 77.6734 76.5072 77.6983 77.6102 77.3003C79.6802 76.6103 80.9802 74.8803 80.5002 73.4303C80.0202 71.9803 78.0002 71.3703 75.8702 72.0603C73.7402 72.7503 72.6702 74.2603 72.8702 75.6403C71.3402 75.0403 68.8701 75.8303 67.3101 76.8803C64.4701 78.8303 63.3402 81.0003 63.7102 82.4703Z" fill="#E6E6E6"/>
<path d="M64.7201 84.2403C64.3785 84.0854 64.0788 83.8512 63.8457 83.5573C63.6127 83.2634 63.4531 82.9182 63.3801 82.5503C62.9501 80.7603 64.3801 78.4803 67.1501 76.5503C68.7184 75.4461 70.6313 74.9422 72.5401 75.1303C72.6101 73.7203 73.9001 72.3003 75.7601 71.6903C76.7636 71.3336 77.8521 71.2917 78.8801 71.5703C79.3181 71.676 79.7238 71.887 80.0619 72.185C80.3999 72.483 80.6602 72.859 80.8201 73.2803C81.3501 74.9003 79.9601 76.8203 77.7101 77.5703C76.7149 77.9166 75.6391 77.9584 74.6201 77.6903C74.7601 80.4503 71.5001 82.4703 70.4401 83.0503C69.0901 83.8644 67.5709 84.3571 66.0001 84.4903C65.5608 84.4957 65.125 84.4106 64.7201 84.2403ZM74.3501 76.9203C75.3532 77.3397 76.477 77.3682 77.5001 77.0003C79.4001 76.3703 80.6001 74.8303 80.1801 73.5603C80.0528 73.244 79.8508 72.9632 79.5913 72.742C79.3318 72.5209 79.0226 72.3659 78.6901 72.2903C77.7929 72.0536 76.8452 72.0919 75.9701 72.4003C74.2301 72.9703 73.0301 74.4003 73.2401 75.6003C73.2491 75.6595 73.2428 75.7199 73.2218 75.776C73.2008 75.832 73.1658 75.8817 73.1201 75.9203C73.0687 75.9512 73.01 75.9675 72.9501 75.9675C72.8902 75.9675 72.8314 75.9512 72.7801 75.9203C71.4001 75.3903 69.0201 76.1103 67.5301 77.1303C64.5301 79.1303 63.7501 81.1303 64.0301 82.3603C64.0835 82.6315 64.2026 82.8854 64.3769 83.0998C64.5512 83.3143 64.7755 83.4827 65.0301 83.5903C66.1001 84.0703 68.0301 83.6503 70.1501 82.4803C71.1501 81.9203 74.5001 79.8803 73.9201 77.2703C73.9127 77.2222 73.916 77.173 73.9298 77.1263C73.9437 77.0797 73.9676 77.0366 74.0001 77.0003C74.0581 76.9491 74.1327 76.9207 74.2101 76.9203C74.2562 76.91 74.304 76.91 74.3501 76.9203Z" fill="#FAFAFA"/>
<path d="M94.4502 123.94C94.446 123.688 94.4729 123.436 94.5302 123.19C92.274 122.909 90.1066 122.138 88.1802 120.93C86.802 120.071 85.5698 118.998 84.5302 117.75C84.1202 118.177 83.6279 118.517 83.0832 118.749C82.5384 118.981 81.9523 119.1 81.3602 119.1C80.2165 119.082 79.124 118.623 78.3115 117.817C77.4989 117.012 77.0293 115.924 77.0009 114.781C76.9725 113.637 77.3874 112.527 78.159 111.683C78.9305 110.838 79.9988 110.325 81.1402 110.25C81.0124 109.456 80.9488 108.654 80.9502 107.85C80.9512 105.438 81.5174 103.061 82.6035 100.907C83.6895 98.7541 85.2652 96.8854 87.204 95.4513C89.1428 94.0171 91.3908 93.0573 93.7677 92.649C96.1445 92.2407 98.5839 92.3951 100.89 93.1C101.305 92.2041 101.922 91.4164 102.692 90.7984C103.462 90.1805 104.365 89.7491 105.329 89.5381C106.294 89.327 107.294 89.342 108.252 89.5818C109.21 89.8217 110.099 90.2799 110.85 90.9207C111.602 91.5614 112.195 92.3672 112.583 93.2752C112.971 94.1832 113.143 95.1686 113.087 96.1544C113.031 97.1402 112.747 98.0996 112.259 98.9575C111.77 99.8155 111.089 100.549 110.27 101.1C111.242 103.097 111.772 105.281 111.822 107.501C111.873 109.722 111.443 111.927 110.563 113.967C109.683 116.006 108.373 117.832 106.723 119.318C105.072 120.805 103.12 121.917 101 122.58C101.18 123.011 101.272 123.473 101.27 123.94C101.295 124.405 101.225 124.871 101.065 125.308C100.904 125.746 100.656 126.146 100.335 126.484C100.015 126.822 99.6286 127.092 99.2005 127.276C98.7724 127.46 98.3112 127.555 97.8452 127.555C97.3792 127.555 96.918 127.46 96.4899 127.276C96.0618 127.092 95.6757 126.822 95.3552 126.484C95.0347 126.146 94.7865 125.746 94.6257 125.308C94.465 124.871 94.395 124.405 94.4202 123.94H94.4502ZM100.25 122.55L100.03 122.17L100.45 122.05C102.539 121.446 104.469 120.388 106.103 118.953C107.736 117.518 109.033 115.74 109.901 113.746C110.769 111.752 111.187 109.591 111.125 107.418C111.062 105.244 110.521 103.111 109.54 101.17L109.4 100.9L109.66 100.73C110.425 100.256 111.068 99.6088 111.535 98.8401C112.003 98.0714 112.283 97.2032 112.352 96.306C112.421 95.4089 112.278 94.508 111.933 93.6768C111.589 92.8455 111.053 92.1073 110.369 91.522C109.686 90.9368 108.874 90.521 108 90.3085C107.125 90.0961 106.213 90.0929 105.337 90.2993C104.461 90.5056 103.646 90.9157 102.959 91.4962C102.271 92.0767 101.73 92.8112 101.38 93.64L101.26 93.93L100.96 93.83C98.7468 93.1076 96.3939 92.9189 94.0937 93.2796C91.7935 93.6403 89.6113 94.54 87.7252 95.9053C85.8392 97.2706 84.3029 99.0626 83.2419 101.135C82.1809 103.208 81.6252 105.502 81.6202 107.83C81.6191 108.726 81.7028 109.62 81.8702 110.5L81.9402 110.9H81.3602C80.3978 110.95 79.4913 111.367 78.8276 112.066C78.164 112.765 77.794 113.691 77.794 114.655C77.794 115.619 78.164 116.546 78.8276 117.244C79.4913 117.943 80.3978 118.36 81.3602 118.41C81.921 118.412 82.4749 118.287 82.9805 118.044C83.4862 117.802 83.9305 117.448 84.2802 117.01L84.5502 116.68L84.8102 117.02C86.0486 118.582 87.5894 119.877 89.3403 120.829C91.0912 121.781 93.0163 122.37 95.0002 122.56H95.4402L95.2902 122.97C95.1861 123.269 95.132 123.583 95.1302 123.9C95.1075 124.276 95.162 124.652 95.2902 125.006C95.4184 125.36 95.6177 125.684 95.8757 125.958C96.1338 126.232 96.4452 126.451 96.7907 126.6C97.1363 126.749 97.5088 126.826 97.8852 126.826C98.2616 126.826 98.6341 126.749 98.9797 126.6C99.3252 126.451 99.6366 126.232 99.8947 125.958C100.153 125.684 100.352 125.36 100.48 125.006C100.608 124.652 100.663 124.276 100.64 123.9C100.634 123.423 100.499 122.957 100.25 122.55Z" fill="#FAFAFA"/>
<path d="M95.2601 108.57C94.9804 108.463 94.7282 108.295 94.5222 108.078C94.3162 107.86 94.1616 107.6 94.0699 107.315C93.9781 107.03 93.9515 106.728 93.992 106.431C94.0326 106.134 94.1392 105.85 94.304 105.601C94.4689 105.351 94.6878 105.141 94.9445 104.987C95.2012 104.833 95.4893 104.738 95.7874 104.71C96.0855 104.682 96.3861 104.722 96.6669 104.826C96.9478 104.929 97.2018 105.095 97.4101 105.31C97.7327 105.522 97.9851 105.825 98.1354 106.181C98.2856 106.536 98.327 106.928 98.2541 107.307C98.1813 107.687 97.9976 108.036 97.7263 108.31C97.455 108.585 97.1083 108.773 96.7301 108.85C96.5972 108.865 96.463 108.865 96.3301 108.85C95.9538 108.863 95.582 108.765 95.2601 108.57Z" fill="#F0F0F0"/>
<path d="M242.851 186.792C242.793 186.847 242.742 186.908 242.697 186.974H242.496L242.851 186.792Z" fill="#263238"/>
<path d="M263.735 204.229C263.735 204.229 263.664 204.229 263.652 204.229C263.652 204.229 263.723 204.193 263.735 204.229Z" fill="#263238"/>
<path d="M365.912 136.002C400.828 136.002 429.133 106.799 429.133 70.7748C429.133 34.7509 400.828 5.54785 365.912 5.54785C330.996 5.54785 302.691 34.7509 302.691 70.7748C302.691 106.799 330.996 136.002 365.912 136.002Z" fill="#FF0035" fill-opacity="0.9"/>
<path d="M373.699 78.4547C377.811 74.2117 377.811 67.3323 373.699 63.0892C369.586 58.8462 362.918 58.8461 358.806 63.0892C354.693 67.3323 354.693 74.2117 358.806 78.4547C362.918 82.6978 369.586 82.6978 373.699 78.4547Z" fill="white"/>
<path opacity="0.5" d="M365.912 5.54785C353.409 5.55026 341.187 9.37781 330.792 16.5465C320.397 23.7152 312.295 33.9031 307.512 45.822C302.729 57.7408 301.479 70.8554 303.919 83.5074C306.36 96.1594 312.382 107.781 321.224 116.901C330.066 126.022 341.331 132.233 353.595 134.749C365.858 137.265 378.569 135.973 390.12 131.035C401.672 126.098 411.545 117.738 418.491 107.012C425.438 96.2854 429.145 83.6749 429.145 70.7748C429.145 62.208 427.509 53.7252 424.332 45.8107C421.154 37.8962 416.496 30.7051 410.624 24.6481C404.752 18.591 397.781 13.7867 390.11 10.5095C382.438 7.23221 374.216 5.54625 365.912 5.54785ZM373.961 78.7132C362.697 87.5784 349.945 74.4209 358.537 62.8607C369.801 53.9467 382.601 67.1043 373.961 78.7254V78.7132Z" fill="white"/>
<path d="M98.32 200.656C102.142 196.713 102.142 190.32 98.32 186.377C94.4982 182.434 88.3018 182.434 84.48 186.377C80.6582 190.32 80.6582 196.713 84.48 200.656C88.3018 204.599 94.4982 204.599 98.32 200.656Z" fill="#FF0035"/>
<path opacity="0.4" d="M98.32 200.656C102.142 196.713 102.142 190.32 98.32 186.377C94.4982 182.434 88.3018 182.434 84.48 186.377C80.6582 190.32 80.6582 196.713 84.48 200.656C88.3018 204.599 94.4982 204.599 98.32 200.656Z" fill="white"/>
<path d="M461.542 337.305C461.979 337.305 462.334 336.939 462.334 336.488C462.334 336.037 461.979 335.671 461.542 335.671C461.105 335.671 460.75 336.037 460.75 336.488C460.75 336.939 461.105 337.305 461.542 337.305Z" fill="#E0E0E0"/>
<path d="M414.358 19.7541C407.41 12.814 399.156 7.41855 390.105 3.90163L390.519 2.75537C399.712 6.32685 408.105 11.791 415.186 18.8152L414.358 19.7541Z" fill="#FF0035"/>
<path d="M384.527 2.09741C383.404 1.76816 382.246 1.4755 381.1 1.21942L381.348 0C382.53 0.268273 383.712 0.573128 384.894 0.890178L384.527 2.09741Z" fill="#FF0035"/>
<path d="M69.0254 293.905C67.2711 289.914 64.3868 286.564 60.752 284.296L61.3665 283.247C65.2017 285.644 68.246 289.181 70.1009 293.393L69.0254 293.905Z" fill="#FF0035"/>
<path d="M57.1232 282.516C55.9405 282.071 54.7225 281.732 53.4829 281.504L53.6957 280.285C54.9992 280.525 56.2804 280.88 57.5251 281.346L57.1232 282.516Z" fill="#FF0035"/>
<path d="M11.4773 418.713L10.9927 417.604C27.9296 408.19 43.8501 405.153 61.4962 400.117L61.8153 401.337C44.2519 406.312 29.9389 409.202 11.4773 418.713Z" fill="#FF0035"/>
<path d="M-0.708154 425.615L-1.32275 424.566C0.485586 423.444 2.32939 422.347 4.16137 421.298L4.72869 422.371C2.92035 423.407 1.08837 424.493 -0.708154 425.615Z" fill="#FF0035"/>
<path d="M48.4241 326.098C44.3725 326.098 40.4119 324.858 37.0433 322.535C33.6747 320.213 31.0494 316.912 29.4994 313.049C27.9495 309.187 27.5446 304.938 28.3358 300.838C29.1271 296.738 31.0791 292.973 33.9448 290.018C36.8106 287.063 40.4613 285.051 44.4354 284.237C48.4094 283.423 52.5282 283.843 56.2707 285.445C60.0132 287.046 63.2114 289.757 65.4606 293.233C67.7098 296.71 68.9091 300.797 68.9068 304.977C68.9005 310.579 66.7402 315.949 62.8999 319.909C59.0597 323.869 53.8535 326.094 48.4241 326.098ZM48.4241 285.674C44.7237 285.674 41.1063 286.806 38.0295 288.927C34.9527 291.048 32.5546 294.063 31.1385 297.59C29.7224 301.117 29.3519 304.999 30.0738 308.743C30.7957 312.488 32.5777 315.927 35.1943 318.627C37.8109 321.327 41.1447 323.165 44.774 323.91C48.4034 324.655 52.1653 324.272 55.584 322.811C59.0028 321.35 61.9249 318.876 63.9808 315.702C66.0366 312.527 67.1339 308.795 67.1339 304.977C67.1308 299.859 65.1586 294.951 61.6505 291.331C58.1424 287.712 53.3853 285.677 48.4241 285.674Z" fill="#FF0035"/>
<path d="M439.097 224.093C433.486 224.093 428.002 222.377 423.337 219.161C418.672 215.945 415.037 211.375 412.89 206.027C410.743 200.679 410.181 194.795 411.276 189.118C412.37 183.441 415.072 178.226 419.039 174.133C423.006 170.04 428.06 167.253 433.563 166.123C439.065 164.994 444.769 165.574 449.952 167.789C455.135 170.004 459.565 173.755 462.682 178.568C465.799 183.381 467.463 189.039 467.463 194.827C467.463 202.589 464.474 210.033 459.154 215.521C453.835 221.01 446.62 224.093 439.097 224.093ZM439.097 167.451C433.842 167.451 428.705 169.059 424.335 172.071C419.966 175.083 416.56 179.364 414.55 184.373C412.539 189.382 412.012 194.894 413.038 200.212C414.063 205.529 416.593 210.414 420.309 214.247C424.025 218.081 428.759 220.692 433.913 221.75C439.067 222.807 444.409 222.265 449.264 220.19C454.119 218.115 458.269 214.601 461.188 210.093C464.108 205.585 465.666 200.285 465.666 194.864C465.66 187.595 462.859 180.627 457.877 175.487C452.896 170.348 446.141 167.458 439.097 167.451Z" fill="#FF0035"/>
<path d="M249.398 500C182.998 500 120.569 494.537 73.5873 484.623C26.2159 474.636 0.130859 461.161 0.130859 446.674C0.130859 432.188 26.2159 418.725 73.5873 408.726C120.557 398.812 182.998 393.361 249.398 393.361C315.798 393.361 378.228 398.812 425.221 408.726C472.592 418.725 498.677 432.2 498.677 446.674C498.677 461.149 472.592 474.636 425.221 484.623C378.239 494.537 315.81 500 249.398 500ZM249.398 395.19C183.116 395.19 120.793 400.629 73.9418 410.519C28.1542 420.176 1.90374 433.358 1.90374 446.674C1.90374 459.991 28.1542 473.173 74.0009 482.843C120.852 492.72 183.175 498.171 249.457 498.171C315.739 498.171 378.062 492.72 424.913 482.843C470.701 473.173 497.011 460.003 497.011 446.674C497.011 433.346 470.748 420.176 424.913 410.519C378.003 400.629 315.692 395.19 249.398 395.19Z" fill="#FF0035"/>
</g>
<path d="M297.593 61.8949C300.667 72.7046 302.038 83.9273 301.656 95.1591C300.729 112.266 304.46 117.066 304.46 117.066C304.46 117.066 280.7 121.984 265.588 110.366C250.477 98.7468 261.169 66.7658 261.169 66.7658L273.69 53.27L297.593 61.8949Z" fill="#263238"/>
<path opacity="0.4" d="M297.593 61.8949C300.667 72.7046 302.038 83.9273 301.656 95.1591C300.729 112.266 304.46 117.066 304.46 117.066C304.46 117.066 280.7 121.984 265.588 110.366C250.477 98.7468 261.169 66.7658 261.169 66.7658L273.69 53.27L297.593 61.8949Z" fill="black"/>
<path d="M294.932 373.437L176.963 667.159L163.016 660.886C163.016 660.886 188.035 547.313 210.108 498.106C210.845 496.443 211.605 494.851 212.342 493.354C215.963 486.065 218.432 478.258 219.66 470.212C219.85 468.881 220.064 467.479 220.301 466.006C224.269 439.989 232.823 392.065 244.774 369.54L294.932 373.437Z" fill="#FFB573"/>
<path opacity="0.1" d="M294.932 373.437L176.963 667.159L163.016 660.886C163.016 660.886 188.035 547.313 210.108 498.106C210.845 496.443 211.605 494.851 212.342 493.354C215.963 486.065 218.432 478.258 219.66 470.212C219.85 468.881 220.064 467.479 220.301 466.006C224.269 439.989 232.823 392.065 244.774 369.54L294.932 373.437Z" fill="black"/>
<path opacity="0.1" d="M235.01 395.581H285.809L294.933 373.437L244.87 369.588C240.758 377.916 237.456 386.621 235.01 395.581Z" fill="black"/>
<path d="M256.891 361.39L329.122 671.007L313.25 673.383C313.25 673.383 269.508 569.671 259.077 518.349C258.072 513.647 257.373 508.885 256.986 504.093C256.767 500.52 255.898 497.017 254.42 493.757L248.86 481.473C235.269 451.274 208.896 391.066 205.355 371.535L256.891 361.39Z" fill="#FFB573"/>
<path d="M212.603 134.576L227.05 223.177C227.05 223.177 164.442 274.214 205.856 391.708L298.306 384.057C298.306 384.057 309.877 326.272 296.382 226.123C296.382 226.123 321.116 163.516 298.306 136.548C298.306 136.524 265.897 117.278 212.603 134.576Z" fill="#263238"/>
<path d="M361.531 176.514C342.166 157.838 298.305 136.525 298.305 136.525C297.048 141.134 296.714 145.945 297.322 150.683C297.93 155.421 299.467 159.992 301.845 164.135C301.845 164.135 345.492 181.479 346.134 190.461C346.134 190.461 356.47 195.427 359.867 194.31C360.501 194.059 361.075 193.678 361.554 193.193C362.678 192.114 363.572 190.818 364.182 189.384C364.792 187.95 365.105 186.407 365.103 184.848C365.101 183.29 364.783 181.748 364.169 180.316C363.555 178.883 362.658 177.59 361.531 176.514Z" fill="#F0F600"/>
<path opacity="0.1" d="M260.979 378.878L209.324 385.768C210.75 390.021 212.461 394.75 214.361 399.811L264.424 393.562L260.979 378.878Z" fill="black"/>
<path opacity="0.6" d="M224.65 326.534C259.791 229.118 254.184 188.037 254.184 188.037L220.017 180.053L227.145 223.202C227.145 223.202 182.666 259.412 193.477 341.004C209.467 342.43 220.445 338.129 224.65 326.534Z" fill="black"/>
<path opacity="0.6" d="M286.306 249.67C286.306 249.67 281.554 305.007 302.938 327.603C303.241 300.426 301.868 273.257 298.828 246.249H294.741L286.306 249.67Z" fill="black"/>
<path opacity="0.1" d="M301.845 164.133C301.845 164.133 313.012 168.576 324.132 174.136C316.184 160.628 306.617 148.141 295.644 136.952L299.493 159.262C300.104 160.964 300.893 162.596 301.845 164.133Z" fill="black"/>
<path d="M270.434 147.762C237.17 137.973 248.836 130.441 248.836 130.441C253.873 122.244 252.733 108.012 251.212 98.6978L270.387 116.494C268.557 123.052 267.797 126.83 273.856 130.346C273.903 130.346 279.012 133.15 270.434 147.762Z" fill="#FFB573"/>
<path opacity="0.1" d="M269.128 123.005C269.306 120.791 269.745 118.606 270.435 116.494L253.185 100.48L252.092 101.858C252.092 101.858 254.824 117.255 269.128 123.005Z" fill="black"/>
<path d="M247.293 71.4932C246.201 89.8835 245.345 97.6293 253.424 108.108C265.565 123.884 288.375 121.199 294.956 103.522C300.872 87.6026 301.657 60.231 284.692 50.7982C280.96 48.6913 276.75 47.5755 272.464 47.5574C268.178 47.5392 263.959 48.6191 260.209 50.6942C256.459 52.7694 253.303 55.7705 251.042 59.4115C248.781 63.0525 247.491 67.2119 247.293 71.4932Z" fill="#FFB573"/>
<path d="M241.21 85.3939C241.5 87.1486 242.135 88.8286 243.077 90.3373C244.019 91.8461 245.249 93.1537 246.698 94.1851C250.571 96.8937 254.064 93.8049 254.278 89.3143C254.468 85.3226 252.686 79.0737 248.172 78.147C247.385 78.0108 246.579 78.0313 245.801 78.2074C245.022 78.3835 244.286 78.7117 243.635 79.1731C242.983 79.6346 242.43 80.2202 242.005 80.8963C241.581 81.5724 241.295 82.3257 241.162 83.1129C241.036 83.8695 241.052 84.6431 241.21 85.3939Z" fill="#FFB573"/>
<path d="M286.141 85.4165C287.402 88.859 289.129 92.1127 291.273 95.0869C290.501 95.617 289.623 95.9725 288.699 96.1284C287.776 96.2844 286.83 96.237 285.927 95.9897L286.141 85.4165Z" fill="#ED893E"/>
<path d="M272.501 73.8219C272.391 73.751 272.301 73.6528 272.24 73.5368C272.144 73.3693 272.118 73.171 272.167 72.9844C272.215 72.7978 272.336 72.6378 272.501 72.5389C273.679 71.835 275.01 71.4283 276.381 71.3538C277.751 71.2793 279.118 71.5392 280.366 72.1112C280.529 72.206 280.65 72.36 280.703 72.5413C280.756 72.7226 280.737 72.9174 280.651 73.0853C280.611 73.1697 280.554 73.245 280.483 73.3066C280.413 73.3683 280.331 73.415 280.242 73.4439C280.153 73.4728 280.059 73.4832 279.966 73.4747C279.873 73.4662 279.783 73.4388 279.7 73.3942C278.66 72.9421 277.526 72.7451 276.394 72.8195C275.261 72.8939 274.163 73.2375 273.19 73.8219C273.083 73.8761 272.965 73.9044 272.846 73.9044C272.726 73.9044 272.608 73.8761 272.501 73.8219Z" fill="#263238"/>
<path d="M299.137 75.4131C299.02 75.4433 298.898 75.4433 298.781 75.4131C297.853 74.7784 296.788 74.3721 295.673 74.2276C294.558 74.0831 293.425 74.2043 292.365 74.5815C292.279 74.625 292.184 74.6502 292.087 74.6557C291.99 74.6612 291.893 74.6469 291.802 74.6135C291.71 74.5801 291.627 74.5284 291.556 74.4616C291.486 74.3949 291.43 74.3144 291.391 74.2251C291.352 74.1362 291.331 74.0404 291.328 73.9432C291.326 73.846 291.343 73.7494 291.379 73.6588C291.414 73.5683 291.467 73.4856 291.534 73.4156C291.602 73.3456 291.682 73.2896 291.771 73.2509C293.055 72.774 294.433 72.6093 295.792 72.7704C297.151 72.9315 298.453 73.4139 299.589 74.1775C299.673 74.2243 299.747 74.2876 299.806 74.3638C299.865 74.4399 299.908 74.5273 299.933 74.6205C299.957 74.7138 299.963 74.8111 299.948 74.9065C299.934 75.0019 299.901 75.0934 299.85 75.1755C299.783 75.3014 299.678 75.4033 299.55 75.4672C299.423 75.531 299.278 75.5536 299.137 75.5319V75.4131Z" fill="#263238"/>
<path d="M275.687 82.7323C275.687 84.2292 276.423 85.4409 277.421 85.4885C278.419 85.536 279.203 84.3005 279.227 82.8036C279.251 81.3067 278.49 80.0949 277.516 80.0712C276.542 80.0474 275.734 81.2354 275.687 82.7323Z" fill="#263238"/>
<path d="M292.604 83.0643C292.604 84.5612 293.364 85.7967 294.314 85.8205C295.265 85.8442 296.12 84.6325 296.144 83.1356C296.168 81.6387 295.407 80.4269 294.433 80.4032C293.459 80.3794 292.627 81.5675 292.604 83.0643Z" fill="#263238"/>
<path d="M294.005 80.4753L297.616 79.5249C297.616 79.5249 295.644 82.3048 294.005 80.4753Z" fill="#263238"/>
<path d="M277.088 80.1426L280.699 79.1685C280.699 79.1685 278.799 81.9484 277.088 80.1426Z" fill="#263238"/>
<path d="M282.102 102.167C282.899 102.156 283.694 102.077 284.478 101.93C284.587 101.907 284.684 101.842 284.746 101.748C284.808 101.655 284.831 101.541 284.81 101.431C284.787 101.326 284.726 101.233 284.638 101.172C284.55 101.11 284.441 101.084 284.335 101.098C282.57 101.474 280.742 101.432 278.996 100.974C277.251 100.516 275.637 99.6551 274.284 98.4608C274.205 98.3838 274.098 98.3408 273.987 98.3408C273.877 98.3408 273.77 98.3838 273.69 98.4608C273.649 98.5007 273.616 98.5487 273.593 98.6017C273.57 98.6548 273.559 98.7119 273.559 98.7696C273.559 98.8274 273.57 98.8845 273.593 98.9376C273.616 98.9907 273.649 99.0386 273.69 99.0785C275.991 101.153 279.005 102.26 282.102 102.167Z" fill="#263238"/>
<path d="M286.687 54.4094C286.687 54.4094 293.815 68.2616 279.013 67.8577C264.21 67.4537 261.882 91.8079 261.882 91.8079L255.609 91.0713C255.609 91.0713 261.478 115.711 255.609 118.562C249.74 121.413 224.721 109.367 224.721 109.367C230.022 100.975 232.892 91.2782 233.013 81.3534C233.702 63.866 247.673 22.4996 286.687 54.4094Z" fill="#263238"/>
<path d="M260.17 46.1889C260.17 46.1889 276.802 35.0216 291.985 45.4523C307.167 55.883 307.548 79.6193 302.653 78.7164C297.758 77.8136 299.825 65.1257 284.619 61.229C275.199 58.6567 266.714 53.437 260.17 46.1889Z" fill="#263238"/>
<path d="M304.579 286.997C303.842 274 298.306 226.337 298.306 226.337C298.306 226.337 311.945 189.509 309.545 165.915C307.145 142.321 297.665 134.837 297.665 134.837L274.309 127.709C274.309 127.709 279.631 129.063 281.603 137.831V138.116C288.646 168.473 290.525 199.799 287.163 230.78C282.791 272.479 294.624 302.061 302.179 315.96C302.749 317.024 303.575 317.93 304.582 318.595C305.59 319.26 306.747 319.663 307.949 319.769C309.151 319.876 310.361 319.681 311.469 319.202C312.578 318.724 313.549 317.977 314.297 317.029L315.105 316.008C315.105 316.008 305.292 299.993 304.579 286.997Z" fill="#F0F600"/>
<path d="M291.083 259.554L301.728 256.893L303.89 259.103C304.132 259.343 304.313 259.637 304.417 259.962C304.521 260.287 304.545 260.633 304.487 260.969C304.429 261.305 304.29 261.622 304.082 261.893C303.875 262.164 303.605 262.38 303.296 262.524L296.595 265.661C296.099 265.896 295.53 265.931 295.008 265.759C294.486 265.586 294.05 265.219 293.792 264.734L291.083 259.554Z" fill="#F0F600"/>
<path opacity="0.2" d="M291.083 259.554L301.728 256.893L303.89 259.103C304.132 259.343 304.313 259.637 304.417 259.962C304.521 260.287 304.545 260.633 304.487 260.969C304.429 261.305 304.29 261.622 304.082 261.893C303.875 262.164 303.605 262.38 303.296 262.524L296.595 265.661C296.099 265.896 295.53 265.931 295.008 265.759C294.486 265.586 294.05 265.219 293.792 264.734L291.083 259.554Z" fill="black"/>
<g opacity="0.2">
<path d="M288.018 222.156C295.146 198.277 299.518 153.132 299.518 153.132H288.683L293.435 146.884L285.713 131.249L274.332 127.804C275.021 128.018 279.702 129.776 281.46 137.902V138.187C287.932 165.676 290.144 193.996 288.018 222.156Z" fill="black"/>
</g>
<path d="M330.121 199.678L306.551 208.826L292.58 197.801C291.975 197.301 291.215 197.027 290.43 197.027C289.645 197.027 288.885 197.301 288.28 197.801L282.173 203.052C281.577 203.566 281.177 204.271 281.043 205.047C280.909 205.823 281.048 206.621 281.437 207.305L283.813 211.463C284.146 212.038 284.642 212.502 285.238 212.794C288.399 214.338 298.829 219.257 303.106 219.494C312.277 219.993 338.485 209.99 338.485 209.99L330.121 199.678Z" fill="#FFB573"/>
<path d="M315.745 207.9C315.745 209.278 316.078 210.276 311.492 210.276C306.906 210.276 307.239 209.183 307.239 207.9C307.239 206.617 306.882 205.405 311.492 205.405C316.101 205.405 315.745 206.522 315.745 207.9Z" fill="#F0F600"/>
<path opacity="0.5" d="M311.493 205.405C308.57 205.405 307.644 205.856 307.358 206.545C307.644 207.211 308.57 207.662 311.493 207.662C314.415 207.662 315.342 207.211 315.627 206.545C315.342 205.856 314.415 205.405 311.493 205.405Z" fill="white"/>
<path d="M310.97 210.062C312.428 210.064 313.873 209.782 315.223 209.23C316.232 211.904 316.59 214.779 316.268 217.618L311.944 218.901C312.507 215.923 312.168 212.845 310.97 210.062Z" fill="#263238"/>
<path d="M364.167 179.341C376.998 199.228 322.445 217.856 322.445 217.856L314.723 203.6C314.723 203.6 342.973 194.619 342.332 185.637C342.332 185.637 346.561 177.464 349.46 176.632C352.359 175.801 364.167 179.341 364.167 179.341Z" fill="#F0F600"/>
<path d="M244.109 139.329C242.921 133.96 243.847 128.091 246.485 126.285L211.866 133.58L225.433 222.49C196.921 250.408 160.283 318.148 160.283 318.148L193.809 325.87C199.193 327.12 204.849 326.361 209.714 323.736C214.579 321.111 218.318 316.801 220.23 311.614C231.326 281.177 251.902 222.133 254.017 197.874C255.894 176.158 247.245 153.443 244.109 139.329Z" fill="#F0F600"/>
<path opacity="0.2" d="M246.389 126.237L234.105 128.827L232.774 147.835L241.779 154.583H227.975C227.975 154.583 250.309 165.203 249.786 220.184C251.734 212.875 253.147 205.435 254.016 197.921C255.893 176.228 247.244 153.513 244.108 139.352C242.92 133.911 243.846 128.043 246.389 126.237Z" fill="black"/>
<path opacity="0.2" d="M202.981 251.619L228.974 259.555L225.553 262.573C224.186 263.785 222.529 264.621 220.742 265C218.955 265.379 217.101 265.288 215.36 264.735L203.48 260.981C202.919 260.807 202.404 260.512 201.97 260.117C201.535 259.722 201.193 259.237 200.966 258.696C200.74 258.154 200.635 257.57 200.659 256.984C200.682 256.397 200.834 255.823 201.104 255.302L202.981 251.619Z" fill="black"/>
<path opacity="0.1" d="M221.179 194.784C230.16 165.345 219.753 145.078 219.753 145.078L214.479 151.208L221.179 194.784Z" fill="black"/>
<path d="M166.057 259.555L150.328 285.81L138.97 289.492C137.925 289.84 136.994 290.467 136.278 291.304C135.563 292.141 135.088 293.158 134.907 294.244L134.527 296.24C134.278 297.589 134.492 298.983 135.135 300.195C135.777 301.407 136.811 302.366 138.067 302.917L145.718 306.243C146.923 306.78 148.27 306.91 149.556 306.615C150.842 306.319 151.996 305.613 152.846 304.604L155.46 301.372C155.898 300.836 156.25 300.235 156.505 299.59L159.665 291.251L176.677 263L166.057 259.555Z" fill="#FFB573"/>
<path d="M212.603 134.576C212.603 134.576 200.557 143.724 193.833 175.99C187.109 208.256 187.085 211.63 182.261 222.536C175.537 237.909 153.868 273.739 153.868 273.739L168.314 281.437C168.314 281.437 193.334 241.473 199.606 228.001C205.879 214.529 214.266 184.544 218.353 169.812C220.729 161.235 225.125 145.197 212.603 134.576Z" fill="#F0F600"/>
<path opacity="0.6" d="M257.795 322.068C251.118 341.219 260.171 377.476 262.76 386.98L270.554 386.339C260.67 366.571 257.795 322.068 257.795 322.068Z" fill="black"/>
<path d="M154.248 329.124L108.225 303.415C105.999 302.173 103.421 301.716 100.904 302.117C98.3875 302.518 96.0786 303.753 94.349 305.625L68.997 333.139C67.8356 334.4 66.9754 335.908 66.4811 337.55C65.9869 339.192 65.8716 340.924 66.1438 342.617C66.416 344.309 67.0686 345.918 68.0526 347.322C69.0366 348.726 70.3262 349.888 71.8245 350.722L133.03 384.936C134.526 385.773 136.191 386.259 137.901 386.359C139.612 386.459 141.323 386.17 142.905 385.514C144.488 384.858 145.901 383.851 147.038 382.57C148.176 381.289 149.008 379.766 149.472 378.117L159.642 342.097C160.333 339.643 160.176 337.028 159.198 334.674C158.219 332.32 156.475 330.365 154.248 329.124Z" fill="#F0F600"/>
<path d="M156.696 332.236C160.241 325.316 160.964 317.29 158.713 309.847C156.462 302.404 151.411 296.125 144.624 292.33C137.838 288.535 129.843 287.52 122.323 289.499C114.804 291.478 108.344 296.296 104.305 302.94C103.123 302.744 101.909 302.916 100.829 303.435C99.7487 303.954 98.8549 304.793 98.2696 305.839C96.7015 308.643 99.5289 315.509 99.5289 315.509C99.5289 315.509 106.847 314.298 108.415 311.494C108.988 310.472 109.237 309.301 109.131 308.135C109.025 306.968 108.569 305.861 107.821 304.96C111.421 299.441 116.982 295.495 123.38 293.92C129.779 292.345 136.536 293.259 142.286 296.477C148.036 299.694 152.35 304.976 154.354 311.253C156.359 317.529 155.905 324.333 153.084 330.288C151.922 330.128 150.739 330.321 149.688 330.842C148.637 331.363 147.767 332.188 147.192 333.211C145.624 336.014 148.451 342.881 148.451 342.881C148.451 342.881 155.769 341.669 157.337 338.865C157.928 337.83 158.184 336.636 158.069 335.449C157.954 334.262 157.474 333.14 156.696 332.236Z" fill="#F0F600"/>
<path opacity="0.5" d="M156.696 332.236C160.241 325.316 160.964 317.29 158.713 309.847C156.462 302.404 151.411 296.125 144.624 292.33C137.838 288.535 129.843 287.52 122.323 289.499C114.804 291.478 108.344 296.296 104.305 302.94C103.123 302.744 101.909 302.916 100.829 303.435C99.7487 303.954 98.8549 304.793 98.2696 305.839C96.7015 308.643 99.5289 315.509 99.5289 315.509C99.5289 315.509 106.847 314.298 108.415 311.494C108.988 310.472 109.237 309.301 109.131 308.135C109.025 306.968 108.569 305.861 107.821 304.96C111.421 299.441 116.982 295.495 123.38 293.92C129.779 292.345 136.536 293.259 142.286 296.477C148.036 299.694 152.35 304.976 154.354 311.253C156.359 317.529 155.905 324.333 153.084 330.288C151.922 330.128 150.739 330.321 149.688 330.842C148.637 331.363 147.767 332.188 147.192 333.211C145.624 336.014 148.451 342.881 148.451 342.881C148.451 342.881 155.769 341.669 157.337 338.865C157.928 337.83 158.184 336.636 158.069 335.449C157.954 334.262 157.474 333.14 156.696 332.236Z" fill="black"/>
<path d="M105.16 309.38C104.972 309.71 104.69 309.976 104.351 310.146C104.011 310.316 103.629 310.382 103.252 310.335C102.875 310.288 102.521 310.131 102.233 309.883C101.946 309.636 101.737 309.308 101.635 308.943C101.533 308.577 101.542 308.189 101.659 307.828C101.777 307.468 101.999 307.149 102.297 306.914C102.595 306.679 102.956 306.537 103.334 306.507C103.713 306.476 104.092 306.558 104.423 306.743C104.646 306.866 104.842 307.033 105 307.233C105.158 307.433 105.274 307.662 105.343 307.907C105.411 308.153 105.43 308.409 105.399 308.662C105.368 308.915 105.286 309.159 105.16 309.38Z" fill="#F0F600"/>
<path d="M154.153 336.752C154.031 336.976 153.866 337.175 153.667 337.335C153.468 337.495 153.239 337.614 152.993 337.685C152.748 337.755 152.491 337.777 152.237 337.747C151.983 337.717 151.738 337.637 151.515 337.512C151.068 337.263 150.738 336.847 150.597 336.354C150.457 335.862 150.518 335.334 150.767 334.886C151.016 334.439 151.432 334.109 151.925 333.968C152.417 333.828 152.945 333.889 153.392 334.138C153.616 334.257 153.814 334.42 153.974 334.617C154.134 334.814 154.253 335.041 154.324 335.285C154.394 335.528 154.416 335.783 154.387 336.035C154.357 336.287 154.278 336.531 154.153 336.752Z" fill="#F0F600"/>
<path d="M112.915 304.156L151.247 325.571L141.189 343.576C140.536 344.744 139.659 345.773 138.609 346.603C137.559 347.432 136.355 348.047 135.067 348.412C133.779 348.777 132.432 348.884 131.103 348.728C129.773 348.572 128.487 348.156 127.319 347.503L106.742 336.008C105.573 335.355 104.545 334.478 103.715 333.428C102.885 332.378 102.27 331.174 101.906 329.886C101.541 328.598 101.434 327.251 101.59 325.922C101.746 324.592 102.162 323.307 102.815 322.138L112.873 304.133L112.915 304.156Z" fill="#263238"/>
<path d="M123.076 336.347C122.817 336.805 122.429 337.175 121.96 337.412C121.491 337.649 120.962 337.742 120.44 337.679C119.918 337.616 119.427 337.4 119.028 337.058C118.629 336.716 118.34 336.263 118.198 335.757C118.056 335.251 118.066 334.714 118.229 334.215C118.391 333.715 118.698 333.274 119.111 332.949C119.523 332.623 120.023 332.427 120.547 332.385C121.071 332.342 121.595 332.456 122.054 332.712C122.361 332.883 122.631 333.113 122.848 333.388C123.066 333.663 123.227 333.979 123.322 334.317C123.417 334.655 123.444 335.008 123.402 335.357C123.359 335.705 123.249 336.042 123.076 336.347Z" fill="#F0F600"/>
</g>
<defs>
<clipPath id="clip0_437_19">
<rect width="500" height="500" rx="250" fill="white"/>
</clipPath>
<clipPath id="clip1_437_19">
<rect width="500" height="500" fill="white"/>
</clipPath>
</defs>
</svg>
