<svg width="500" height="500" viewBox="0 0 500 500" fill="none" xmlns="http://www.w3.org/2000/svg">
<g clip-path="url(#clip0_436_19)">
<path d="M449.9 398.49H416.78V398.74H449.9V398.49Z" fill="#EBEBEB"/>
<path d="M331.22 401.21H322.53V401.46H331.22V401.21Z" fill="#EBEBEB"/>
<path d="M415.78 389.21H396.59V389.46H415.78V389.21Z" fill="#EBEBEB"/>
<path d="M95.65 390.89H52.46V391.14H95.65V390.89Z" fill="#EBEBEB"/>
<path d="M110.89 390.89H104.56V391.14H110.89V390.89Z" fill="#EBEBEB"/>
<path d="M225.15 395.11H131.47V395.36H225.15V395.11Z" fill="#EBEBEB"/>
<path d="M440.477 223.318C442.99 207.768 432.422 193.125 416.872 190.612C401.322 188.099 386.679 198.668 384.166 214.217C381.653 229.767 392.221 244.41 407.771 246.923C423.321 249.437 437.964 238.868 440.477 223.318Z" fill="#E0E0E0"/>
<path d="M437.934 223.381C440.451 207.877 429.923 193.268 414.419 190.752C398.915 188.235 384.306 198.763 381.789 214.267C379.273 229.771 389.801 244.38 405.305 246.897C420.809 249.413 435.418 238.885 437.934 223.381Z" fill="#EBEBEB"/>
<path opacity="0.8" d="M409.85 241.83C422.459 241.83 432.68 231.609 432.68 219C432.68 206.391 422.459 196.17 409.85 196.17C397.241 196.17 387.02 206.391 387.02 219C387.02 231.609 397.241 241.83 409.85 241.83Z" fill="white"/>
<path d="M412.64 218.32C412.64 218.779 412.504 219.228 412.248 219.61C411.993 219.992 411.63 220.289 411.206 220.464C410.781 220.64 410.314 220.685 409.864 220.595C409.413 220.504 409 220.282 408.676 219.957C408.352 219.631 408.132 219.217 408.043 218.766C407.955 218.316 408.002 217.849 408.179 217.425C408.357 217.001 408.656 216.64 409.038 216.386C409.421 216.132 409.871 215.998 410.33 216C410.634 216 410.935 216.06 411.216 216.177C411.497 216.294 411.752 216.465 411.967 216.68C412.182 216.896 412.352 217.152 412.467 217.433C412.583 217.714 412.641 218.016 412.64 218.32Z" fill="#E0E0E0"/>
<path d="M253 161C274.294 160.989 294.848 168.814 310.743 182.983C326.638 197.152 336.764 216.675 339.19 237.83C339.937 244.419 339.937 251.071 339.19 257.66C336.753 278.806 326.622 298.317 310.728 312.476C294.833 326.635 274.286 334.452 253 334.44C250.58 334.44 248.17 334.34 245.8 334.14C224.107 332.346 203.881 322.462 189.136 306.448C174.392 290.434 166.208 269.463 166.208 247.695C166.208 225.927 174.392 204.956 189.136 188.942C203.881 172.928 224.107 163.044 245.8 161.25C248.17 161.05 250.58 161 253 161Z" fill="#E0E0E0"/>
<path d="M250 158C271.294 157.989 291.848 165.814 307.743 179.983C323.638 194.152 333.764 213.675 336.19 234.83C336.937 241.419 336.937 248.071 336.19 254.66C333.753 275.806 323.622 295.317 307.728 309.476C291.833 323.635 271.286 331.452 250 331.44C247.58 331.44 245.17 331.34 242.8 331.14C221.107 329.346 200.881 319.462 186.136 303.448C171.392 287.434 163.208 266.463 163.208 244.695C163.208 222.927 171.392 201.956 186.136 185.942C200.881 169.928 221.107 160.044 242.8 158.25C245.17 158.05 247.58 158 250 158Z" fill="#EBEBEB"/>
<path d="M253.37 283.52C274.81 283.52 292.19 266.14 292.19 244.7C292.19 223.261 274.81 205.88 253.37 205.88C231.931 205.88 214.55 223.261 214.55 244.7C214.55 266.14 231.931 283.52 253.37 283.52Z" fill="#E0E0E0"/>
<path d="M279.937 249.021C282.318 234.356 272.36 220.539 257.695 218.158C243.031 215.778 229.213 225.736 226.833 240.401C224.452 255.065 234.41 268.883 249.075 271.263C263.739 273.644 277.557 263.685 279.937 249.021Z" fill="#F5F5F5"/>
<path d="M253.01 248.92C255.341 248.92 257.23 247.031 257.23 244.7C257.23 242.369 255.341 240.48 253.01 240.48C250.679 240.48 248.79 242.369 248.79 244.7C248.79 247.031 250.679 248.92 253.01 248.92Z" fill="#E0E0E0"/>
<path opacity="0.6" d="M291.53 237.53L336.19 234.78C336.937 241.369 336.937 248.021 336.19 254.61L291.53 251.86L279.53 251.11L258 249.79L252.9 249.48L247.8 249.79L227.22 251.06L215.22 251.8L163.86 255C163.047 248.177 163.047 241.282 163.86 234.46L215.2 237.62L227.2 238.36L247.78 239.63L252.88 239.94L257.98 239.63L279.46 238.3L291.53 237.53Z" fill="white"/>
<path d="M430.135 314.065C433.937 303.971 428.837 292.707 418.743 288.905C408.649 285.103 397.385 290.203 393.582 300.297C389.78 310.391 394.881 321.655 404.975 325.457C415.068 329.26 426.333 324.159 430.135 314.065Z" fill="#EBEBEB"/>
<path d="M396.18 319.53C393.239 315.339 392.018 310.18 392.767 305.115C393.517 300.05 396.181 295.465 400.209 292.306C404.238 289.146 409.325 287.652 414.423 288.131C419.52 288.61 424.24 291.025 427.61 294.88L426.91 295.42C423.713 291.66 419.185 289.284 414.274 288.79C409.363 288.296 404.452 289.724 400.571 292.773C396.69 295.822 394.141 300.256 393.458 305.144C392.776 310.032 394.013 314.995 396.91 318.99L396.18 319.53Z" fill="#E0E0E0"/>
<path d="M396.18 319.53L396.87 318.99C398.378 321.07 400.29 322.824 402.492 324.147C404.694 325.47 407.141 326.335 409.685 326.691C412.229 327.046 414.819 326.884 417.299 326.215C419.779 325.545 422.099 324.382 424.119 322.795C426.139 321.208 427.818 319.23 429.055 316.979C430.292 314.727 431.062 312.249 431.319 309.693C431.576 307.137 431.314 304.556 430.55 302.103C429.786 299.651 428.534 297.378 426.87 295.42L427.57 294.88C430.511 299.072 431.732 304.231 430.983 309.296C430.233 314.361 427.569 318.945 423.541 322.105C419.512 325.265 414.425 326.759 409.327 326.28C404.23 325.801 399.51 323.385 396.14 319.53H396.18Z" fill="#E0E0E0"/>
<path d="M418.19 315.24L417.64 314.55C422.74 310.55 427.53 302.62 426.82 295.2L427.69 295.11C428.43 302.86 423.47 311.1 418.19 315.24Z" fill="#E0E0E0"/>
<path d="M396.84 319.31L397.13 318.48C404.18 320.94 413.02 318.18 418.13 314.18L418.68 314.87C413.37 319 404.19 321.87 396.84 319.31Z" fill="#E0E0E0"/>
<path d="M406.14 299.87L405.59 299.18C410.87 295.04 420.06 292.18 427.41 294.74L427.12 295.57C420.07 293.11 411.23 295.88 406.14 299.87Z" fill="#E0E0E0"/>
<path d="M396.55 318.94C395.82 311.2 400.78 302.94 406.06 298.81L406.6 299.5C401.51 303.5 396.72 311.43 397.43 318.85L396.55 318.94Z" fill="#E0E0E0"/>
<path d="M426.991 294.778L396.25 318.891L396.793 319.584L427.534 295.471L426.991 294.778Z" fill="#E0E0E0"/>
<path d="M410.218 287.492L409.526 288.035L429.936 314.056L430.628 313.512L410.218 287.492Z" fill="#E0E0E0"/>
<path d="M399.926 291.771L399.233 292.314L423.334 323.04L424.026 322.497L399.926 291.771Z" fill="#E0E0E0"/>
<path d="M393.598 301.088L392.905 301.631L412.772 326.959L413.464 326.416L393.598 301.088Z" fill="#E0E0E0"/>
<path d="M108.703 126.253C121.418 113.538 121.418 92.9221 108.703 80.2066C95.9875 67.4911 75.3717 67.4911 62.6562 80.2066C49.9407 92.9221 49.9407 113.538 62.6562 126.253C75.3717 138.969 95.9875 138.969 108.703 126.253Z" fill="#E0E0E0"/>
<path d="M49.7603 102.06C49.7603 108.672 51.7206 115.135 55.3935 120.632C59.0664 126.129 64.2869 130.414 70.3948 132.945C76.5028 135.475 83.2239 136.138 89.7084 134.849C96.193 133.56 102.15 130.377 106.825 125.702C111.501 121.028 114.686 115.072 115.977 108.588C117.268 102.104 116.607 95.3829 114.078 89.2742C111.55 83.1655 107.266 77.9437 101.77 74.2692C96.274 70.5947 89.8117 68.6324 83.2003 68.6304C78.8093 68.6291 74.4611 69.4928 70.4041 71.1722C66.347 72.8516 62.6605 75.3139 59.5552 78.4183C56.4499 81.5227 53.9866 85.2084 52.3059 89.265C50.6253 93.3215 49.7603 97.6694 49.7603 102.06ZM77.6103 77.3004C76.5073 77.6984 75.2959 77.6735 74.2103 77.2304C74.7303 79.5604 72.4403 81.6304 70.2703 82.8104C67.4703 84.3404 64.2703 84.9704 63.7103 82.4704C63.3403 80.9604 64.4703 78.8304 67.3403 76.8804C68.8803 75.8804 71.3403 75.0404 72.9003 75.6404C72.6703 74.2604 73.9003 72.7004 75.9003 72.0604C77.9003 71.4204 80.0003 72.0004 80.5003 73.4304C81.0003 74.8604 79.6803 76.6104 77.6103 77.3004ZM93.8503 88.7904C93.3608 89.5691 92.6513 90.1852 91.8117 90.5607C90.972 90.9362 90.0398 91.0542 89.1331 90.8999C88.2263 90.7455 87.3857 90.3257 86.7176 89.6936C86.0494 89.0614 85.5838 88.2453 85.3795 87.3485C85.1752 86.4517 85.2415 85.5144 85.57 84.6552C85.8985 83.7961 86.4744 83.0537 87.2248 82.5218C87.9753 81.99 88.8666 81.6927 89.7861 81.6675C90.7055 81.6424 91.6118 81.8904 92.3903 82.3804C92.9079 82.7046 93.3564 83.1278 93.7101 83.6258C94.0638 84.1238 94.3157 84.6867 94.4513 85.2822C94.587 85.8777 94.6037 86.4942 94.5005 87.0962C94.3974 87.6982 94.1764 88.274 93.8503 88.7904ZM78.2103 126.92C78.2103 126.214 78.4196 125.524 78.8119 124.937C79.2042 124.35 79.7617 123.892 80.4141 123.622C81.0664 123.352 81.7842 123.281 82.4767 123.419C83.1692 123.557 83.8054 123.897 84.3046 124.396C84.8039 124.895 85.1439 125.531 85.2817 126.224C85.4194 126.916 85.3487 127.634 85.0785 128.287C84.8083 128.939 84.3507 129.496 83.7636 129.889C83.1766 130.281 82.4863 130.49 81.7803 130.49C80.8334 130.49 79.9254 130.114 79.2559 129.445C78.5864 128.775 78.2103 127.867 78.2103 126.92ZM77.2703 114.67C77.2703 113.586 77.7012 112.545 78.4682 111.778C79.2352 111.011 80.2755 110.58 81.3603 110.58H81.5403C81.0676 108.008 81.2718 105.357 82.1327 102.887C82.9936 100.417 84.4818 98.2131 86.4512 96.4918C88.4206 94.7704 90.8036 93.5906 93.3665 93.0679C95.9293 92.5452 98.5841 92.6977 101.07 93.5104C101.438 92.6259 102.01 91.8411 102.739 91.22C103.468 90.5989 104.334 90.1592 105.266 89.9368C106.198 89.7145 107.169 89.7157 108.1 89.9406C109.031 90.1654 109.896 90.6074 110.623 91.2304C111.351 91.8535 111.92 92.6398 112.286 93.5253C112.651 94.4107 112.802 95.37 112.726 96.3249C112.649 97.2797 112.348 98.2029 111.847 99.019C111.345 99.8351 110.658 100.521 109.84 101.02C110.849 103.005 111.407 105.188 111.474 107.413C111.54 109.639 111.114 111.851 110.225 113.893C109.336 115.934 108.007 117.753 106.333 119.221C104.659 120.688 102.68 121.767 100.54 122.38C100.824 122.851 100.973 123.391 100.97 123.94C100.925 124.731 100.58 125.474 100.004 126.018C99.4287 126.561 98.667 126.864 97.8753 126.864C97.0836 126.864 96.3218 126.561 95.7464 126.018C95.1709 125.474 94.8252 124.731 94.7803 123.94C94.7866 123.6 94.8474 123.262 94.9603 122.94C92.6128 122.711 90.3504 121.94 88.3503 120.69C86.8956 119.778 85.61 118.621 84.5503 117.27C84.0202 117.931 83.298 118.411 82.4836 118.643C81.6691 118.876 80.8025 118.85 80.0035 118.569C79.2044 118.288 78.5123 117.766 78.0227 117.075C77.5331 116.384 77.2702 115.557 77.2703 114.71V114.67ZM68.2703 90.8404C68.2008 90.0319 68.4543 89.2289 68.9752 88.6068C69.4961 87.9846 70.2422 87.594 71.0503 87.5204C71.7352 87.4641 72.4197 87.6326 73.0003 88.0004C73.0509 86.9255 73.4719 85.9012 74.192 85.1014C74.912 84.3017 75.8866 83.7758 76.9504 83.6131C78.0141 83.4504 79.1014 83.6608 80.0276 84.2087C80.9538 84.7565 81.6618 85.6081 82.0315 86.6187C82.4012 87.6293 82.4097 88.7367 82.0556 89.7529C81.7015 90.7691 81.0066 91.6314 80.0889 92.1934C79.1712 92.7555 78.0873 92.9826 77.0212 92.8362C75.9551 92.6898 74.9725 92.1789 74.2403 91.3904C74.0482 92.0842 73.6178 92.6881 73.0245 93.0958C72.4313 93.5036 71.7132 93.6892 70.9967 93.62C70.2801 93.5507 69.611 93.231 69.1068 92.7171C68.6027 92.2033 68.2958 91.5281 68.2403 90.8104L68.2703 90.8404ZM63.8403 118.91C63.8403 118.452 63.9763 118.003 64.2312 117.621C64.4862 117.24 64.8485 116.943 65.2724 116.767C65.6964 116.591 66.1628 116.545 66.6129 116.635C67.0629 116.724 67.4763 116.945 67.8007 117.27C68.1252 117.594 68.3462 118.008 68.4357 118.458C68.5252 118.908 68.4792 119.374 68.3037 119.798C68.1281 120.222 67.8307 120.584 67.4492 120.839C67.0677 121.094 66.6191 121.23 66.1603 121.23C65.5484 121.225 64.9634 120.978 64.5327 120.544C64.1019 120.109 63.8602 119.522 63.8603 118.91H63.8403ZM59.3503 92.7704C59.2993 92.1679 59.4279 91.5638 59.72 91.0343C60.0121 90.5049 60.4545 90.0738 60.9913 89.7956C61.5281 89.5174 62.1354 89.4044 62.7364 89.471C63.3373 89.5376 63.9051 89.7807 64.368 90.1697C64.8309 90.5588 65.1682 91.0762 65.3373 91.6567C65.5064 92.2373 65.4997 92.8549 65.318 93.4316C65.1364 94.0084 64.788 94.5183 64.3167 94.8972C63.8455 95.2761 63.2725 95.5068 62.6703 95.5604C61.8602 95.6297 61.0558 95.3749 60.4334 94.8519C59.811 94.3288 59.4214 93.5802 59.3503 92.7704Z" fill="#F0F0F0"/>
<path d="M63.8599 118.91C63.8599 119.369 63.9959 119.818 64.2509 120.199C64.5058 120.581 64.8681 120.878 65.292 121.054C65.716 121.229 66.1824 121.275 66.6325 121.186C67.0825 121.096 67.4959 120.875 67.8204 120.551C68.1448 120.226 68.3658 119.813 68.4553 119.363C68.5448 118.913 68.4989 118.446 68.3233 118.023C68.1477 117.599 67.8503 117.236 67.4688 116.981C67.0873 116.726 66.6387 116.59 66.1799 116.59C65.5646 116.59 64.9745 116.835 64.5394 117.27C64.1043 117.705 63.8599 118.295 63.8599 118.91Z" fill="#E6E6E6"/>
<path d="M63.5303 118.91C63.5303 118.383 63.6866 117.869 63.9793 117.431C64.272 116.993 64.688 116.653 65.1747 116.452C65.6613 116.25 66.1967 116.198 66.7129 116.302C67.2292 116.405 67.7031 116.66 68.0747 117.033C68.4463 117.406 68.6989 117.881 68.8004 118.397C68.9019 118.914 68.8478 119.449 68.6449 119.935C68.4421 120.421 68.0996 120.835 67.6608 121.127C67.2221 121.418 66.7068 121.572 66.1803 121.57C65.8314 121.57 65.486 121.501 65.1639 121.367C64.8417 121.234 64.5491 121.037 64.3029 120.79C64.0567 120.543 63.8617 120.25 63.7291 119.927C63.5966 119.605 63.529 119.259 63.5303 118.91ZM64.2003 118.91C64.2003 119.306 64.3176 119.692 64.5374 120.021C64.7571 120.35 65.0695 120.606 65.4349 120.758C65.8004 120.909 66.2025 120.949 66.5905 120.872C66.9784 120.794 67.3348 120.604 67.6145 120.324C67.8942 120.044 68.0847 119.688 68.1619 119.3C68.239 118.912 68.1994 118.51 68.0481 118.145C67.8967 117.779 67.6403 117.467 67.3114 117.247C66.9825 117.027 66.5959 116.91 66.2003 116.91C65.6699 116.91 65.1612 117.121 64.7861 117.496C64.411 117.871 64.2003 118.38 64.2003 118.91Z" fill="#FAFAFA"/>
<path d="M78.21 126.92C78.208 127.627 78.4157 128.318 78.8068 128.906C79.1978 129.495 79.7547 129.954 80.4069 130.226C81.059 130.497 81.7771 130.57 82.4703 130.433C83.1635 130.296 83.8005 129.957 84.3008 129.458C84.8011 128.959 85.1421 128.323 85.2806 127.631C85.4192 126.938 85.3491 126.219 85.0792 125.566C84.8093 124.914 84.3517 124.355 83.7644 123.963C83.1771 123.57 82.4865 123.36 81.78 123.36C80.8349 123.36 79.9283 123.735 79.2591 124.402C78.5899 125.07 78.2126 125.975 78.21 126.92Z" fill="#E6E6E6"/>
<path d="M77.8701 126.93C77.8682 126.157 78.0958 125.4 78.5242 124.755C78.9526 124.111 79.5626 123.608 80.2769 123.311C80.9912 123.013 81.7777 122.934 82.5368 123.084C83.2959 123.234 83.9935 123.606 84.5414 124.152C85.0892 124.698 85.4626 125.395 85.6142 126.154C85.7659 126.913 85.6891 127.699 85.3934 128.414C85.0978 129.129 84.5967 129.741 83.9534 130.171C83.3102 130.601 82.5539 130.83 81.7801 130.83C80.7457 130.828 79.7542 130.416 79.0218 129.686C78.2894 128.955 77.8754 127.965 77.8701 126.93ZM78.5501 126.93C78.5521 127.569 78.7432 128.192 79.0993 128.722C79.4554 129.252 79.9606 129.664 80.551 129.907C81.1413 130.15 81.7905 130.213 82.4164 130.087C83.0423 129.961 83.6169 129.653 84.0676 129.201C84.5183 128.749 84.825 128.173 84.9488 127.547C85.0726 126.92 85.008 126.272 84.7633 125.682C84.5185 125.092 84.1045 124.588 83.5736 124.234C83.0426 123.879 82.4185 123.69 81.7801 123.69C81.3551 123.69 80.9343 123.774 80.5417 123.937C80.1492 124.1 79.7927 124.339 79.4926 124.64C79.1926 124.941 78.9549 125.298 78.7931 125.691C78.6314 126.084 78.5488 126.505 78.5501 126.93Z" fill="#FAFAFA"/>
<path d="M87.44 90.26C88.2169 90.7529 89.1225 91.0043 90.0423 90.9823C90.9621 90.9603 91.8547 90.6659 92.6072 90.1364C93.3596 89.6069 93.938 88.8661 94.2693 88.0078C94.6006 87.1494 94.6697 86.2121 94.4681 85.3144C94.2664 84.4167 93.803 83.599 93.1364 82.9648C92.4698 82.3306 91.6301 81.9084 90.7235 81.7516C89.8169 81.5948 88.8842 81.7105 88.0433 82.084C87.2025 82.4576 86.4914 83.0721 86 83.85C85.6729 84.3652 85.4507 84.9399 85.3461 85.5411C85.2414 86.1423 85.2564 86.7583 85.3902 87.3537C85.5239 87.9491 85.7738 88.5123 86.1256 89.011C86.4773 89.5097 86.924 89.9342 87.44 90.26Z" fill="#E6E6E6"/>
<path d="M87.2602 90.54C86.2804 89.9249 85.5441 88.9891 85.1769 87.892C84.8098 86.7949 84.8344 85.6044 85.2467 84.5235C85.6589 83.4425 86.4333 82.5379 87.4378 81.964C88.4423 81.39 89.6147 81.1821 90.7553 81.3757C91.8959 81.5693 92.934 82.1525 93.6928 83.0258C94.4516 83.8991 94.8841 85.0086 94.9165 86.165C94.9489 87.3215 94.5793 88.4534 93.8707 89.3679C93.162 90.2823 92.1582 90.9228 91.0302 91.18C90.6633 91.267 90.2874 91.3106 89.9102 91.31C88.9721 91.307 88.0538 91.0402 87.2602 90.54ZM86.2602 84.02C85.9489 84.5013 85.7369 85.0399 85.6367 85.6043C85.5365 86.1687 85.5502 86.7474 85.6769 87.3064C85.8036 87.8654 86.0408 88.3934 86.3745 88.8594C86.7082 89.3255 87.1318 89.7201 87.6202 90.02C88.0997 90.3239 88.6347 90.5299 89.1942 90.626C89.7537 90.7221 90.3268 90.7065 90.8802 90.58C91.5644 90.4146 92.1978 90.0844 92.7253 89.6183C93.2528 89.1522 93.6584 88.5643 93.9068 87.9057C94.1553 87.247 94.239 86.5377 94.1507 85.8393C94.0624 85.141 93.8049 84.4747 93.4004 83.8986C92.9959 83.3225 92.4567 82.854 91.8298 82.5338C91.203 82.2136 90.5073 82.0515 89.8035 82.0615C89.0996 82.0715 88.4089 82.2533 87.7914 82.5912C87.1738 82.929 86.6482 83.4127 86.2602 84V84.02Z" fill="#FAFAFA"/>
<path d="M68.29 90.8403C68.3456 91.558 68.6525 92.2332 69.1566 92.7471C69.6608 93.2609 70.3299 93.5806 71.0465 93.6499C71.763 93.7191 72.481 93.5336 73.0743 93.1258C73.6675 92.718 74.098 92.1141 74.29 91.4203C75.0317 92.1934 76.0175 92.6867 77.0809 92.8168C78.1443 92.947 79.22 92.7059 80.1262 92.1344C81.0323 91.563 81.7134 90.6961 82.0542 89.6804C82.395 88.6648 82.3746 87.5626 81.9965 86.5602C81.6184 85.5578 80.9058 84.7167 79.9791 84.1791C79.0524 83.6415 77.9686 83.4404 76.9107 83.6097C75.8528 83.7791 74.8859 84.3085 74.1734 85.1085C73.4608 85.9085 73.0463 86.93 73 88.0003C72.4093 87.6112 71.705 87.4316 71 87.4903C70.1989 87.581 69.4657 87.9832 68.9586 88.61C68.4515 89.2368 68.2114 90.0379 68.29 90.8403Z" fill="#E6E6E6"/>
<path d="M69.15 93.18C68.4614 92.599 68.0307 91.7691 67.952 90.8716C67.8733 89.9741 68.153 89.0819 68.73 88.39C69.2069 87.8237 69.8562 87.4292 70.5785 87.2667C71.3008 87.1042 72.0564 87.1826 72.73 87.49C72.8704 86.5612 73.2695 85.6908 73.8817 84.9785C74.4939 84.2661 75.2943 83.7406 76.1914 83.4621C77.0884 83.1836 78.0458 83.1635 78.9537 83.4039C79.8617 83.6444 80.6836 84.1357 81.3253 84.8216C81.9669 85.5076 82.4024 86.3604 82.5818 87.2824C82.7611 88.2043 82.6772 89.1582 82.3396 90.0347C82.0019 90.9112 81.4242 91.6748 80.6726 92.2382C79.921 92.8015 79.026 93.1418 78.09 93.22C77.4241 93.2813 76.7527 93.2066 76.1166 93.0003C75.4805 92.794 74.8931 92.4604 74.39 92.02C74.1431 92.5624 73.7583 93.0307 73.274 93.3781C72.7898 93.7255 72.2229 93.9399 71.63 94H71.33C70.5288 93.9953 69.7556 93.7045 69.15 93.18ZM74.53 91.18C74.9739 91.6632 75.5234 92.0374 76.1357 92.2733C76.748 92.5092 77.4066 92.6004 78.06 92.54C79.1999 92.4432 80.2549 91.8982 80.9935 91.0246C81.7321 90.151 82.0941 89.0201 82 87.88C81.8859 86.7481 81.3311 85.7066 80.4553 84.9806C79.5796 84.2545 78.4533 83.9023 77.32 84C76.278 84.0926 75.3045 84.5584 74.5787 85.3118C73.853 86.0651 73.4237 87.0553 73.37 88.1C73.3697 88.1589 73.3526 88.2166 73.3207 88.2662C73.2888 88.3158 73.2435 88.3552 73.19 88.38C73.139 88.4119 73.0801 88.4288 73.02 88.4288C72.9598 88.4288 72.9009 88.4119 72.85 88.38C72.292 88.008 71.6167 87.8544 70.9527 87.9484C70.2887 88.0425 69.6826 88.3776 69.25 88.89C69.0183 89.1653 68.8434 89.4838 68.7353 89.8271C68.6272 90.1703 68.588 90.5315 68.62 90.89C68.6522 91.2501 68.7574 91.5999 68.9294 91.918C69.1013 92.2361 69.3363 92.5157 69.62 92.74C69.9733 93.0321 70.3945 93.2306 70.8447 93.317C71.295 93.4035 71.7598 93.3752 72.1962 93.2347C72.6326 93.0942 73.0266 92.8461 73.3418 92.5132C73.6571 92.1803 73.8834 91.7734 74 91.33C74.0128 91.2722 74.0425 91.2196 74.0852 91.1787C74.1279 91.1378 74.1817 91.1104 74.24 91.1H74.32C74.3981 91.1056 74.472 91.1373 74.53 91.19V91.18Z" fill="#FAFAFA"/>
<path d="M59.3502 92.7703C59.4038 93.3726 59.6345 93.9456 60.0134 94.4168C60.3923 94.888 60.9023 95.2365 61.479 95.4181C62.0557 95.5998 62.6733 95.6065 63.2539 95.4374C63.8344 95.2683 64.3519 94.931 64.7409 94.4681C65.1299 94.0052 65.373 93.4374 65.4396 92.8365C65.5062 92.2355 65.3932 91.6282 65.115 91.0914C64.8368 90.5546 64.4057 90.1122 63.8763 89.8201C63.3468 89.528 62.7427 89.3994 62.1402 89.4503C61.3314 89.5241 60.5844 89.9143 60.0619 90.5361C59.5394 91.1579 59.2836 91.9609 59.3502 92.7703Z" fill="#E6E6E6"/>
<path d="M58.9998 92.8004C58.941 92.1303 59.0823 91.4579 59.4057 90.8681C59.7292 90.2783 60.2203 89.7977 60.8169 89.4872C61.4136 89.1766 62.0889 89.05 62.7576 89.1233C63.4262 89.1967 64.058 89.4667 64.5732 89.8992C65.0883 90.3318 65.4636 90.9074 65.6515 91.5532C65.8394 92.1991 65.8315 92.8862 65.6288 93.5276C65.4261 94.1689 65.0377 94.7358 64.5128 95.1564C63.9879 95.577 63.35 95.8324 62.6798 95.8904H62.3998C61.55 95.8916 60.7303 95.5755 60.1014 95.0039C59.4724 94.4323 59.0796 93.6465 58.9998 92.8004ZM62.1598 89.8004C61.4464 89.8305 60.7731 90.1389 60.2844 90.6595C59.7957 91.1801 59.5304 91.8715 59.5455 92.5855C59.5605 93.2994 59.8547 93.979 60.3649 94.4786C60.8751 94.9782 61.5608 95.258 62.2748 95.258C62.9889 95.258 63.6746 94.9782 64.1848 94.4786C64.695 93.979 64.9892 93.2994 65.0042 92.5855C65.0193 91.8715 64.754 91.1801 64.2653 90.6595C63.7766 90.1389 63.1033 89.8305 62.3898 89.8004H62.1598Z" fill="#FAFAFA"/>
<path d="M65.1999 114.11C65.2325 114.12 65.2672 114.12 65.2999 114.11C65.3414 114.097 65.3798 114.075 65.4129 114.046C65.446 114.018 65.4731 113.983 65.4926 113.944C65.5121 113.905 65.5237 113.862 65.5267 113.819C65.5296 113.775 65.5239 113.731 65.5099 113.69C63.6499 108.22 65.1099 97.2501 65.1199 97.1401C65.1315 97.0528 65.1088 96.9645 65.0565 96.8936C65.0043 96.8227 64.9266 96.7749 64.8399 96.7601C64.7511 96.7487 64.6614 96.7728 64.5903 96.827C64.5192 96.8813 64.4723 96.9615 64.4599 97.0501C64.3999 97.5101 62.9599 108.29 64.8799 113.9C64.9048 113.964 64.949 114.019 65.0063 114.056C65.0637 114.094 65.1313 114.113 65.1999 114.11Z" fill="#FAFAFA"/>
<path d="M61.42 117.15C61.4716 117.149 61.5223 117.136 61.5688 117.114C61.6153 117.092 61.6566 117.06 61.69 117.02C61.7414 116.947 61.7637 116.858 61.7527 116.769C61.7416 116.68 61.6979 116.599 61.63 116.54C59.0683 114.497 57.217 111.697 56.34 108.54C56.3275 108.498 56.3066 108.458 56.2785 108.424C56.2505 108.39 56.2158 108.362 56.1766 108.341C56.1374 108.321 56.0945 108.308 56.0505 108.305C56.0064 108.301 55.962 108.306 55.92 108.32C55.834 108.346 55.7616 108.404 55.7185 108.483C55.6755 108.562 55.6652 108.654 55.69 108.74C56.6068 112.037 58.5381 114.962 61.21 117.1C61.2735 117.138 61.3466 117.155 61.42 117.15Z" fill="#FAFAFA"/>
<path d="M75.77 121.86C75.8602 121.86 75.9467 121.825 76.0104 121.761C76.0742 121.697 76.11 121.611 76.11 121.52C76.11 121.43 76.0742 121.344 76.0104 121.28C75.9467 121.216 75.8602 121.18 75.77 121.18C74.1495 121.122 72.5431 120.857 70.99 120.39C70.9104 120.379 70.8295 120.397 70.7617 120.44C70.6938 120.483 70.6435 120.549 70.6195 120.626C70.5955 120.703 70.5995 120.785 70.6307 120.859C70.6619 120.933 70.7184 120.994 70.79 121.03C72.4149 121.517 74.095 121.796 75.79 121.86H75.77Z" fill="#FAFAFA"/>
<path d="M63.74 127.68C63.8145 127.679 63.8866 127.654 63.9459 127.609C64.0053 127.564 64.0487 127.501 64.07 127.43L65.21 123.23C65.2296 123.185 65.2392 123.136 65.2382 123.087C65.2372 123.038 65.2256 122.99 65.2041 122.946C65.1827 122.902 65.1519 122.863 65.114 122.832C65.076 122.8 65.0318 122.778 64.9843 122.765C64.9368 122.753 64.8872 122.751 64.8389 122.76C64.7905 122.768 64.7446 122.787 64.7043 122.815C64.664 122.843 64.6302 122.88 64.6053 122.922C64.5804 122.964 64.565 123.011 64.56 123.06L63.42 127.25C63.3952 127.336 63.4054 127.429 63.4485 127.507C63.4916 127.586 63.564 127.645 63.65 127.67L63.74 127.68Z" fill="#FAFAFA"/>
<path d="M56.5599 121.9C58.2743 121.797 59.9506 121.352 61.4899 120.59C61.559 120.543 61.6085 120.473 61.6291 120.392C61.6497 120.312 61.64 120.226 61.6017 120.152C61.5635 120.078 61.4994 120.021 61.4217 119.991C61.3439 119.961 61.2579 119.961 61.1799 119.99C59.7238 120.715 58.1343 121.134 56.5099 121.22C56.4197 121.22 56.3333 121.256 56.2695 121.32C56.2057 121.383 56.1699 121.47 56.1699 121.56C56.1699 121.65 56.2057 121.737 56.2695 121.8C56.3333 121.864 56.4197 121.9 56.5099 121.9H56.5599Z" fill="#FAFAFA"/>
<path d="M69.3403 115.5C69.4046 115.501 69.4679 115.484 69.5228 115.45C69.5777 115.416 69.6219 115.368 69.6503 115.31C70.9703 112.47 75.8503 102.83 75.9003 102.73C75.9207 102.691 75.933 102.648 75.9365 102.604C75.9401 102.56 75.9346 102.515 75.9206 102.473C75.9067 102.431 75.8844 102.392 75.8551 102.359C75.8258 102.326 75.7902 102.299 75.7503 102.28C75.6705 102.241 75.5788 102.236 75.4948 102.264C75.4107 102.292 75.3409 102.351 75.3003 102.43C75.3003 102.52 70.3603 112.18 69.0403 115.02C69.0024 115.101 68.998 115.194 69.0279 115.278C69.0579 115.362 69.1198 115.431 69.2003 115.47L69.3403 115.5Z" fill="#FAFAFA"/>
<path d="M75.7 130.74C75.7593 130.741 75.8179 130.726 75.8691 130.696C75.9203 130.666 75.9621 130.623 75.99 130.57C76.0332 130.492 76.0438 130.4 76.0194 130.313C75.9951 130.227 75.9378 130.154 75.86 130.11C72.8234 128.318 70.3044 125.768 68.55 122.71C68.4998 122.664 68.4366 122.635 68.3691 122.626C68.3015 122.617 68.2329 122.629 68.1727 122.661C68.1124 122.693 68.0635 122.743 68.0325 122.803C68.0016 122.864 67.9902 122.933 68 123C69.814 126.165 72.4191 128.805 75.56 130.66C75.6023 130.694 75.6495 130.721 75.7 130.74Z" fill="#FAFAFA"/>
<path d="M77.2702 114.67C77.2702 115.517 77.5331 116.343 78.0227 117.035C78.5122 117.726 79.2044 118.248 80.0034 118.529C80.8025 118.81 81.6691 118.836 82.4835 118.603C83.298 118.371 84.0201 117.891 84.5502 117.23C85.61 118.581 86.8956 119.738 88.3502 120.65C90.3622 121.906 92.639 122.677 95.0002 122.9C94.8873 123.222 94.8266 123.559 94.8202 123.9C94.8652 124.691 95.2108 125.434 95.7863 125.978C96.3618 126.521 97.1235 126.824 97.9152 126.824C98.7069 126.824 99.4686 126.521 100.044 125.978C100.62 125.434 100.965 124.691 101.01 123.9C101.012 123.351 100.864 122.811 100.58 122.34C102.72 121.727 104.699 120.648 106.373 119.181C108.047 117.713 109.376 115.894 110.265 113.852C111.154 111.811 111.58 109.599 111.514 107.373C111.447 105.148 110.889 102.965 109.88 100.98C110.691 100.479 111.373 99.7929 111.869 98.9785C112.365 98.1641 112.662 97.244 112.736 96.2932C112.809 95.3424 112.657 94.3876 112.292 93.5066C111.927 92.6255 111.36 91.843 110.635 91.2227C109.911 90.6024 109.05 90.1618 108.124 89.9368C107.197 89.7117 106.23 89.7086 105.302 89.9276C104.374 90.1466 103.51 90.5816 102.782 91.1972C102.054 91.8127 101.481 92.5915 101.11 93.4702C98.624 92.6576 95.9693 92.5051 93.4064 93.0278C90.8436 93.5504 88.4605 94.7303 86.4911 96.4516C84.5217 98.173 83.0336 100.377 82.1727 102.847C81.3117 105.316 81.1076 107.968 81.5802 110.54H81.4002C80.8564 110.535 80.3169 110.638 79.8134 110.844C79.3099 111.049 78.8525 111.353 78.468 111.738C78.0834 112.123 77.7794 112.58 77.5737 113.083C77.368 113.587 77.2649 114.126 77.2702 114.67ZM77.2702 114.67C77.2702 115.517 77.5331 116.343 78.0227 117.035C78.5122 117.726 79.2044 118.248 80.0034 118.529C80.8025 118.81 81.6691 118.836 82.4835 118.603C83.298 118.371 84.0201 117.891 84.5502 117.23C85.61 118.581 86.8956 119.738 88.3502 120.65C90.3622 121.906 92.639 122.677 95.0002 122.9C94.8873 123.222 94.8266 123.559 94.8202 123.9C94.8652 124.691 95.2108 125.434 95.7863 125.978C96.3618 126.521 97.1235 126.824 97.9152 126.824C98.7069 126.824 99.4686 126.521 100.044 125.978C100.62 125.434 100.965 124.691 101.01 123.9C101.012 123.351 100.864 122.811 100.58 122.34C102.72 121.727 104.699 120.648 106.373 119.181C108.047 117.713 109.376 115.894 110.265 113.852C111.154 111.811 111.58 109.599 111.514 107.373C111.447 105.148 110.889 102.965 109.88 100.98C110.691 100.479 111.373 99.7929 111.869 98.9785C112.365 98.1641 112.662 97.244 112.736 96.2932C112.809 95.3424 112.657 94.3876 112.292 93.5066C111.927 92.6255 111.36 91.843 110.635 91.2227C109.911 90.6024 109.05 90.1618 108.124 89.9368C107.197 89.7117 106.23 89.7086 105.302 89.9276C104.374 90.1466 103.51 90.5816 102.782 91.1972C102.054 91.8127 101.481 92.5915 101.11 93.4702C98.624 92.6576 95.9693 92.5051 93.4064 93.0278C90.8436 93.5504 88.4605 94.7303 86.4911 96.4516C84.5217 98.173 83.0336 100.377 82.1727 102.847C81.3117 105.316 81.1076 107.968 81.5802 110.54H81.4002C80.8564 110.535 80.3169 110.638 79.8134 110.844C79.3099 111.049 78.8525 111.353 78.468 111.738C78.0834 112.123 77.7794 112.58 77.5737 113.083C77.368 113.587 77.2649 114.126 77.2702 114.67Z" fill="#E6E6E6"/>
<path d="M63.7102 82.4703C64.3102 84.9703 67.4701 84.3403 70.2701 82.8103C72.4401 81.6303 74.7302 79.5603 74.2102 77.2303C75.2958 77.6734 76.5072 77.6983 77.6102 77.3003C79.6802 76.6103 80.9802 74.8803 80.5002 73.4303C80.0202 71.9803 78.0002 71.3703 75.8702 72.0603C73.7402 72.7503 72.6702 74.2603 72.8702 75.6403C71.3402 75.0403 68.8701 75.8303 67.3101 76.8803C64.4701 78.8303 63.3402 81.0003 63.7102 82.4703Z" fill="#E6E6E6"/>
<path d="M64.7201 84.2403C64.3785 84.0854 64.0788 83.8512 63.8457 83.5573C63.6127 83.2634 63.4531 82.9182 63.3801 82.5503C62.9501 80.7603 64.3801 78.4803 67.1501 76.5503C68.7184 75.4461 70.6313 74.9422 72.5401 75.1303C72.6101 73.7203 73.9001 72.3003 75.7601 71.6903C76.7636 71.3336 77.8521 71.2917 78.8801 71.5703C79.3181 71.676 79.7238 71.887 80.0619 72.185C80.3999 72.483 80.6602 72.859 80.8201 73.2803C81.3501 74.9003 79.9601 76.8203 77.7101 77.5703C76.7149 77.9166 75.6391 77.9584 74.6201 77.6903C74.7601 80.4503 71.5001 82.4703 70.4401 83.0503C69.0901 83.8644 67.5709 84.3571 66.0001 84.4903C65.5608 84.4957 65.125 84.4106 64.7201 84.2403ZM74.3501 76.9203C75.3532 77.3397 76.477 77.3682 77.5001 77.0003C79.4001 76.3703 80.6001 74.8303 80.1801 73.5603C80.0528 73.244 79.8508 72.9632 79.5913 72.742C79.3318 72.5209 79.0226 72.3659 78.6901 72.2903C77.7929 72.0536 76.8452 72.0919 75.9701 72.4003C74.2301 72.9703 73.0301 74.4003 73.2401 75.6003C73.2491 75.6595 73.2428 75.7199 73.2218 75.776C73.2008 75.832 73.1658 75.8817 73.1201 75.9203C73.0687 75.9512 73.01 75.9675 72.9501 75.9675C72.8902 75.9675 72.8314 75.9512 72.7801 75.9203C71.4001 75.3903 69.0201 76.1103 67.5301 77.1303C64.5301 79.1303 63.7501 81.1303 64.0301 82.3603C64.0835 82.6315 64.2026 82.8854 64.3769 83.0998C64.5512 83.3143 64.7755 83.4827 65.0301 83.5903C66.1001 84.0703 68.0301 83.6503 70.1501 82.4803C71.1501 81.9203 74.5001 79.8803 73.9201 77.2703C73.9127 77.2222 73.916 77.173 73.9298 77.1263C73.9437 77.0797 73.9676 77.0366 74.0001 77.0003C74.0581 76.9491 74.1327 76.9207 74.2101 76.9203C74.2562 76.91 74.304 76.91 74.3501 76.9203Z" fill="#FAFAFA"/>
<path d="M94.4502 123.94C94.446 123.688 94.4729 123.436 94.5302 123.19C92.274 122.909 90.1066 122.138 88.1802 120.93C86.802 120.071 85.5698 118.998 84.5302 117.75C84.1202 118.177 83.6279 118.517 83.0832 118.749C82.5384 118.981 81.9523 119.1 81.3602 119.1C80.2165 119.082 79.124 118.623 78.3115 117.817C77.4989 117.012 77.0293 115.924 77.0009 114.781C76.9725 113.637 77.3874 112.527 78.159 111.683C78.9305 110.838 79.9988 110.325 81.1402 110.25C81.0124 109.456 80.9488 108.654 80.9502 107.85C80.9512 105.438 81.5174 103.061 82.6035 100.907C83.6895 98.7541 85.2652 96.8854 87.204 95.4513C89.1428 94.0171 91.3908 93.0573 93.7677 92.649C96.1445 92.2407 98.5839 92.3951 100.89 93.1C101.305 92.2041 101.922 91.4164 102.692 90.7984C103.462 90.1805 104.365 89.7491 105.329 89.5381C106.294 89.327 107.294 89.342 108.252 89.5818C109.21 89.8217 110.099 90.2799 110.85 90.9207C111.602 91.5614 112.195 92.3672 112.583 93.2752C112.971 94.1832 113.143 95.1686 113.087 96.1544C113.031 97.1402 112.747 98.0996 112.259 98.9575C111.77 99.8155 111.089 100.549 110.27 101.1C111.242 103.097 111.772 105.281 111.822 107.501C111.873 109.722 111.443 111.927 110.563 113.967C109.683 116.006 108.373 117.832 106.723 119.318C105.072 120.805 103.12 121.917 101 122.58C101.18 123.011 101.272 123.473 101.27 123.94C101.295 124.405 101.225 124.871 101.065 125.308C100.904 125.746 100.656 126.146 100.335 126.484C100.015 126.822 99.6286 127.092 99.2005 127.276C98.7724 127.46 98.3112 127.555 97.8452 127.555C97.3792 127.555 96.918 127.46 96.4899 127.276C96.0618 127.092 95.6757 126.822 95.3552 126.484C95.0347 126.146 94.7865 125.746 94.6257 125.308C94.465 124.871 94.395 124.405 94.4202 123.94H94.4502ZM100.25 122.55L100.03 122.17L100.45 122.05C102.539 121.446 104.469 120.388 106.103 118.953C107.736 117.518 109.033 115.74 109.901 113.746C110.77 111.752 111.187 109.591 111.125 107.418C111.062 105.244 110.521 103.111 109.54 101.17L109.4 100.9L109.66 100.73C110.425 100.256 111.068 99.6088 111.535 98.8401C112.003 98.0714 112.283 97.2032 112.352 96.306C112.421 95.4089 112.278 94.508 111.933 93.6768C111.589 92.8455 111.053 92.1073 110.369 91.522C109.686 90.9368 108.874 90.521 108 90.3085C107.125 90.0961 106.213 90.0929 105.337 90.2993C104.461 90.5056 103.646 90.9157 102.959 91.4962C102.271 92.0767 101.73 92.8112 101.38 93.64L101.26 93.93L100.96 93.83C98.7468 93.1076 96.3939 92.9189 94.0937 93.2796C91.7935 93.6403 89.6113 94.54 87.7252 95.9053C85.8392 97.2706 84.3029 99.0626 83.2419 101.135C82.1809 103.208 81.6252 105.502 81.6202 107.83C81.6191 108.726 81.7028 109.62 81.8702 110.5L81.9402 110.9H81.3602C80.3978 110.95 79.4913 111.367 78.8276 112.066C78.164 112.764 77.794 113.691 77.794 114.655C77.794 115.619 78.164 116.546 78.8276 117.244C79.4913 117.943 80.3978 118.36 81.3602 118.41C81.921 118.412 82.4749 118.287 82.9805 118.044C83.4862 117.802 83.9305 117.448 84.2802 117.01L84.5502 116.68L84.8102 117.02C86.0486 118.582 87.5894 119.877 89.3403 120.829C91.0912 121.781 93.0163 122.37 95.0002 122.56H95.4402L95.2902 122.97C95.1861 123.269 95.132 123.583 95.1302 123.9C95.1075 124.276 95.162 124.652 95.2902 125.006C95.4184 125.36 95.6177 125.684 95.8757 125.958C96.1338 126.232 96.4452 126.451 96.7907 126.6C97.1363 126.749 97.5088 126.826 97.8852 126.826C98.2616 126.826 98.6341 126.749 98.9797 126.6C99.3252 126.451 99.6366 126.232 99.8947 125.958C100.153 125.684 100.352 125.36 100.48 125.006C100.608 124.652 100.663 124.276 100.64 123.9C100.634 123.423 100.499 122.957 100.25 122.55Z" fill="#FAFAFA"/>
<path d="M95.2601 108.57C94.9804 108.463 94.7282 108.295 94.5222 108.078C94.3162 107.86 94.1616 107.6 94.0699 107.315C93.9781 107.03 93.9515 106.728 93.992 106.431C94.0326 106.134 94.1392 105.85 94.304 105.601C94.4689 105.351 94.6878 105.141 94.9445 104.987C95.2012 104.833 95.4893 104.738 95.7874 104.71C96.0855 104.682 96.3861 104.722 96.6669 104.826C96.9478 104.929 97.2018 105.095 97.4101 105.31C97.7327 105.522 97.9851 105.825 98.1354 106.181C98.2856 106.536 98.327 106.928 98.2541 107.307C98.1813 107.687 97.9976 108.036 97.7263 108.31C97.455 108.585 97.1083 108.773 96.7301 108.85C96.5972 108.865 96.463 108.865 96.3301 108.85C95.9538 108.863 95.582 108.765 95.2601 108.57Z" fill="#F0F0F0"/>
<path d="M244.76 212.29C244.711 212.335 244.668 212.386 244.63 212.44H244.46L244.76 212.29Z" fill="#263238"/>
<path d="M262.43 226.59C262.43 226.59 262.37 226.59 262.36 226.59C262.36 226.59 262.42 226.56 262.43 226.59Z" fill="#263238"/>
<path d="M348.88 170.64C378.422 170.64 402.37 146.691 402.37 117.15C402.37 87.608 378.422 63.6597 348.88 63.6597C319.338 63.6597 295.39 87.608 295.39 117.15C295.39 146.691 319.338 170.64 348.88 170.64Z" fill="#FF0035" fill-opacity="0.9"/>
<path d="M355.468 123.447C358.948 119.968 358.948 114.326 355.468 110.847C351.989 107.367 346.347 107.367 342.868 110.847C339.388 114.326 339.388 119.968 342.868 123.447C346.347 126.927 351.989 126.927 355.468 123.447Z" fill="white"/>
<path opacity="0.5" d="M348.88 63.6597C338.301 63.6616 327.96 66.8005 319.165 72.6792C310.37 78.558 303.516 86.9127 299.469 96.6869C295.422 106.461 294.364 117.216 296.429 127.591C298.494 137.967 303.589 147.497 311.07 154.976C318.551 162.456 328.082 167.549 338.458 169.613C348.834 171.676 359.589 170.616 369.362 166.567C379.135 162.518 387.489 155.662 393.366 146.866C399.243 138.07 402.38 127.729 402.38 117.15C402.38 110.124 400.996 103.168 398.307 96.6776C395.619 90.1873 391.678 84.2901 386.71 79.323C381.741 74.3559 375.844 70.416 369.353 67.7285C362.862 65.0409 355.905 63.6584 348.88 63.6597ZM355.69 123.66C346.16 130.93 335.37 120.14 342.64 110.66C352.17 103.35 363 114.14 355.69 123.67V123.66Z" fill="white"/>
<path d="M122.476 223.66C125.709 220.426 125.709 215.183 122.476 211.95C119.242 208.716 114 208.716 110.766 211.95C107.532 215.183 107.532 220.426 110.766 223.66C114 226.893 119.242 226.893 122.476 223.66Z" fill="#FF0035"/>
<path opacity="0.4" d="M122.476 223.66C125.709 220.426 125.709 215.183 122.476 211.95C119.242 208.716 114 208.716 110.766 211.95C107.532 215.183 107.532 220.426 110.766 223.66C114 226.893 119.242 226.893 122.476 223.66Z" fill="white"/>
<path d="M429.79 335.72C430.16 335.72 430.46 335.42 430.46 335.05C430.46 334.68 430.16 334.38 429.79 334.38C429.42 334.38 429.12 334.68 429.12 335.05C429.12 335.42 429.42 335.72 429.79 335.72Z" fill="#E0E0E0"/>
<path d="M389.87 75.3096C383.991 69.6183 377.007 65.1937 369.35 62.3096L369.7 61.3696C377.478 64.2985 384.579 68.7794 390.57 74.5396L389.87 75.3096Z" fill="#FF0035"/>
<path d="M364.63 60.8299C363.68 60.5599 362.7 60.3199 361.73 60.1099L361.94 59.1099C362.94 59.3299 363.94 59.5799 364.94 59.8399L364.63 60.8299Z" fill="#FF0035"/>
<path d="M97.6899 300.13C96.2056 296.857 93.7653 294.109 90.6899 292.25L91.2099 291.39C94.4548 293.356 97.0305 296.255 98.5999 299.71L97.6899 300.13Z" fill="#FF0035"/>
<path d="M87.62 290.79C86.6194 290.425 85.5888 290.147 84.54 289.96L84.72 288.96C85.8229 289.157 86.9069 289.448 87.96 289.83L87.62 290.79Z" fill="#FF0035"/>
<path d="M48.9998 402.48L48.5898 401.57C62.9198 393.85 76.3898 391.36 91.3198 387.23L91.5898 388.23C76.7298 392.31 64.6198 394.68 48.9998 402.48Z" fill="#FF0035"/>
<path d="M38.6899 408.14L38.1699 407.28C39.6999 406.36 41.2599 405.46 42.8099 404.6L43.2899 405.48C41.7599 406.33 40.2099 407.22 38.6899 408.14Z" fill="#FF0035"/>
<path d="M80.2597 326.53C76.8317 326.53 73.4807 325.513 70.6306 323.608C67.7805 321.704 65.5593 318.996 64.2479 315.829C62.9365 312.662 62.5939 309.177 63.2634 305.815C63.9329 302.453 65.5844 299.365 68.0091 296.942C70.4337 294.519 73.5226 292.869 76.8849 292.201C80.2473 291.534 83.7321 291.878 86.8985 293.192C90.065 294.505 92.7709 296.728 94.6739 299.579C96.577 302.43 97.5917 305.782 97.5897 309.21C97.5844 313.803 95.7565 318.207 92.5074 321.454C89.2583 324.702 84.8534 326.527 80.2597 326.53ZM80.2597 293.38C77.1288 293.38 74.0682 294.308 71.465 296.047C68.8618 297.787 66.8328 300.259 65.6347 303.152C64.4365 306.044 64.1231 309.227 64.7339 312.298C65.3447 315.369 66.8523 318.189 69.0662 320.403C71.2801 322.617 74.1007 324.125 77.1714 324.735C80.2421 325.346 83.425 325.033 86.3176 323.835C89.2101 322.637 91.6824 320.608 93.4219 318.004C95.1613 315.401 96.0897 312.34 96.0897 309.21C96.087 305.012 94.4184 300.987 91.4503 298.019C88.4821 295.051 84.4573 293.382 80.2597 293.38Z" fill="#FF0035"/>
<path d="M410.8 242.88C406.053 242.88 401.413 241.472 397.466 238.835C393.519 236.198 390.443 232.45 388.627 228.064C386.81 223.679 386.335 218.853 387.261 214.198C388.187 209.542 390.473 205.266 393.829 201.909C397.186 198.553 401.462 196.267 406.118 195.341C410.773 194.415 415.599 194.89 419.984 196.707C424.37 198.523 428.118 201.599 430.755 205.546C433.392 209.493 434.8 214.133 434.8 218.88C434.8 225.245 432.271 231.35 427.77 235.85C423.27 240.351 417.165 242.88 410.8 242.88ZM410.8 196.43C406.354 196.43 402.007 197.748 398.311 200.218C394.614 202.689 391.732 206.199 390.031 210.307C388.33 214.415 387.884 218.935 388.752 223.296C389.619 227.656 391.76 231.662 394.904 234.806C398.048 237.95 402.054 240.091 406.414 240.958C410.775 241.825 415.295 241.38 419.403 239.679C423.51 237.977 427.021 235.096 429.491 231.399C431.961 227.702 433.28 223.356 433.28 218.91C433.275 212.949 430.904 207.235 426.69 203.02C422.475 198.805 416.76 196.435 410.8 196.43Z" fill="#FF0035"/>
<path d="M250.3 469.14C194.12 469.14 141.3 464.66 101.55 456.53C61.4699 448.34 39.3999 437.29 39.3999 425.41C39.3999 413.53 61.4699 402.49 101.55 394.29C141.29 386.16 194.12 381.69 250.3 381.69C306.48 381.69 359.3 386.16 399.06 394.29C439.14 402.49 461.21 413.54 461.21 425.41C461.21 437.28 439.14 448.34 399.06 456.53C359.31 464.66 306.49 469.14 250.3 469.14ZM250.3 383.19C194.22 383.19 141.49 387.65 101.85 395.76C63.1099 403.68 40.8999 414.49 40.8999 425.41C40.8999 436.33 63.1099 447.14 101.9 455.07C141.54 463.17 194.27 467.64 250.35 467.64C306.43 467.64 359.16 463.17 398.8 455.07C437.54 447.14 459.8 436.34 459.8 425.41C459.8 414.48 437.58 403.68 398.8 395.76C359.11 387.65 306.39 383.19 250.3 383.19Z" fill="#FF0035"/>
<path d="M276.861 95.4566C278.546 101.384 279.298 107.537 279.088 113.695C278.58 123.075 280.626 125.707 280.626 125.707C280.626 125.707 267.598 128.403 259.312 122.033C251.027 115.662 256.889 98.1273 256.889 98.1273L263.755 90.7275L276.861 95.4566Z" fill="#263238"/>
<path opacity="0.4" d="M276.861 95.4566C278.546 101.384 279.298 107.537 279.088 113.695C278.58 123.075 280.626 125.707 280.626 125.707C280.626 125.707 267.598 128.403 259.312 122.033C251.027 115.662 256.889 98.1273 256.889 98.1273L263.755 90.7275L276.861 95.4566Z" fill="black"/>
<path d="M275.402 266.275L210.72 427.322L203.072 423.883C203.072 423.883 216.79 361.611 228.893 334.631C229.297 333.719 229.714 332.846 230.118 332.025C232.103 328.029 233.457 323.748 234.13 319.336C234.234 318.607 234.352 317.838 234.482 317.03C236.658 302.765 241.347 276.488 247.9 264.138L275.402 266.275Z" fill="#FFB573"/>
<path opacity="0.1" d="M275.402 266.275L210.72 427.322L203.072 423.883C203.072 423.883 216.79 361.611 228.893 334.631C229.297 333.719 229.714 332.846 230.118 332.025C232.103 328.029 233.457 323.748 234.13 319.336C234.234 318.607 234.352 317.838 234.482 317.03C236.658 302.765 241.347 276.488 247.9 264.138L275.402 266.275Z" fill="black"/>
<path opacity="0.1" d="M242.546 278.417H270.399L275.402 266.275L247.952 264.165C245.698 268.731 243.887 273.504 242.546 278.417Z" fill="black"/>
<path d="M211.957 424.105L202.616 420.483C202.419 420.402 202.199 420.391 201.995 420.453C201.791 420.514 201.615 420.645 201.496 420.822L196.115 428.847C195.885 429.186 195.798 429.602 195.873 430.005C195.949 430.408 196.181 430.764 196.519 430.996C196.607 431.061 196.703 431.114 196.806 431.153C200.714 432.612 204.27 433.758 209.117 435.647C214.823 437.888 213.103 438.005 219.786 440.728C223.825 442.356 226.3 438.044 224.737 437.145C217.259 433.094 215.93 429.798 214.002 425.811C213.558 425.007 212.828 424.398 211.957 424.105Z" fill="#263238"/>
<path d="M254.544 259.669L294.148 429.433L285.446 430.735C285.446 430.735 261.462 373.87 255.743 345.73C255.191 343.152 254.808 340.541 254.596 337.913C254.476 335.955 253.999 334.034 253.189 332.246L250.141 325.511C242.689 308.953 228.228 275.941 226.287 265.232L254.544 259.669Z" fill="#FFB573"/>
<path d="M293.888 426.202L284.287 429.094C284.082 429.153 283.904 429.282 283.783 429.458C283.661 429.633 283.605 429.845 283.622 430.058L284.3 439.686C284.313 439.889 284.366 440.088 284.457 440.271C284.547 440.455 284.673 440.618 284.826 440.752C284.98 440.887 285.159 440.989 285.352 441.054C285.546 441.119 285.75 441.146 285.954 441.132C286.062 441.143 286.172 441.143 286.28 441.132C290.253 439.829 293.758 438.591 298.734 437.106C304.623 435.36 303.333 436.507 310.277 434.501C314.472 433.315 313.82 428.351 311.983 428.651C303.594 430.045 300.519 428.26 296.546 426.306C295.702 425.947 294.757 425.91 293.888 426.202Z" fill="#263238"/>
<path d="M230.261 135.308L238.182 183.888C238.182 183.888 203.854 211.871 226.561 276.293L277.252 272.098C277.252 272.098 283.596 240.415 276.196 185.503C276.196 185.503 289.758 151.175 277.252 136.389C277.252 136.376 259.482 125.823 230.261 135.308Z" fill="#263238"/>
<path d="M311.918 158.302C301.301 148.062 277.252 136.376 277.252 136.376C276.563 138.903 276.38 141.541 276.713 144.139C277.046 146.737 277.889 149.243 279.193 151.515C279.193 151.515 303.125 161.025 303.476 165.949C303.476 165.949 309.143 168.672 311.006 168.06C311.354 167.922 311.669 167.713 311.931 167.447C312.548 166.855 313.038 166.145 313.372 165.359C313.707 164.572 313.878 163.726 313.877 162.872C313.876 162.017 313.702 161.172 313.365 160.387C313.028 159.601 312.536 158.892 311.918 158.302Z" fill="#F0F600"/>
<path opacity="0.1" d="M256.785 269.258L228.463 273.036C229.245 275.368 230.183 277.961 231.225 280.736L258.674 277.309L256.785 269.258Z" fill="black"/>
<path opacity="0.6" d="M236.866 240.558C256.134 187.145 253.059 164.62 253.059 164.62L234.325 160.243L238.234 183.901C238.234 183.901 213.846 203.755 219.773 248.492C228.541 249.274 234.56 246.916 236.866 240.558Z" fill="black"/>
<path opacity="0.6" d="M270.673 198.414C270.673 198.414 268.067 228.755 279.792 241.144C279.958 226.243 279.205 211.346 277.539 196.538H275.298L270.673 198.414Z" fill="black"/>
<path opacity="0.1" d="M279.193 151.514C279.193 151.514 285.316 153.95 291.413 156.999C287.055 149.592 281.809 142.746 275.792 136.61L277.903 148.843C278.238 149.776 278.671 150.671 279.193 151.514Z" fill="black"/>
<path d="M261.97 142.538C243.731 137.17 250.128 133.041 250.128 133.041C252.89 128.546 252.264 120.743 251.43 115.636L261.944 125.393C260.941 128.989 260.524 131.06 263.846 132.989C263.872 132.989 266.673 134.526 261.97 142.538Z" fill="#FFB573"/>
<path opacity="0.1" d="M261.253 128.963C261.351 127.749 261.592 126.551 261.97 125.393L252.512 116.613L251.913 117.368C251.913 117.368 253.411 125.81 261.253 128.963Z" fill="black"/>
<path d="M249.281 100.719C248.682 110.803 248.213 115.05 252.642 120.795C259.3 129.445 271.806 127.973 275.415 118.281C278.659 109.552 279.089 94.5443 269.787 89.3723C267.74 88.2171 265.432 87.6053 263.082 87.5953C260.732 87.5854 258.419 88.1775 256.363 89.3153C254.307 90.4531 252.576 92.0986 251.337 94.0949C250.097 96.0913 249.389 98.3719 249.281 100.719Z" fill="#FFB573"/>
<path d="M245.946 108.341C246.105 109.303 246.453 110.224 246.97 111.052C247.486 111.879 248.161 112.596 248.956 113.161C251.079 114.646 252.994 112.953 253.111 110.491C253.216 108.302 252.239 104.876 249.763 104.368C249.332 104.293 248.89 104.304 248.463 104.401C248.037 104.497 247.633 104.677 247.276 104.93C246.919 105.183 246.615 105.504 246.382 105.875C246.15 106.246 245.993 106.659 245.92 107.09C245.851 107.505 245.86 107.929 245.946 108.341Z" fill="#FFB573"/>
<path d="M270.582 108.354C271.273 110.241 272.22 112.025 273.396 113.656C272.972 113.946 272.491 114.141 271.985 114.227C271.478 114.312 270.96 114.286 270.464 114.151L270.582 108.354Z" fill="#ED893E"/>
<path d="M263.103 101.996C263.043 101.957 262.994 101.904 262.96 101.84C262.908 101.748 262.893 101.639 262.92 101.537C262.947 101.435 263.013 101.347 263.103 101.293C263.749 100.907 264.479 100.684 265.23 100.643C265.982 100.602 266.732 100.745 267.416 101.058C267.505 101.11 267.571 101.195 267.6 101.294C267.629 101.394 267.619 101.5 267.572 101.592C267.55 101.639 267.518 101.68 267.48 101.714C267.441 101.748 267.396 101.773 267.348 101.789C267.299 101.805 267.247 101.811 267.196 101.806C267.145 101.801 267.096 101.786 267.051 101.762C266.48 101.514 265.858 101.406 265.238 101.447C264.617 101.488 264.014 101.676 263.481 101.996C263.423 102.026 263.358 102.042 263.292 102.042C263.227 102.042 263.162 102.026 263.103 101.996Z" fill="#263238"/>
<path d="M277.708 102.869C277.644 102.885 277.577 102.885 277.513 102.869C277.004 102.521 276.42 102.298 275.809 102.219C275.197 102.139 274.576 102.206 273.995 102.413C273.947 102.436 273.895 102.45 273.842 102.453C273.789 102.456 273.736 102.448 273.686 102.43C273.636 102.412 273.59 102.384 273.551 102.347C273.513 102.31 273.482 102.266 273.461 102.217C273.439 102.168 273.428 102.116 273.426 102.063C273.425 102.009 273.435 101.956 273.454 101.907C273.473 101.857 273.502 101.812 273.539 101.773C273.576 101.735 273.62 101.704 273.669 101.683C274.373 101.422 275.128 101.331 275.874 101.42C276.619 101.508 277.333 101.772 277.955 102.191C278.002 102.217 278.042 102.251 278.075 102.293C278.107 102.335 278.131 102.383 278.144 102.434C278.158 102.485 278.161 102.539 278.153 102.591C278.145 102.643 278.127 102.693 278.099 102.738C278.062 102.807 278.004 102.863 277.934 102.898C277.864 102.933 277.785 102.946 277.708 102.934V102.869Z" fill="#263238"/>
<path d="M264.849 106.882C264.849 107.702 265.253 108.367 265.8 108.393C266.347 108.419 266.777 107.741 266.79 106.921C266.803 106.1 266.386 105.436 265.852 105.423C265.318 105.41 264.875 106.061 264.849 106.882Z" fill="#263238"/>
<path d="M274.125 107.064C274.125 107.885 274.542 108.562 275.063 108.575C275.584 108.588 276.053 107.924 276.066 107.103C276.079 106.282 275.662 105.618 275.128 105.605C274.594 105.592 274.138 106.243 274.125 107.064Z" fill="#263238"/>
<path d="M274.894 105.644L276.874 105.123C276.874 105.123 275.792 106.647 274.894 105.644Z" fill="#263238"/>
<path d="M265.618 105.462L267.598 104.928C267.598 104.928 266.556 106.452 265.618 105.462Z" fill="#263238"/>
<path d="M268.367 117.538C268.804 117.532 269.24 117.488 269.669 117.408C269.73 117.395 269.783 117.359 269.817 117.308C269.851 117.257 269.863 117.195 269.852 117.134C269.839 117.077 269.806 117.026 269.757 116.992C269.709 116.958 269.65 116.944 269.591 116.952C268.624 117.158 267.621 117.135 266.664 116.884C265.707 116.632 264.822 116.161 264.081 115.506C264.037 115.464 263.979 115.44 263.918 115.44C263.857 115.44 263.799 115.464 263.755 115.506C263.732 115.528 263.714 115.554 263.701 115.583C263.689 115.612 263.683 115.643 263.683 115.675C263.683 115.707 263.689 115.738 263.701 115.767C263.714 115.796 263.732 115.823 263.755 115.844C265.017 116.982 266.669 117.589 268.367 117.538Z" fill="#263238"/>
<path d="M270.881 91.3525C270.881 91.3525 274.789 98.9476 266.673 98.7262C258.557 98.5047 257.28 111.858 257.28 111.858L253.841 111.454C253.841 111.454 257.059 124.964 253.841 126.527C250.623 128.09 236.905 121.485 236.905 121.485C239.811 116.884 241.385 111.568 241.451 106.126C241.829 96.5375 249.49 73.8564 270.881 91.3525Z" fill="#263238"/>
<path d="M256.342 86.8451C256.342 86.8451 265.461 80.7221 273.786 86.4412C282.11 92.1603 282.319 105.175 279.635 104.68C276.952 104.185 278.085 97.2281 269.747 95.0916C264.582 93.6811 259.93 90.8192 256.342 86.8451Z" fill="#263238"/>
<path d="M280.691 218.88C280.287 211.754 277.252 185.62 277.252 185.62C277.252 185.62 284.73 165.427 283.414 152.491C282.098 139.554 276.9 135.451 276.9 135.451L264.094 131.542C264.094 131.542 267.012 132.285 268.093 137.092V137.249C271.955 153.893 272.985 171.069 271.142 188.056C268.745 210.92 275.232 227.139 279.375 234.761C279.688 235.344 280.141 235.84 280.693 236.205C281.245 236.57 281.88 236.791 282.539 236.849C283.198 236.907 283.861 236.8 284.469 236.538C285.077 236.276 285.609 235.866 286.019 235.347L286.462 234.787C286.462 234.787 281.082 226.006 280.691 218.88Z" fill="#F0F600"/>
<path d="M273.291 203.833L279.127 202.374L280.313 203.586C280.446 203.717 280.545 203.879 280.602 204.057C280.659 204.235 280.672 204.424 280.64 204.609C280.608 204.793 280.532 204.967 280.419 205.115C280.305 205.264 280.157 205.383 279.987 205.462L276.313 207.181C276.041 207.31 275.729 207.33 275.443 207.235C275.157 207.141 274.918 206.939 274.776 206.673L273.291 203.833Z" fill="#F0F600"/>
<path opacity="0.2" d="M273.291 203.833L279.127 202.374L280.313 203.586C280.446 203.717 280.545 203.879 280.602 204.057C280.659 204.235 280.672 204.424 280.64 204.609C280.608 204.793 280.532 204.967 280.419 205.115C280.305 205.264 280.157 205.383 279.987 205.462L276.313 207.181C276.041 207.31 275.729 207.33 275.443 207.235C275.157 207.141 274.918 206.939 274.776 206.673L273.291 203.833Z" fill="black"/>
<g opacity="0.2">
<path d="M271.61 183.328C275.519 170.235 277.916 145.482 277.916 145.482H271.975L274.581 142.056L270.347 133.484L264.106 131.595C264.484 131.712 267.051 132.676 268.015 137.131V137.288C271.563 152.36 272.776 167.887 271.61 183.328Z" fill="black"/>
</g>
<path d="M294.696 171.003L281.772 176.019L274.112 169.974C273.78 169.7 273.363 169.55 272.933 169.55C272.503 169.55 272.086 169.7 271.754 169.974L268.406 172.853C268.079 173.135 267.86 173.522 267.786 173.947C267.712 174.372 267.789 174.81 268.002 175.185L269.305 177.465C269.487 177.78 269.759 178.034 270.086 178.195C271.819 179.041 277.538 181.738 279.883 181.868C284.912 182.142 299.281 176.657 299.281 176.657L294.696 171.003Z" fill="#FFB573"/>
<path d="M286.814 175.511C286.814 176.267 286.996 176.814 284.482 176.814C281.968 176.814 282.15 176.214 282.15 175.511C282.15 174.807 281.955 174.143 284.482 174.143C287.009 174.143 286.814 174.755 286.814 175.511Z" fill="#F0F600"/>
<path opacity="0.5" d="M284.482 174.143C282.88 174.143 282.372 174.391 282.215 174.768C282.372 175.133 282.88 175.381 284.482 175.381C286.085 175.381 286.593 175.133 286.749 174.768C286.593 174.391 286.085 174.143 284.482 174.143Z" fill="white"/>
<path d="M284.195 176.697C284.995 176.698 285.787 176.543 286.527 176.241C287.08 177.706 287.277 179.283 287.1 180.839L284.729 181.543C285.038 179.91 284.852 178.223 284.195 176.697Z" fill="#263238"/>
<path d="M313.364 159.852C320.399 170.757 290.487 180.97 290.487 180.97L286.253 173.154C286.253 173.154 301.743 168.229 301.392 163.305C301.392 163.305 303.71 158.823 305.3 158.367C306.889 157.911 313.364 159.852 313.364 159.852Z" fill="#F0F600"/>
<path d="M247.535 137.914C246.884 134.97 247.392 131.752 248.838 130.762L229.857 134.761L237.296 183.511C221.662 198.818 201.574 235.96 201.574 235.96L219.956 240.194C222.908 240.879 226.009 240.463 228.677 239.024C231.344 237.585 233.394 235.221 234.442 232.377C240.526 215.689 251.808 183.315 252.968 170.014C253.997 158.107 249.255 145.652 247.535 137.914Z" fill="#F0F600"/>
<path opacity="0.2" d="M248.786 130.735L242.051 132.155L241.321 142.577L246.258 146.277H238.689C238.689 146.277 250.935 152.101 250.649 182.247C251.717 178.239 252.492 174.16 252.968 170.04C253.997 158.146 249.255 145.691 247.535 137.927C246.884 134.943 247.392 131.725 248.786 130.735Z" fill="black"/>
<path opacity="0.2" d="M224.985 199.482L239.237 203.834L237.361 205.488C236.612 206.153 235.703 206.611 234.723 206.819C233.744 207.027 232.727 206.977 231.772 206.674L225.259 204.615C224.951 204.52 224.669 204.358 224.431 204.142C224.193 203.925 224.005 203.659 223.881 203.363C223.756 203.066 223.699 202.745 223.712 202.424C223.725 202.102 223.808 201.788 223.956 201.502L224.985 199.482Z" fill="black"/>
<path opacity="0.1" d="M234.963 168.32C239.888 152.178 234.182 141.066 234.182 141.066L231.29 144.427L234.963 168.32Z" fill="black"/>
<path d="M204.74 203.833L196.115 218.229L189.888 220.248C189.315 220.439 188.805 220.782 188.412 221.242C188.02 221.701 187.76 222.258 187.66 222.854L187.452 223.948C187.315 224.688 187.433 225.452 187.785 226.117C188.137 226.781 188.704 227.307 189.393 227.609L193.588 229.433C194.249 229.727 194.987 229.799 195.692 229.636C196.397 229.474 197.03 229.087 197.496 228.534L198.929 226.762C199.169 226.468 199.363 226.138 199.503 225.785L201.235 221.212L210.563 205.723L204.74 203.833Z" fill="#FFB573"/>
<path d="M230.261 135.308C230.261 135.308 223.656 140.323 219.969 158.015C216.282 175.706 216.269 177.556 213.625 183.536C209.938 191.965 198.057 211.611 198.057 211.611L205.977 215.831C205.977 215.831 219.696 193.919 223.135 186.532C226.574 179.146 231.173 162.705 233.414 154.628C234.716 149.925 237.127 141.131 230.261 135.308Z" fill="#F0F600"/>
<path opacity="0.6" d="M255.039 238.109C251.379 248.61 256.342 268.49 257.762 273.701L262.035 273.349C256.616 262.51 255.039 238.109 255.039 238.109Z" fill="black"/>
<path d="M198.265 241.978L173.03 227.882C171.81 227.201 170.396 226.951 169.016 227.17C167.636 227.39 166.37 228.068 165.422 229.094L151.522 244.18C150.885 244.871 150.413 245.698 150.142 246.598C149.871 247.498 149.808 248.448 149.957 249.376C150.106 250.304 150.464 251.186 151.004 251.956C151.543 252.726 152.25 253.363 153.072 253.82L186.631 272.58C187.451 273.039 188.364 273.305 189.302 273.36C190.24 273.415 191.178 273.257 192.045 272.897C192.913 272.537 193.688 271.985 194.312 271.283C194.935 270.58 195.392 269.745 195.646 268.841L201.222 249.091C201.601 247.746 201.515 246.312 200.979 245.021C200.442 243.73 199.486 242.658 198.265 241.978Z" fill="#F0F600"/>
<path d="M199.607 243.685C201.551 239.89 201.947 235.49 200.713 231.409C199.478 227.328 196.709 223.885 192.988 221.804C189.267 219.723 184.884 219.167 180.76 220.252C176.637 221.337 173.096 223.979 170.881 227.622C170.233 227.514 169.567 227.609 168.975 227.893C168.383 228.177 167.893 228.638 167.572 229.211C166.712 230.748 168.262 234.513 168.262 234.513C168.262 234.513 172.275 233.849 173.135 232.312C173.448 231.751 173.585 231.109 173.527 230.47C173.469 229.83 173.219 229.223 172.809 228.729C174.783 225.703 177.832 223.539 181.34 222.676C184.848 221.813 188.553 222.314 191.706 224.078C194.859 225.842 197.224 228.738 198.323 232.179C199.422 235.621 199.173 239.351 197.627 242.616C196.989 242.529 196.341 242.634 195.764 242.92C195.188 243.206 194.711 243.658 194.396 244.219C193.536 245.756 195.086 249.521 195.086 249.521C195.086 249.521 199.099 248.857 199.958 247.319C200.282 246.751 200.422 246.097 200.36 245.446C200.297 244.795 200.034 244.18 199.607 243.685Z" fill="#F0F600"/>
<path opacity="0.5" d="M199.607 243.685C201.551 239.89 201.947 235.49 200.713 231.409C199.478 227.328 196.709 223.885 192.988 221.804C189.267 219.723 184.884 219.167 180.76 220.252C176.637 221.337 173.096 223.979 170.881 227.622C170.233 227.514 169.567 227.609 168.975 227.893C168.383 228.177 167.893 228.638 167.572 229.211C166.712 230.748 168.262 234.513 168.262 234.513C168.262 234.513 172.275 233.849 173.135 232.312C173.448 231.751 173.585 231.109 173.527 230.47C173.469 229.83 173.219 229.223 172.809 228.729C174.783 225.703 177.832 223.539 181.34 222.676C184.848 221.813 188.553 222.314 191.706 224.078C194.859 225.842 197.224 228.738 198.323 232.179C199.422 235.621 199.173 239.351 197.627 242.616C196.989 242.529 196.341 242.634 195.764 242.92C195.188 243.206 194.711 243.658 194.396 244.219C193.536 245.756 195.086 249.521 195.086 249.521C195.086 249.521 199.099 248.857 199.958 247.319C200.282 246.751 200.422 246.097 200.36 245.446C200.297 244.795 200.034 244.18 199.607 243.685Z" fill="black"/>
<path d="M171.35 231.153C171.247 231.333 171.092 231.479 170.906 231.573C170.72 231.666 170.51 231.702 170.304 231.676C170.097 231.651 169.903 231.564 169.745 231.429C169.587 231.293 169.473 231.113 169.417 230.913C169.361 230.712 169.366 230.5 169.43 230.302C169.495 230.104 169.617 229.93 169.78 229.801C169.943 229.672 170.141 229.594 170.349 229.577C170.556 229.56 170.764 229.605 170.946 229.706C171.068 229.774 171.176 229.866 171.262 229.975C171.349 230.085 171.412 230.211 171.45 230.345C171.488 230.48 171.498 230.62 171.481 230.759C171.464 230.897 171.419 231.031 171.35 231.153Z" fill="#F0F600"/>
<path d="M198.213 246.16C198.146 246.283 198.055 246.392 197.946 246.48C197.837 246.568 197.712 246.633 197.577 246.672C197.442 246.711 197.301 246.722 197.162 246.706C197.023 246.69 196.889 246.646 196.767 246.577C196.521 246.441 196.34 246.212 196.263 245.942C196.186 245.672 196.22 245.383 196.356 245.138C196.493 244.892 196.721 244.711 196.991 244.634C197.261 244.557 197.55 244.591 197.796 244.727C197.918 244.793 198.027 244.882 198.115 244.99C198.202 245.098 198.267 245.222 198.306 245.356C198.345 245.489 198.357 245.629 198.341 245.768C198.325 245.906 198.281 246.039 198.213 246.16Z" fill="#F0F600"/>
<path d="M175.601 228.289L196.619 240.03L191.104 249.902C190.746 250.543 190.265 251.107 189.69 251.562C189.114 252.017 188.454 252.354 187.748 252.554C187.041 252.754 186.303 252.813 185.574 252.727C184.845 252.642 184.14 252.413 183.499 252.056L172.217 245.753C171.576 245.395 171.012 244.914 170.557 244.338C170.102 243.762 169.765 243.102 169.565 242.396C169.365 241.69 169.306 240.951 169.392 240.222C169.477 239.494 169.706 238.789 170.064 238.148L175.579 228.276L175.601 228.289Z" fill="#263238"/>
<path d="M181.173 245.939C181.031 246.19 180.818 246.393 180.561 246.523C180.304 246.653 180.014 246.703 179.728 246.669C179.442 246.634 179.172 246.516 178.953 246.328C178.735 246.141 178.576 245.893 178.498 245.615C178.42 245.338 178.426 245.043 178.515 244.769C178.604 244.495 178.773 244.254 178.999 244.075C179.225 243.897 179.499 243.789 179.786 243.766C180.073 243.743 180.361 243.805 180.613 243.946C180.781 244.039 180.929 244.165 181.048 244.316C181.167 244.467 181.256 244.64 181.308 244.826C181.36 245.011 181.375 245.205 181.351 245.396C181.328 245.587 181.268 245.771 181.173 245.939Z" fill="#F0F600"/>
</g>
<defs>
<clipPath id="clip0_436_19">
<rect width="500" height="500" fill="white"/>
</clipPath>
</defs>
</svg>
